<svg width="18" height="18" viewBox="0 0 18 18" fill="none" xmlns="http://www.w3.org/2000/svg">
<g clip-path="url(#clip0)">
<path d="M6.89062 5.13281C6.69646 5.13281 6.53906 4.97541 6.53906 4.78125C6.53906 4.58709 6.69646 4.42969 6.89062 4.42969C7.08479 4.42969 7.24219 4.58709 7.24219 4.78125C7.24219 4.97541 7.08479 5.13281 6.89062 5.13281Z" fill="#00AEFF"/>
<path d="M9 5.13281C8.80584 5.13281 8.64844 4.97541 8.64844 4.78125C8.64844 4.58709 8.80584 4.42969 9 4.42969C9.19416 4.42969 9.35156 4.58709 9.35156 4.78125C9.35156 4.97541 9.19416 5.13281 9 5.13281Z" fill="#00AEFF"/>
<path d="M11.1094 5.13281C10.9152 5.13281 10.7578 4.97541 10.7578 4.78125C10.7578 4.58709 10.9152 4.42969 11.1094 4.42969C11.3035 4.42969 11.4609 4.58709 11.4609 4.78125C11.4609 4.97541 11.3035 5.13281 11.1094 5.13281Z" fill="#00AEFF"/>
<path d="M7.59375 11.1445C7.59375 10.3691 8.22459 9.73828 9 9.73828C9.77541 9.73828 10.4062 10.3691 10.4062 11.1445C10.4062 11.9199 9.77541 12.5508 9 12.5508C8.22459 12.5508 7.59375 11.9199 7.59375 11.1445ZM9 11.8477C9.3877 11.8477 9.70312 11.5322 9.70312 11.1445C9.70312 10.7568 9.3877 10.4414 9 10.4414C8.6123 10.4414 8.29688 10.7568 8.29688 11.1445C8.29688 11.5322 8.6123 11.8477 9 11.8477Z" fill="#00AEFF"/>
<path d="M11.4609 15.0117V15.3281C11.4609 15.5223 11.3035 15.6797 11.1094 15.6797H6.89062C6.69649 15.6797 6.53906 15.5223 6.53906 15.3281V15.0117C6.53906 13.6548 7.64304 12.5508 9 12.5508C10.357 12.5508 11.4609 13.6548 11.4609 15.0117ZM9 13.2539C8.04252 13.2539 7.26138 14.0235 7.24254 14.9766H10.7575C10.7386 14.0235 9.95748 13.2539 9 13.2539Z" fill="#00AEFF"/>
<path d="M14.1328 11.1445C14.1328 10.3691 14.7637 9.73828 15.5391 9.73828C16.3145 9.73828 16.9453 10.3691 16.9453 11.1445C16.9453 11.9199 16.3145 12.5508 15.5391 12.5508C14.7637 12.5508 14.1328 11.9199 14.1328 11.1445ZM15.5391 11.8477C15.9268 11.8477 16.2422 11.5322 16.2422 11.1445C16.2422 10.7568 15.9268 10.4414 15.5391 10.4414C15.1514 10.4414 14.8359 10.7568 14.8359 11.1445C14.8359 11.5322 15.1514 11.8477 15.5391 11.8477Z" fill="#00AEFF"/>
<path d="M17.6484 15.6797H13.4297C13.2356 15.6797 13.0781 15.5223 13.0781 15.3281V15.0117C13.0781 13.6548 14.1821 12.5508 15.5391 12.5508C16.896 12.5508 18 13.6548 18 15.0117V15.3281C18 15.5223 17.8426 15.6797 17.6484 15.6797ZM15.5391 13.2539C14.5816 13.2539 13.8004 14.0235 13.7816 14.9766H17.2965C17.2777 14.0235 16.4965 13.2539 15.5391 13.2539Z" fill="#00AEFF"/>
<path d="M1.05469 11.1445C1.05469 10.3691 1.68553 9.73828 2.46094 9.73828C3.23634 9.73828 3.86719 10.3691 3.86719 11.1445C3.86719 11.9199 3.23634 12.5508 2.46094 12.5508C1.68553 12.5508 1.05469 11.9199 1.05469 11.1445ZM2.46094 11.8477C2.84864 11.8477 3.16406 11.5322 3.16406 11.1445C3.16406 10.7568 2.84864 10.4414 2.46094 10.4414C2.07323 10.4414 1.75781 10.7568 1.75781 11.1445C1.75781 11.5322 2.07323 11.8477 2.46094 11.8477Z" fill="#00AEFF"/>
<path d="M2.46094 12.5508C3.8179 12.5508 4.92188 13.6548 4.92188 15.0117V15.3281C4.92188 15.5223 4.76445 15.6797 4.57031 15.6797H0.351562C0.15743 15.6797 0 15.5223 0 15.3281V15.0117C0 13.6548 1.10398 12.5508 2.46094 12.5508ZM4.2184 14.9766C4.19955 14.0235 3.41842 13.2539 2.46094 13.2539C1.50346 13.2539 0.722321 14.0235 0.703477 14.9766H4.2184Z" fill="#00AEFF"/>
<path d="M1.40625 2.32031H7.41797C7.6121 2.32031 7.76953 2.47774 7.76953 2.67187C7.76953 2.86601 7.6121 3.02344 7.41797 3.02344H1.40625C1.01855 3.02344 0.703125 3.33886 0.703125 3.72656V5.83594C0.703125 6.22364 1.01855 6.53906 1.40625 6.53906H2.46094C2.65507 6.53906 2.8125 6.69649 2.8125 6.89062V7.37645L4.41309 6.57615C4.46189 6.55175 4.51571 6.53906 4.57031 6.53906H7.94531C8.03855 6.53906 8.12795 6.57612 8.1939 6.64203L9 7.4481L9.8061 6.642C9.87205 6.57612 9.96145 6.53906 10.0547 6.53906H13.2188C13.2733 6.53906 13.3272 6.55175 13.376 6.57619L14.9766 7.37645V6.89062C14.9766 6.69649 15.134 6.53906 15.3281 6.53906H16.5938C16.9815 6.53906 17.2969 6.22364 17.2969 5.83594V3.72656C17.2969 3.33886 16.9815 3.02344 16.5938 3.02344H10.582C10.3879 3.02344 10.2305 2.86601 10.2305 2.67187C10.2305 2.47774 10.3879 2.32031 10.582 2.32031H16.5938C17.3692 2.32031 18 2.95116 18 3.72656V5.83594C18 6.61134 17.3692 7.24219 16.5938 7.24219H15.6797V7.94531C15.6797 8.06716 15.6166 8.18033 15.5129 8.24439C15.4093 8.30841 15.2799 8.31421 15.1709 8.25978L13.1358 7.24219H10.2003L9.24862 8.1939C9.11131 8.33115 8.88877 8.33115 8.75141 8.1939L7.79966 7.24219H4.65328L2.61812 8.25975C2.50942 8.31414 2.3799 8.30851 2.27609 8.24435C2.17245 8.1803 2.10934 8.06713 2.10934 7.94528V7.24215H1.40621C0.630808 7.24215 -3.43323e-05 6.61131 -3.43323e-05 5.8359V3.72653C0 2.95116 0.630844 2.32031 1.40625 2.32031Z" fill="#00AEFF"/>
<path d="M9 3.02344C8.80584 3.02344 8.64844 2.86604 8.64844 2.67188C8.64844 2.47771 8.80584 2.32031 9 2.32031C9.19416 2.32031 9.35156 2.47771 9.35156 2.67188C9.35156 2.86604 9.19416 3.02344 9 3.02344Z" fill="#00AEFF"/>
</g>
<defs>
<clipPath id="clip0">
<rect width="18" height="18" fill="white" transform="matrix(-1 0 0 1 18 0)"/>
</clipPath>
</defs>
</svg>
