<svg width="42" height="42" viewBox="0 0 42 42" fill="none" xmlns="http://www.w3.org/2000/svg">
<g clip-path="url(#clip0)">
<path d="M40.6435 30.5386C39.2646 29.1596 37.4311 28.4001 35.481 28.4001C33.7406 28.4001 32.0932 29.005 30.7788 30.1154C27.9134 27.6999 23.6123 27.841 20.9147 30.5386C20.8011 30.6521 20.7373 30.8061 20.7373 30.9666C20.7373 36.5036 25.2421 41.0084 30.7791 41.0084C36.3161 41.0084 40.8208 36.5036 40.8208 30.9666C40.8207 30.8061 40.757 30.652 40.6435 30.5386ZM30.1938 31.213C30.2909 31.4309 30.5073 31.572 30.7468 31.572H30.8114C31.051 31.572 31.2674 31.4309 31.3645 31.2129C32.4905 30.1779 33.9422 29.611 35.4811 29.611C36.8667 29.611 38.1809 30.072 39.2512 30.9191C34.4558 35.3177 27.059 35.3352 22.2435 30.9706C24.566 29.0855 27.9638 29.1654 30.1938 31.213ZM30.779 39.7975C26.401 39.7975 22.7575 36.5952 22.0666 32.4099C24.5854 34.4307 27.6522 35.4419 30.7193 35.4419C33.8425 35.4419 36.9651 34.3936 39.5094 32.2986C38.8654 36.5382 35.1958 39.7975 30.779 39.7975Z" fill="#80D6FF"/>
<path d="M16.2507 17.9754C16.0673 17.8663 15.8398 17.8619 15.6522 17.9638C15.5446 18.0222 12.9853 19.4291 10.1449 22.3681C7.52294 25.0811 4.1702 29.6646 3.08738 36.094C2.87728 37.3417 3.22596 38.612 4.04423 39.5797C4.86475 40.5499 6.06382 41.1064 7.33403 41.1064H12.8102C14.8705 41.1064 16.5467 39.4302 16.5467 37.3699V18.4958C16.5468 18.2823 16.4343 18.0846 16.2507 17.9754ZM15.3359 37.3699C15.3359 38.7625 14.2029 39.8955 12.8102 39.8955H7.33411C6.42086 39.8955 5.55875 39.4953 4.9688 38.7977C4.38111 38.1029 4.13062 37.1907 4.28156 36.2952C5.30978 30.1898 8.49472 25.8263 10.9855 23.2409C12.717 21.4436 14.3639 20.2303 15.3359 19.5838V37.3699V37.3699Z" fill="#80D6FF"/>
<path d="M10.0322 35.932C8.48445 35.932 6.92273 36.3922 6.92273 37.4204C6.92273 37.7548 7.19377 38.0259 7.52817 38.0259C7.82482 38.0259 8.0717 37.8125 8.12349 37.5307C8.30276 37.3848 8.99242 37.1429 10.0322 37.1429C11.072 37.1429 11.7616 37.3848 11.9409 37.5307C11.9928 37.8124 12.2396 38.0259 12.5362 38.0259C12.8706 38.0259 13.1417 37.7548 13.1417 37.4204C13.1417 36.3922 11.5799 35.932 10.0322 35.932Z" fill="#80D6FF"/>
<path d="M22.3182 9.46073C22.1694 9.24813 19.3922 5.33837 15.4412 3.5765L16.4903 1.32311C16.6314 1.02003 16.5001 0.65987 16.1969 0.518808C15.8939 0.377665 15.5338 0.509013 15.3926 0.812172L14.307 3.14432C13.7527 2.96962 13.1799 2.84333 12.592 2.77821V0.605436C12.592 0.271045 12.321 0 11.9866 0C11.6522 0 11.3812 0.271045 11.3812 0.605436V2.73478C10.7715 2.75935 10.1762 2.85248 9.59913 3.00028L8.58046 0.812092C8.43932 0.508932 8.07923 0.377665 7.77615 0.518727C7.47299 0.65987 7.34173 1.01995 7.48279 1.32303L8.43883 3.37666C4.23563 5.02108 1.23904 9.23962 1.08432 9.46073C0.938445 9.66915 0.938445 9.94662 1.08432 10.155C1.27669 10.43 5.8635 16.8881 11.7013 16.8881C17.5391 16.8881 22.1259 10.4299 22.3183 10.155C22.4641 9.94654 22.4641 9.66915 22.3182 9.46073ZM8.44253 4.69191C9.46425 4.23235 10.5625 3.93851 11.7013 3.93851C12.8405 3.93851 13.9399 4.2338 14.9633 4.69528C15.7947 5.5496 16.2527 6.67328 16.2527 7.86786C16.2527 9.08363 15.7793 10.2266 14.9197 11.0863C14.0601 11.9459 12.917 12.4194 11.7012 12.4194C10.4854 12.4194 9.34237 11.946 8.48275 11.0863C6.72208 9.32553 6.70932 6.46976 8.44253 4.69191ZM11.7014 15.6773C7.22146 15.6773 3.35425 11.1165 2.33694 9.80765C2.89854 9.08339 4.33036 7.36583 6.25666 5.97472C6.04832 6.57558 5.93889 7.21329 5.93889 7.86794C5.93889 9.4071 6.53831 10.8542 7.62666 11.9425C8.71502 13.031 10.1621 13.6303 11.7013 13.6303C13.2404 13.6303 14.6876 13.0309 15.7758 11.9425C16.8643 10.8542 17.4636 9.40718 17.4636 7.86794C17.4636 7.21473 17.3546 6.57855 17.1472 5.97889C19.0712 7.36936 20.5032 9.08443 21.0656 9.80797C20.0475 11.1178 16.1806 15.6773 11.7014 15.6773Z" fill="#80D6FF"/>
<path d="M11.7012 4.8479C10.1685 4.8479 8.92157 6.09482 8.92157 7.62756C8.92157 9.1603 10.1685 10.4072 11.7012 10.4072C13.234 10.4072 14.4809 9.1603 14.4809 7.62756C14.4809 6.09482 13.234 4.8479 11.7012 4.8479ZM11.7012 9.19634C10.8362 9.19634 10.1324 8.49256 10.1324 7.62756C10.1324 6.76256 10.8362 6.05877 11.7012 6.05877C12.5662 6.05877 13.27 6.76256 13.27 7.62756C13.27 8.49256 12.5663 9.19634 11.7012 9.19634Z" fill="#80D6FF"/>
<path d="M32.9248 13.6406C31.3921 13.6406 30.1451 14.8875 30.1451 16.4203C30.1451 17.953 31.3921 19.1999 32.9248 19.1999C34.4575 19.1999 35.7045 17.953 35.7045 16.4203C35.7045 14.8875 34.4575 13.6406 32.9248 13.6406ZM32.9248 17.9891C32.0598 17.9891 31.356 17.2853 31.356 16.4203C31.356 15.5552 32.0598 14.8515 32.9248 14.8515C33.7898 14.8515 34.4936 15.5553 34.4936 16.4203C34.4936 17.2854 33.7899 17.9891 32.9248 17.9891Z" fill="#80D6FF"/>
<path d="M39.947 17.3111C40.2814 17.3111 40.5525 17.0401 40.5525 16.7057C40.5525 16.3713 40.2814 16.1003 39.947 16.1003H37.8177C37.7931 15.4906 37.7 14.8953 37.5522 14.3183L39.7404 13.2997C40.0436 13.1585 40.1748 12.7984 40.0338 12.4954C39.8926 12.1923 39.5325 12.061 39.2295 12.202L37.1758 13.158C35.5314 8.95474 31.3129 5.95815 31.0918 5.80344C30.8834 5.65748 30.6059 5.65748 30.3975 5.80344C30.1225 5.9958 23.6644 10.5826 23.6644 16.4204C23.6644 22.2583 30.1226 26.8451 30.3975 27.0375C30.5017 27.1104 30.6232 27.1468 30.7446 27.1468C30.866 27.1468 30.9875 27.1104 31.0917 27.0375C31.3043 26.8887 35.214 24.1115 36.9758 20.1605L39.2295 21.2096C39.3121 21.2481 39.399 21.2663 39.4845 21.2663C39.7126 21.2663 39.9312 21.1368 40.0338 20.9162C40.1749 20.6131 40.0436 20.253 39.7404 20.1119L37.4082 19.0263C37.5829 18.472 37.7092 17.8991 37.7743 17.3113H39.947V17.3111ZM30.7443 25.7848C29.4345 24.7687 24.8752 20.9082 24.8752 16.4204C24.8752 11.9404 29.4361 8.0732 30.745 7.0559C31.4692 7.61774 33.1867 9.04956 34.5779 10.9759C33.977 10.7675 33.3393 10.6581 32.6845 10.6581C31.1454 10.6581 29.6983 11.2575 28.61 12.3459C27.5215 13.4342 26.9222 14.8812 26.9222 16.4204C26.9222 17.9597 27.5215 19.4067 28.61 20.495C29.6983 21.5835 31.1454 22.1828 32.6845 22.1828C33.3378 22.1828 33.9739 22.0739 34.5736 21.8664C33.183 23.7905 31.4677 25.2226 30.7443 25.7848ZM35.8571 19.6824C35.0028 20.5139 33.879 20.9719 32.6844 20.9719C31.4686 20.9719 30.3257 20.4985 29.466 19.6389C28.6063 18.7792 28.1328 17.6362 28.1328 16.4204C28.1328 15.2048 28.6063 14.0617 29.466 13.202C30.3257 12.3424 31.4686 11.869 32.6844 11.869C33.8806 11.869 35.0056 12.3281 35.8604 13.1616C36.32 14.1833 36.6139 15.2815 36.6139 16.4203C36.614 17.5596 36.3186 18.6591 35.8571 19.6824Z" fill="#80D6FF"/>
<path d="M14.3983 23.4059C14.2163 23.1254 13.8413 23.0457 13.5609 23.2276C9.30056 25.992 7.20165 31.8012 7.11438 32.0472C7.00254 32.3622 7.16736 32.7084 7.48249 32.8202C7.54945 32.8439 7.61769 32.8552 7.68497 32.8552C7.9341 32.8552 8.16757 32.7003 8.25556 32.4521C8.27555 32.3957 10.3006 26.7866 14.22 24.2434C14.5005 24.0615 14.5803 23.6864 14.3983 23.4059Z" fill="#80D6FF"/>
<path d="M38.7248 3.38153C36.5561 1.21277 33.6683 0.0184326 30.5934 0.0184326C27.5183 0.0184326 24.6307 1.21277 22.4619 3.38145C22.1063 3.73703 21.9105 4.20976 21.9105 4.71267C21.9105 5.21558 22.1063 5.6883 22.4619 6.04389C23.1961 6.77794 24.3904 6.77778 25.1243 6.04381C28.1399 3.02827 33.0468 3.02827 36.0624 6.04381C36.4179 6.39939 36.8907 6.59521 37.3936 6.59521C37.8964 6.59521 38.3692 6.39939 38.7248 6.04381C39.4589 5.30984 39.4589 4.1155 38.7248 3.38153ZM37.8686 5.18772C37.7417 5.31457 37.573 5.3845 37.3937 5.3845C37.2143 5.3845 37.0455 5.31457 36.9187 5.18772C35.1748 3.44383 32.8842 2.57201 30.5934 2.57201C28.3027 2.57201 26.012 3.44391 24.2681 5.18772C24.0062 5.44961 23.5801 5.44961 23.3182 5.18772C23.1912 5.06079 23.1214 4.89211 23.1214 4.71275C23.1214 4.53339 23.1912 4.36455 23.3181 4.23778C25.258 2.29775 27.8418 1.22938 30.5934 1.22938C33.3449 1.22938 35.9286 2.29775 37.8686 4.23778C37.9956 4.36471 38.0654 4.53339 38.0654 4.71275C38.0655 4.89219 37.9956 5.06087 37.8686 5.18772Z" fill="#80D6FF"/>
<path d="M21.3182 19.8893C21.2043 19.732 21.0219 19.6389 20.8278 19.6389C20.6337 19.6389 20.4512 19.732 20.3374 19.8893C19.9144 20.4737 18.5342 22.4618 18.5342 23.5089C18.5342 24.7735 19.5631 25.8025 20.8278 25.8025C22.0925 25.8025 23.1214 24.7735 23.1214 23.5089C23.1213 22.4618 21.7411 20.4736 21.3182 19.8893ZM20.8277 24.5915C20.2307 24.5915 19.745 24.1058 19.745 23.5088C19.745 23.1532 20.2464 22.2106 20.8274 21.3161C21.4099 22.2154 21.9104 23.1634 21.9104 23.5088C21.9105 24.1059 21.4248 24.5915 20.8277 24.5915Z" fill="#80D6FF"/>
</g>
<defs>
<clipPath id="clip0">
<rect width="41.1064" height="41.1064" fill="white" transform="translate(0.344666)"/>
</clipPath>
</defs>
</svg>
