<svg width="60" height="60" viewBox="0 0 60 60" fill="none" xmlns="http://www.w3.org/2000/svg">
<path d="M58.8212 44.5749C56.8085 42.5622 54.1324 41.4536 51.2859 41.4536C48.7455 41.4536 46.341 42.3365 44.4225 43.9572C40.2401 40.4315 33.962 40.6374 30.0245 44.5749C29.8587 44.7406 29.7656 44.9654 29.7656 45.1997C29.7656 53.2817 36.3409 59.857 44.4228 59.857C52.5048 59.857 59.0801 53.2817 59.0801 45.1997C59.08 44.9654 58.9869 44.7405 58.8212 44.5749ZM43.5686 45.5594C43.7103 45.8774 44.0262 46.0833 44.3757 46.0833H44.4701C44.8198 46.0833 45.1357 45.8773 45.2774 45.5592C46.9209 44.0485 49.0399 43.221 51.286 43.221C53.3086 43.221 55.2268 43.8939 56.7889 45.1304C49.7894 51.5506 38.993 51.5763 31.9641 45.2055C35.3541 42.4539 40.3136 42.5706 43.5686 45.5594ZM44.4227 58.0894C38.0325 58.0894 32.7144 53.4153 31.7059 47.3063C35.3824 50.2559 39.8587 51.7319 44.3357 51.7319C48.8943 51.7319 53.4521 50.2019 57.1658 47.1439C56.2259 53.3322 50.8696 58.0894 44.4227 58.0894Z" fill="#6A6A6A"/>
<path d="M23.217 26.2374C22.9492 26.0782 22.6171 26.0717 22.3433 26.2204C22.1863 26.3058 18.4506 28.3592 14.3048 32.6491C10.4776 36.6091 5.58389 43.2992 4.00339 52.6838C3.69671 54.5049 4.20565 56.3592 5.40003 57.7715C6.59768 59.1877 8.34788 60 10.2019 60H18.195C21.2023 60 23.6489 57.5534 23.6489 54.5461V26.9969C23.649 26.6853 23.4849 26.3968 23.217 26.2374ZM21.8816 54.5461C21.8816 56.5788 20.2279 58.2325 18.1951 58.2325H10.202C8.86901 58.2325 7.61065 57.6485 6.74956 56.6302C5.89175 55.616 5.52612 54.2846 5.74643 52.9775C7.24725 44.0659 11.8961 37.6967 15.5317 33.9231C18.0591 31.2997 20.463 29.5286 21.8816 28.585V54.5461Z" fill="#6A6A6A"/>
<path d="M14.1402 52.4473C11.8811 52.4473 9.60156 53.119 9.60156 54.6198C9.60156 55.1079 9.99719 55.5035 10.4853 55.5035C10.9183 55.5035 11.2786 55.192 11.3542 54.7808C11.6159 54.5678 12.6225 54.2147 14.1402 54.2147C15.6579 54.2147 16.6645 54.5678 16.9262 54.7808C17.002 55.1919 17.3622 55.5035 17.7952 55.5035C18.2833 55.5035 18.6789 55.1079 18.6789 54.6198C18.6789 53.119 16.3993 52.4473 14.1402 52.4473Z" fill="#6A6A6A"/>
<path d="M32.0731 13.8091C31.856 13.4988 27.8024 7.79203 22.0353 5.22035L23.5666 1.93125C23.7726 1.48887 23.5809 0.963164 23.1384 0.757266C22.6961 0.55125 22.1704 0.742969 21.9644 1.18547L20.3798 4.58953C19.5708 4.33453 18.7346 4.1502 17.8766 4.05516V0.883711C17.8766 0.395625 17.4809 0 16.9929 0C16.5048 0 16.1092 0.395625 16.1092 0.883711V3.99176C15.2192 4.02762 14.3504 4.16355 13.5081 4.3793L12.0212 1.18535C11.8152 0.742851 11.2896 0.55125 10.8472 0.757148C10.4047 0.963164 10.2131 1.48875 10.419 1.93113L11.8145 4.92867C5.67935 7.32891 1.30544 13.4864 1.07962 13.8091C0.866689 14.1134 0.866689 14.5184 1.07962 14.8226C1.3604 15.2239 8.05544 24.6503 16.5765 24.6503C25.0974 24.6503 31.7925 15.2237 32.0733 14.8225C32.2861 14.5182 32.2861 14.1134 32.0731 13.8091ZM11.8199 6.84844C13.3112 6.17766 14.9142 5.74875 16.5764 5.74875C18.2393 5.74875 19.844 6.17977 21.3377 6.85336C22.5513 8.10035 23.2199 9.74051 23.2199 11.4841C23.2199 13.2587 22.5288 14.927 21.2741 16.1818C20.0193 17.4366 18.3509 18.1277 16.5763 18.1277C14.8017 18.1277 13.1333 17.4367 11.8786 16.1818C9.30864 13.6118 9.29001 9.44344 11.8199 6.84844ZM16.5766 22.8831C10.0375 22.8831 4.39286 16.226 2.90798 14.3155C3.7277 13.2584 5.81763 10.7514 8.62931 8.72086C8.32521 9.59789 8.16548 10.5287 8.16548 11.4843C8.16548 13.7309 9.0404 15.843 10.629 17.4316C12.2176 19.0203 14.3298 19.8952 16.5764 19.8952C18.823 19.8952 20.9353 19.0202 22.5238 17.4316C24.1125 15.843 24.9873 13.731 24.9873 11.4843C24.9873 10.5308 24.8281 9.60223 24.5254 8.72695C27.3337 10.7565 29.4239 13.2599 30.2448 14.316C28.7588 16.2278 23.1146 22.8831 16.5766 22.8831Z" fill="#6A6A6A"/>
<path d="M16.5763 7.07617C14.3391 7.07617 12.519 8.89621 12.519 11.1334C12.519 13.3707 14.3391 15.1907 16.5763 15.1907C18.8135 15.1907 20.6336 13.3707 20.6336 11.1334C20.6336 8.89621 18.8135 7.07617 16.5763 7.07617ZM16.5763 13.4233C15.3137 13.4233 14.2865 12.396 14.2865 11.1334C14.2865 9.87086 15.3137 8.84359 16.5763 8.84359C17.8389 8.84359 18.8662 9.87086 18.8662 11.1334C18.8662 12.396 17.839 13.4233 16.5763 13.4233Z" fill="#6A6A6A"/>
<path d="M47.5548 19.9102C45.3176 19.9102 43.4976 21.7302 43.4976 23.9674C43.4976 26.2046 45.3176 28.0247 47.5548 28.0247C49.7921 28.0247 51.6121 26.2046 51.6121 23.9674C51.6121 21.7302 49.7921 19.9102 47.5548 19.9102ZM47.5548 26.2573C46.2922 26.2573 45.265 25.23 45.265 23.9674C45.265 22.7047 46.2922 21.6776 47.5548 21.6776C48.8174 21.6776 49.8447 22.7048 49.8447 23.9674C49.8447 25.2301 48.8175 26.2573 47.5548 26.2573Z" fill="#6A6A6A"/>
<path d="M57.8046 25.2678C58.2927 25.2678 58.6884 24.8722 58.6884 24.3841C58.6884 23.896 58.2927 23.5004 57.8046 23.5004H54.6966C54.6607 22.6104 54.5248 21.7416 54.3091 20.8994L57.503 19.4125C57.9455 19.2065 58.1371 18.6809 57.9312 18.2385C57.7252 17.7961 57.1996 17.6045 56.7572 17.8103L53.7597 19.2057C51.3594 13.0705 45.202 8.69664 44.8793 8.47082C44.5751 8.25777 44.1701 8.25777 43.8659 8.47082C43.4645 8.7516 34.0381 15.4466 34.0381 23.9677C34.0381 32.4888 43.4646 39.1838 43.8659 39.4646C44.018 39.5711 44.1953 39.6242 44.3725 39.6242C44.5497 39.6242 44.727 39.571 44.8791 39.4646C45.1894 39.2474 50.8962 35.1938 53.4678 29.4268L56.7572 30.958C56.8779 31.0143 57.0047 31.0409 57.1295 31.0409C57.4625 31.0409 57.7814 30.8518 57.9312 30.5298C58.1372 30.0873 57.9455 29.5618 57.503 29.3559L54.0988 27.7713C54.3538 26.9622 54.5382 26.1259 54.6332 25.268H57.8046V25.2678ZM44.372 37.6362C42.4602 36.1531 35.8054 30.5181 35.8054 23.9676C35.8054 17.4285 42.4626 11.7838 44.3731 10.2989C45.4301 11.119 47.9371 13.2089 49.9676 16.0207C49.0906 15.7165 48.1598 15.5568 47.2041 15.5568C44.9575 15.5568 42.8453 16.4317 41.2567 18.0203C39.668 19.6089 38.7932 21.721 38.7932 23.9677C38.7932 26.2144 39.668 28.3265 41.2567 29.9151C42.8453 31.5038 44.9575 32.3786 47.2041 32.3786C48.1575 32.3786 49.0861 32.2196 49.9614 31.9168C47.9316 34.7253 45.4279 36.8155 44.372 37.6362ZM51.8349 28.7289C50.5879 29.9426 48.9476 30.6112 47.2039 30.6112C45.4293 30.6112 43.761 29.9201 42.5062 28.6654C41.2514 27.4107 40.5603 25.7423 40.5603 23.9677C40.5603 22.1932 41.2513 20.5248 42.5062 19.27C43.761 18.0153 45.4293 17.3242 47.2039 17.3242C48.9498 17.3242 50.592 17.9944 51.8397 19.2111C52.5105 20.7023 52.9395 22.3053 52.9395 23.9675C52.9396 25.6305 52.5085 27.2352 51.8349 28.7289Z" fill="#6A6A6A"/>
<path d="M20.513 34.164C20.2474 33.7545 19.7 33.6381 19.2907 33.9037C13.0722 37.9387 10.0086 46.4179 9.88121 46.777C9.71797 47.2368 9.95855 47.7421 10.4185 47.9052C10.5162 47.9399 10.6159 47.9563 10.7141 47.9563C11.0777 47.9563 11.4185 47.7303 11.5469 47.3679C11.5761 47.2857 14.5319 39.0985 20.2528 35.3863C20.6622 35.1208 20.7787 34.5734 20.513 34.164Z" fill="#6A6A6A"/>
<path d="M56.0206 4.93572C52.8551 1.77014 48.64 0.0268555 44.1517 0.0268555C39.6633 0.0268555 35.4485 1.77014 32.2829 4.93561C31.7638 5.45463 31.478 6.14463 31.478 6.87869C31.478 7.61275 31.7638 8.30275 32.2829 8.82178C33.3546 9.89322 35.0977 9.89299 36.1689 8.82166C40.5706 4.4201 47.7329 4.4201 52.1344 8.82166C52.6535 9.34068 53.3436 9.6265 54.0775 9.6265C54.8115 9.6265 55.5016 9.34068 56.0206 8.82166C57.0921 7.75033 57.0921 6.00705 56.0206 4.93572ZM54.7709 7.57209C54.5856 7.75725 54.3394 7.85932 54.0776 7.85932C53.8158 7.85932 53.5694 7.75725 53.3844 7.57209C50.8389 5.02666 47.4954 3.75412 44.1519 3.75412C40.8083 3.75412 37.4647 5.02678 34.9192 7.57209C34.537 7.95435 33.9151 7.95435 33.5327 7.57209C33.3474 7.38682 33.2454 7.1406 33.2454 6.87881C33.2454 6.61701 33.3474 6.37057 33.5326 6.18553C36.3642 3.35381 40.1355 1.79439 44.1517 1.79439C48.168 1.79439 51.9392 3.35381 54.7709 6.18553C54.9562 6.3708 55.0581 6.61701 55.0581 6.87881C55.0583 7.14072 54.9562 7.38693 54.7709 7.57209Z" fill="#6A6A6A"/>
<path d="M30.6134 29.031C30.4472 28.8015 30.181 28.6655 29.8976 28.6655C29.6143 28.6655 29.348 28.8015 29.1818 29.031C28.5644 29.884 26.5498 32.7858 26.5498 34.3142C26.5498 36.1601 28.0517 37.662 29.8976 37.662C31.7436 37.662 33.2454 36.1601 33.2454 34.3142C33.2453 32.7858 31.2307 29.8839 30.6134 29.031ZM29.8975 35.8945C29.0261 35.8945 28.3171 35.1855 28.3171 34.3141C28.3171 33.7951 29.0489 32.4192 29.897 31.1136C30.7472 32.4262 31.4779 33.8099 31.4779 34.3141C31.478 35.1856 30.769 35.8945 29.8975 35.8945Z" fill="#6A6A6A"/>
</svg>
