<svg width="16" height="16" viewBox="0 0 16 16" fill="none" xmlns="http://www.w3.org/2000/svg">
<path fill-rule="evenodd" clip-rule="evenodd" d="M12.5714 1.71428H14.2857C15.2325 1.71428 16 2.4818 16 3.42857V14.2857C16 15.2325 15.2325 16 14.2857 16H1.71428C0.767511 16 0 15.2325 0 14.2857V3.42857C0 2.4818 0.767511 1.71428 1.71428 1.71428H3.42857V0.571439C3.42857 0.255837 3.68444 0 4.00001 0C4.31558 0 4.57141 0.255837 4.57141 0.571439V1.71428H11.4286V0.571439C11.4286 0.255837 11.6844 0 12 0C12.3156 0 12.5714 0.255837 12.5714 0.571439V1.71428ZM14.2857 14.8572C14.6013 14.8572 14.8571 14.6013 14.8571 14.2857V6.85714H1.14285V14.2857C1.14285 14.6013 1.39868 14.8572 1.71428 14.8572H14.2857ZM1.14285 5.71429H14.8571H14.8572V3.42857C14.8572 3.11297 14.6014 2.85713 14.2857 2.85713H12.5715V3.99997C12.5715 4.31558 12.3156 4.57141 12 4.57141C11.6844 4.57141 11.4286 4.31558 11.4286 3.99997V2.85713H4.57145V3.99997C4.57145 4.31558 4.31561 4.57141 4.00001 4.57141C3.68441 4.57141 3.42857 4.31558 3.42857 3.99997V2.85713H1.71428C1.39868 2.85713 1.14285 3.11297 1.14285 3.42857V5.71429ZM3.42858 8.00004H4.57143C4.88703 8.00004 5.14287 8.25587 5.14287 8.57148C5.14287 8.88708 4.88703 9.14291 4.57143 9.14291H3.42858C3.11298 9.14291 2.85714 8.88708 2.85714 8.57148C2.85714 8.25587 3.11298 8.00004 3.42858 8.00004ZM8.57145 8.00004H7.4286C7.113 8.00004 6.85716 8.25587 6.85716 8.57148C6.85716 8.88708 7.113 9.14291 7.4286 9.14291H8.57145C8.88705 9.14291 9.14289 8.88708 9.14289 8.57148C9.14289 8.25587 8.88705 8.00004 8.57145 8.00004ZM11.4286 8.00004H12.5715C12.887 8.00004 13.1429 8.25587 13.1429 8.57148C13.1429 8.88708 12.8871 9.14291 12.5715 9.14291H11.4286C11.113 9.14291 10.8572 8.88708 10.8572 8.57148C10.8572 8.25587 11.113 8.00004 11.4286 8.00004ZM4.57143 10.2859H3.42858C3.11298 10.2859 2.85714 10.5417 2.85714 10.8574C2.85714 11.173 3.11298 11.4288 3.42858 11.4288H4.57143C4.88703 11.4288 5.14287 11.173 5.14287 10.8574C5.14287 10.5417 4.88703 10.2859 4.57143 10.2859ZM7.4286 10.2859H8.57145C8.88705 10.2859 9.14289 10.5417 9.14289 10.8574C9.14289 11.173 8.88705 11.4288 8.57145 11.4288H7.4286C7.113 11.4288 6.85716 11.173 6.85716 10.8574C6.85716 10.5417 7.113 10.2859 7.4286 10.2859ZM12.5715 10.2859H11.4286C11.113 10.2859 10.8572 10.5417 10.8572 10.8574C10.8572 11.173 11.113 11.4288 11.4286 11.4288H12.5715C12.8871 11.4288 13.1429 11.173 13.1429 10.8574C13.1429 10.5417 12.887 10.2859 12.5715 10.2859ZM3.42858 12.5713H4.57143C4.88703 12.5713 5.14287 12.8271 5.14287 13.1427C5.14287 13.4583 4.88703 13.7141 4.57143 13.7141H3.42858C3.11298 13.7141 2.85714 13.4583 2.85714 13.1427C2.85714 12.8271 3.11298 12.5713 3.42858 12.5713ZM8.57145 12.5713H7.4286C7.113 12.5713 6.85716 12.8271 6.85716 13.1427C6.85716 13.4583 7.113 13.7142 7.4286 13.7142H8.57145C8.88705 13.7142 9.14289 13.4583 9.14289 13.1427C9.14289 12.8271 8.88705 12.5713 8.57145 12.5713ZM11.4286 12.5713H12.5715C12.887 12.5713 13.1429 12.8271 13.1429 13.1427C13.1429 13.4583 12.8871 13.7142 12.5715 13.7142H11.4286C11.113 13.7142 10.8572 13.4583 10.8572 13.1427C10.8572 12.8271 11.113 12.5713 11.4286 12.5713Z" fill="#00AEFF"/>
</svg>
