<svg width="60" height="60" viewBox="0 0 60 60" fill="none" xmlns="http://www.w3.org/2000/svg">
<path d="M52.8038 55.8516H50.8294L47.4829 37.8923C47.7521 37.3129 47.8945 36.677 47.8945 36.0189V34.1139C47.8945 34.1057 47.8938 34.0976 47.8938 34.0894C47.8934 34.0144 47.8912 33.9394 47.8866 33.8647C47.8854 33.8454 47.8833 33.8263 47.8818 33.8071C47.8767 33.7405 47.8708 33.674 47.8625 33.6078C47.8608 33.5939 47.8585 33.5799 47.8566 33.5659C47.8466 33.4921 47.8351 33.4186 47.8212 33.3455C47.82 33.3396 47.8188 33.3336 47.8176 33.3277C47.8073 33.2749 47.7959 33.2224 47.7835 33.1701C47.7625 33.0817 47.7382 32.994 47.7115 32.9071C47.71 32.9023 47.7086 32.8974 47.7071 32.8926C47.6813 32.8102 47.6521 32.7289 47.6213 32.6481C47.6103 32.6193 47.5987 32.5907 47.587 32.5622C47.5641 32.5063 47.5399 32.451 47.5146 32.396C47.5021 32.369 47.4904 32.3417 47.4773 32.315C47.4451 32.2489 47.4111 32.1836 47.3753 32.1193C47.3736 32.1165 47.3716 32.114 47.37 32.1111C47.1194 31.6633 46.7843 31.2605 46.3723 30.9276C43.8541 28.893 37.5708 23.4501 33.6227 16.8727C33.0278 15.8816 32.0928 15.194 31.013 14.9186V12.9464L36.13 9.38676C36.6917 8.99596 37.0032 8.35497 36.9634 7.67188C36.9236 6.98878 36.5397 6.38819 35.9362 6.06528L30.4459 3.12707C30.113 2.94886 29.7109 2.95874 29.387 3.15264C29.0632 3.34675 28.8649 3.69663 28.8649 4.07421V9.00874V12.385V14.9188C27.785 15.1943 26.8499 15.8819 26.2551 16.8729C22.3071 23.4504 16.0239 28.8931 13.5056 30.9279C12.7452 31.5422 12.2413 32.3916 12.0598 33.3305C12.0589 33.3346 12.0581 33.3388 12.0573 33.343C12.0428 33.4184 12.0309 33.4943 12.0207 33.5704C12.0191 33.5821 12.0172 33.5937 12.0157 33.6056C12.0069 33.6753 12.0007 33.7453 11.9955 33.8155C11.9944 33.8311 11.9925 33.8468 11.9916 33.8625C11.9864 33.9461 11.9835 34.03 11.9835 34.1139V36.0189C11.9835 36.6859 12.132 37.3185 12.396 37.887L9.04863 55.8516H7.07422C6.48093 55.8516 6 56.3325 6 56.9258C6 57.5191 6.48082 58 7.07411 58H9.94109H17.403H24.0954H35.9123H42.4748H49.9368H52.8038C53.397 58 53.878 57.5191 53.878 56.9258C53.878 56.3325 53.397 55.8516 52.8038 55.8516ZM31.0133 9.00874V5.86741L34.6385 7.80734L31.0133 10.3292V9.00874ZM45.7052 33.7176C45.7185 33.7812 45.7284 33.8455 45.7352 33.9102C45.7357 33.9146 45.7359 33.919 45.7363 33.9233C45.7424 33.9852 45.7459 34.0473 45.746 34.1096C45.746 34.1111 45.7461 34.1125 45.7461 34.1139V34.9447V36.0189C45.7461 36.098 45.742 36.1762 45.7343 36.2532C45.7339 36.2578 45.7328 36.2623 45.7322 36.267C45.7258 36.3272 45.7166 36.3867 45.7055 36.4457C45.6999 36.4753 45.6926 36.5044 45.6859 36.5337C45.6795 36.5619 45.6734 36.5902 45.6659 36.6181C45.6563 36.6534 45.6454 36.6882 45.6343 36.7229C45.6278 36.7432 45.6214 36.7635 45.6143 36.7836C45.6009 36.8217 45.5865 36.8593 45.5711 36.8964C45.5649 36.9116 45.5584 36.9266 45.5519 36.9415C45.5344 36.9815 45.5161 37.0211 45.4963 37.0599C45.4915 37.0695 45.4862 37.0787 45.4813 37.0882C45.4478 37.1519 45.4106 37.2134 45.3715 37.2736C45.3627 37.2872 45.3534 37.3006 45.3442 37.314C45.3082 37.3668 45.2705 37.4185 45.2303 37.468C45.227 37.472 45.224 37.4761 45.2207 37.4801C45.2192 37.482 45.2177 37.4839 45.2162 37.4859C45.1178 37.6044 45.0076 37.7129 44.8877 37.8097C44.8804 37.8156 44.873 37.8212 44.8657 37.8269C44.8141 37.8675 44.7606 37.9056 44.7056 37.9417C44.6937 37.9496 44.682 37.9576 44.6698 37.9653C44.6066 38.0052 44.5416 38.0429 44.4743 38.0767C44.4699 38.0788 44.4656 38.081 44.4612 38.0831C44.4102 38.1084 44.358 38.1315 44.3049 38.1529C44.2963 38.1564 44.2877 38.16 44.279 38.1634C44.2288 38.183 44.1776 38.2005 44.1257 38.2166C44.1158 38.2198 44.1059 38.2233 44.0958 38.2263C44.0351 38.2443 43.9735 38.2601 43.9109 38.273C43.9096 38.2734 43.9083 38.2738 43.9069 38.274C43.8426 38.2872 43.7767 38.2963 43.7106 38.3041C43.6993 38.3054 43.6884 38.308 43.6772 38.309C43.6005 38.3168 43.5227 38.3208 43.4439 38.3208C42.5625 38.3208 41.7962 37.8224 41.4095 37.093C41.2393 36.772 41.1419 36.4067 41.1419 36.0188V34.9446V33.7167H45.7047C45.7052 33.7171 45.7052 33.7173 45.7052 33.7176ZM43.7808 31.5684H40.0679H37.4172L32.2591 18.751C35.8187 24.3652 40.8494 29.074 43.7808 31.5684ZM38.9939 33.7169V34.9447V36.0189C38.9939 36.4068 38.8966 36.7721 38.7263 37.0931C38.3396 37.8224 37.5732 38.3209 36.6918 38.3209C35.8103 38.3209 35.044 37.8225 34.6573 37.0931C34.487 36.7721 34.3897 36.4068 34.3897 36.0189V34.9447V33.7169H36.6917H38.9939ZM29.9391 18.7411L35.1013 31.5684H33.3153H26.5628H24.7768L29.9391 18.7411ZM32.2411 33.7169V34.9447V36.0189C32.2411 36.4068 32.1438 36.7721 31.9735 37.0931C31.5868 37.8224 30.8205 38.3209 29.9391 38.3209C29.0577 38.3209 28.2912 37.8225 27.9046 37.0931C27.7343 36.7721 27.637 36.4068 27.637 36.0189V34.9447V33.7169H32.2411ZM25.4886 33.7169V34.9447V36.0189C25.4886 36.4068 25.3913 36.7721 25.221 37.0931C24.8343 37.8224 24.0679 38.3209 23.1865 38.3209C22.3051 38.3209 21.5387 37.8225 21.1521 37.0931C20.9818 36.7721 20.8845 36.4068 20.8845 36.0189V34.9447V33.7169H23.1865H25.4886ZM27.6194 18.7504L22.4609 31.5684H19.8103H16.0972C19.0288 29.0739 24.06 24.365 27.6194 18.7504ZM16.4471 55.8516H11.2342L14.2117 39.8722C14.8662 40.2512 15.6249 40.4694 16.4341 40.4694C17.0969 40.4694 17.7259 40.3226 18.2915 40.0617L16.4471 55.8516ZM16.4341 38.3209C15.7194 38.3209 15.0798 37.9935 14.6572 37.4808C14.3293 37.0829 14.1321 36.5735 14.1321 36.0189V34.9447V34.1139C14.1321 34.049 14.1356 33.9842 14.1421 33.9199C14.1424 33.9172 14.1426 33.9144 14.1428 33.9117C14.1497 33.8463 14.1598 33.7812 14.1733 33.7169H18.7362V34.9447V36.0189C18.7362 36.4068 18.6388 36.7721 18.4686 37.0931C18.0818 37.8224 17.3154 38.3209 16.4341 38.3209ZM34.8383 55.8516H25.1699V50.2382C25.1699 47.5727 27.3385 45.404 30.0041 45.404C32.6696 45.404 34.8383 47.5727 34.8383 50.2382V55.8516ZM43.4312 55.8516L43.3285 54.9722L42.9908 52.1456C42.9205 51.5565 42.3854 51.1361 41.7968 51.2063C41.2077 51.2767 40.7873 51.8113 40.8575 52.4004L41.1948 55.2242L41.2682 55.8516H36.9869V50.2382C36.9869 46.388 33.8545 43.2556 30.0043 43.2556C26.1541 43.2556 23.0216 46.388 23.0216 50.2382V55.8516H18.6105L20.5119 39.5732C21.2571 40.1354 22.1836 40.4694 23.1869 40.4694C24.5362 40.4694 25.7463 39.8649 26.5631 38.9136C27.38 39.8649 28.5901 40.4694 29.9394 40.4694C31.2887 40.4694 32.4988 39.8649 33.3157 38.9136C34.1325 39.8649 35.3426 40.4694 36.6919 40.4694C37.6945 40.4694 38.6206 40.1358 39.3655 39.5743L39.8684 43.8966C39.937 44.4859 40.4704 44.9078 41.0596 44.8394C41.6488 44.7708 42.071 44.2375 42.0023 43.6482L41.5849 40.0608C42.1511 40.3223 42.7807 40.4694 43.4444 40.4694C43.4444 40.4694 43.4444 40.4694 43.4445 40.4694C43.5204 40.4694 43.596 40.4674 43.6714 40.4636C43.6812 40.4631 43.6909 40.462 43.7008 40.4614C43.7668 40.4577 43.8328 40.453 43.8983 40.4464C43.8997 40.4463 43.9011 40.4461 43.9024 40.4459C44.5298 40.3822 45.1284 40.1871 45.6674 39.8752L48.6442 55.8516H43.4312Z" fill="#6A6A6A"/>
<path d="M42.4485 47.6261C42.4217 47.5617 42.3883 47.4994 42.3497 47.4414C42.3099 47.3823 42.2659 47.3275 42.2154 47.2781C42.1659 47.2287 42.1111 47.1835 42.0531 47.1438C41.994 47.1051 41.9317 47.0718 41.8674 47.046C41.8028 47.0192 41.7352 46.9977 41.6665 46.9848C41.5279 46.9569 41.385 46.9569 41.2465 46.9848C41.1777 46.9977 41.11 47.0192 41.0456 47.046C40.9811 47.0718 40.9188 47.1051 40.8599 47.1438C40.8019 47.1835 40.7459 47.2287 40.6965 47.2781C40.6471 47.3275 40.6019 47.3823 40.5633 47.4414C40.5247 47.4994 40.4913 47.5617 40.4644 47.6261C40.4376 47.6917 40.4173 47.7593 40.4033 47.827C40.3894 47.8968 40.3818 47.9677 40.3818 48.0376C40.3818 48.1074 40.3894 48.1783 40.4033 48.247C40.4173 48.3158 40.4376 48.3834 40.4644 48.4479C40.4913 48.5134 40.5247 48.5757 40.5633 48.6337C40.6019 48.6928 40.6471 48.7476 40.6965 48.797C40.7459 48.8464 40.8017 48.8916 40.8599 48.9302C40.9189 48.9689 40.9812 49.0022 41.0456 49.0291C41.1102 49.0559 41.1777 49.0763 41.2465 49.0903C41.3152 49.1043 41.3861 49.1118 41.4559 49.1118C41.5268 49.1118 41.5967 49.1043 41.6665 49.0903C41.7352 49.0763 41.8029 49.0559 41.8674 49.0291C41.9318 49.0022 41.9941 48.9689 42.0531 48.9302C42.1111 48.8916 42.1659 48.8464 42.2154 48.797C42.2659 48.7476 42.3099 48.6928 42.3497 48.6337C42.3883 48.5757 42.4217 48.5134 42.4485 48.4479C42.4754 48.3834 42.4957 48.3158 42.5096 48.247C42.5236 48.1783 42.5311 48.1074 42.5311 48.0376C42.5311 47.9677 42.5236 47.8968 42.5096 47.827C42.4958 47.7593 42.4754 47.6917 42.4485 47.6261Z" fill="#6A6A6A"/>
</svg>
