<svg width="42" height="42" viewBox="0 0 42 42" fill="none" xmlns="http://www.w3.org/2000/svg">
<path d="M37.0699 38.3748H35.7172L33.4245 26.0709C33.6089 25.6739 33.7065 25.2382 33.7065 24.7874V23.4822C33.7065 23.4766 33.706 23.471 33.706 23.4654C33.7057 23.4141 33.7042 23.3627 33.701 23.3115C33.7002 23.2983 33.6988 23.2852 33.6977 23.272C33.6943 23.2264 33.6902 23.1808 33.6846 23.1355C33.6834 23.1259 33.6818 23.1164 33.6805 23.1068C33.6737 23.0562 33.6658 23.0059 33.6562 22.9558C33.6554 22.9517 33.6546 22.9476 33.6538 22.9436C33.6467 22.9074 33.6389 22.8714 33.6304 22.8356C33.616 22.775 33.5994 22.715 33.5811 22.6554C33.5801 22.6521 33.5791 22.6488 33.5781 22.6455C33.5604 22.5891 33.5404 22.5333 33.5193 22.478C33.5118 22.4583 33.5038 22.4387 33.4958 22.4191C33.4801 22.3809 33.4636 22.343 33.4462 22.3053C33.4376 22.2868 33.4296 22.2681 33.4206 22.2498C33.3986 22.2045 33.3753 22.1598 33.3507 22.1157C33.3496 22.1138 33.3482 22.1121 33.3471 22.1101C33.1754 21.8033 32.9459 21.5274 32.6636 21.2993C30.9383 19.9053 26.6336 16.1764 23.9287 11.6701C23.5212 10.9912 22.8806 10.5201 22.1408 10.3314V8.98024L25.6465 6.5415C26.0314 6.27376 26.2448 5.83462 26.2175 5.36663C26.1903 4.89863 25.9272 4.48716 25.5138 4.26593L21.7523 2.25295C21.5242 2.13086 21.2488 2.13763 21.0269 2.27047C20.805 2.40346 20.6691 2.64316 20.6691 2.90184V6.28252V8.59563V10.3315C19.9294 10.5203 19.2887 10.9914 18.8812 11.6703C16.1764 16.1766 11.8717 19.9054 10.1464 21.2994C9.62548 21.7203 9.28024 22.3023 9.15586 22.9455C9.15528 22.9484 9.15469 22.9512 9.15417 22.9541C9.14424 23.0058 9.13607 23.0577 9.12908 23.1099C9.12797 23.1179 9.12672 23.1259 9.12569 23.134C9.11966 23.1817 9.11539 23.2297 9.11185 23.2778C9.11104 23.2885 9.10979 23.2993 9.10913 23.31C9.1056 23.3673 9.10361 23.4247 9.10361 23.4822V24.7874C9.10361 25.2443 9.20532 25.6777 9.38622 26.0672L7.09291 38.3748H5.74023C5.33376 38.3748 5.00427 38.7043 5.00427 39.1108C5.00427 39.5173 5.33369 39.8467 5.74015 39.8467H7.70434H12.8166H17.4016H25.4974H29.9934H35.1057H37.0699C37.4763 39.8467 37.8058 39.5173 37.8058 39.1108C37.8058 38.7043 37.4763 38.3748 37.0699 38.3748ZM22.141 6.28252V4.13037L24.6247 5.45943L22.141 7.18716V6.28252ZM32.2065 23.2107C32.2157 23.2543 32.2224 23.2984 32.2271 23.3427C32.2274 23.3457 32.2276 23.3487 32.2279 23.3517C32.2321 23.394 32.2344 23.4366 32.2345 23.4793C32.2345 23.4803 32.2346 23.4813 32.2346 23.4822V24.0514V24.7874C32.2346 24.8415 32.2318 24.8951 32.2265 24.9479C32.2262 24.951 32.2255 24.9541 32.2251 24.9574C32.2207 24.9986 32.2143 25.0393 32.2068 25.0797C32.2029 25.1001 32.1979 25.12 32.1934 25.14C32.189 25.1594 32.1848 25.1787 32.1796 25.1979C32.1731 25.2221 32.1656 25.2459 32.158 25.2697C32.1536 25.2836 32.1491 25.2975 32.1443 25.3113C32.1351 25.3373 32.1252 25.3631 32.1147 25.3886C32.1104 25.3989 32.106 25.4092 32.1015 25.4195C32.0895 25.4468 32.077 25.474 32.0635 25.5006C32.0602 25.5071 32.0566 25.5134 32.0532 25.5199C32.0302 25.5636 32.0047 25.6057 31.978 25.6469C31.9719 25.6563 31.9655 25.6654 31.9593 25.6746C31.9346 25.7108 31.9088 25.7462 31.8812 25.7802C31.879 25.7829 31.8769 25.7857 31.8746 25.7884C31.8736 25.7897 31.8726 25.791 31.8715 25.7924C31.8041 25.8736 31.7286 25.948 31.6465 26.0143C31.6415 26.0183 31.6364 26.0221 31.6314 26.026C31.5961 26.0539 31.5594 26.0799 31.5217 26.1047C31.5136 26.1101 31.5055 26.1156 31.4972 26.1208C31.4539 26.1482 31.4094 26.174 31.3633 26.1971C31.3603 26.1986 31.3573 26.2001 31.3543 26.2016C31.3193 26.2189 31.2836 26.2347 31.2472 26.2494C31.2413 26.2518 31.2355 26.2543 31.2295 26.2565C31.195 26.27 31.16 26.282 31.1245 26.293C31.1176 26.2952 31.1109 26.2976 31.1039 26.2997C31.0624 26.312 31.0202 26.3228 30.9773 26.3317C30.9764 26.3319 30.9755 26.3322 30.9746 26.3323C30.9305 26.3414 30.8854 26.3476 30.84 26.3529C30.8323 26.3538 30.8249 26.3556 30.8171 26.3563C30.7646 26.3616 30.7113 26.3644 30.6574 26.3644C30.0535 26.3644 29.5285 26.0229 29.2635 25.5232C29.147 25.3033 29.0802 25.053 29.0802 24.7873V24.0513V23.2101H32.2062C32.2065 23.2104 32.2065 23.2105 32.2065 23.2107ZM30.8882 21.7383H28.3444H26.5284L22.9945 12.957C25.4333 16.8034 28.8798 20.0293 30.8882 21.7383ZM27.6086 23.2102V24.0514V24.7874C27.6086 25.0531 27.5419 25.3034 27.4253 25.5233C27.1603 26.0229 26.6353 26.3645 26.0314 26.3645C25.4275 26.3645 24.9025 26.023 24.6375 25.5233C24.5209 25.3034 24.4542 25.0531 24.4542 24.7874V24.0514V23.2102H26.0314H27.6086ZM21.4051 12.9502L24.9418 21.7383H23.7182H19.092H17.8684L21.4051 12.9502ZM22.9822 23.2102V24.0514V24.7874C22.9822 25.0531 22.9156 25.3034 22.7989 25.5233C22.534 26.0229 22.0089 26.3645 21.4051 26.3645C20.8012 26.3645 20.2761 26.023 20.0113 25.5233C19.8946 25.3034 19.8279 25.0531 19.8279 24.7874V24.0514V23.2102H22.9822ZM18.356 23.2102V24.0514V24.7874C18.356 25.0531 18.2894 25.3034 18.1727 25.5233C17.9078 26.0229 17.3827 26.3645 16.7789 26.3645C16.175 26.3645 15.6499 26.023 15.3851 25.5233C15.2684 25.3034 15.2017 25.0531 15.2017 24.7874V24.0514V23.2102H16.7789H18.356ZM19.8159 12.9566L16.2817 21.7383H14.4658H11.9219C13.9304 20.0293 17.3773 16.8032 19.8159 12.9566ZM12.1616 38.3748H8.59028L10.6301 27.4273C11.0785 27.6869 11.5983 27.8364 12.1527 27.8364C12.6068 27.8364 13.0377 27.7359 13.4253 27.5571L12.1616 38.3748ZM12.1527 26.3645C11.6631 26.3645 11.2249 26.1402 10.9354 25.7889C10.7107 25.5163 10.5756 25.1673 10.5756 24.7874V24.0514V23.4822C10.5756 23.4378 10.578 23.3934 10.5825 23.3493C10.5827 23.3475 10.5828 23.3455 10.583 23.3437C10.5877 23.2989 10.5946 23.2543 10.6039 23.2102H13.7299V24.0514V24.7874C13.7299 25.0531 13.6632 25.3034 13.5466 25.5233C13.2816 26.0229 12.7565 26.3645 12.1527 26.3645ZM24.7616 38.3748H18.1377V34.5291C18.1377 32.7029 19.6234 31.2172 21.4496 31.2172C23.2758 31.2172 24.7616 32.7029 24.7616 34.5291V38.3748ZM30.6486 38.3748L30.5782 37.7724L30.3469 35.8359C30.2987 35.4323 29.9321 35.1442 29.5289 35.1923C29.1253 35.2405 28.8373 35.6068 28.8854 36.0104L29.1165 37.945L29.1668 38.3748H26.2336V34.5291C26.2336 31.8913 24.0876 29.7453 21.4498 29.7453C18.812 29.7453 16.6659 31.8913 16.6659 34.5291V38.3748H13.6438L14.9465 27.2224C15.457 27.6076 16.0918 27.8364 16.7791 27.8364C17.7035 27.8364 18.5326 27.4223 19.0922 26.7705C19.6518 27.4223 20.4809 27.8364 21.4053 27.8364C22.3297 27.8364 23.1588 27.4223 23.7184 26.7705C24.278 27.4223 25.1071 27.8364 26.0315 27.8364C26.7184 27.8364 27.3529 27.6079 27.8632 27.2232L28.2077 30.1844C28.2548 30.5881 28.6202 30.8772 29.0238 30.8303C29.4275 30.7833 29.7167 30.418 29.6697 30.0142L29.3837 27.5565C29.7716 27.7357 30.203 27.8364 30.6577 27.8364C30.6577 27.8364 30.6577 27.8364 30.6577 27.8364C30.7098 27.8364 30.7616 27.835 30.8132 27.8324C30.8199 27.8321 30.8266 27.8313 30.8333 27.831C30.8786 27.8284 30.9238 27.8252 30.9687 27.8207C30.9696 27.8206 30.9706 27.8204 30.9715 27.8203C31.4013 27.7767 31.8114 27.643 32.1806 27.4294L34.2201 38.3748H30.6486Z" fill="#80D6FF"/>
<path d="M29.9753 32.7396C29.9569 32.6954 29.9341 32.6528 29.9076 32.613C29.8804 32.5725 29.8502 32.535 29.8156 32.5012C29.7817 32.4673 29.7442 32.4364 29.7044 32.4092C29.664 32.3827 29.6213 32.3599 29.5772 32.3422C29.533 32.3238 29.4867 32.3091 29.4396 32.3002C29.3446 32.2811 29.2468 32.2811 29.1518 32.3002C29.1047 32.3091 29.0583 32.3238 29.0142 32.3422C28.97 32.3599 28.9273 32.3827 28.8869 32.4092C28.8472 32.4364 28.8089 32.4673 28.775 32.5012C28.7412 32.535 28.7102 32.5725 28.6838 32.613C28.6573 32.6528 28.6344 32.6954 28.616 32.7396C28.5976 32.7845 28.5837 32.8309 28.5742 32.8772C28.5646 32.9251 28.5594 32.9736 28.5594 33.0215C28.5594 33.0693 28.5646 33.1179 28.5742 33.165C28.5837 33.2121 28.5976 33.2585 28.616 33.3026C28.6344 33.3475 28.6573 33.3902 28.6838 33.4299C28.7102 33.4704 28.7412 33.5079 28.775 33.5418C28.8089 33.5757 28.8471 33.6066 28.8869 33.6331C28.9274 33.6596 28.9701 33.6824 29.0142 33.7008C29.0584 33.7192 29.1047 33.7331 29.1518 33.7427C29.1989 33.7523 29.2475 33.7574 29.2953 33.7574C29.3439 33.7574 29.3917 33.7523 29.4396 33.7427C29.4867 33.7331 29.533 33.7192 29.5772 33.7008C29.6214 33.6824 29.664 33.6596 29.7044 33.6331C29.7442 33.6066 29.7817 33.5757 29.8156 33.5418C29.8502 33.5079 29.8804 33.4704 29.9076 33.4299C29.9341 33.3902 29.9569 33.3475 29.9753 33.3026C29.9937 33.2585 30.0077 33.2121 30.0172 33.165C30.0268 33.1179 30.0319 33.0693 30.0319 33.0215C30.0319 32.9736 30.0268 32.9251 30.0172 32.8772C30.0077 32.8309 29.9937 32.7845 29.9753 32.7396Z" fill="#80D6FF"/>
</svg>
