<svg width="60" height="60" viewBox="0 0 60 60" fill="none" xmlns="http://www.w3.org/2000/svg">
<path d="M42.9435 35.9318L42.3883 39.1685C42.3374 39.4647 42.4592 39.764 42.7023 39.9407C42.9453 40.1173 43.2674 40.1407 43.5337 40.0008L46.4406 38.4726L49.3473 40.0008C49.4629 40.0615 49.589 40.0914 49.7146 40.0914C49.8783 40.0914 50.0412 40.0406 50.1787 39.9406C50.4218 39.7639 50.5436 39.4647 50.4927 39.1685L49.9376 35.9317L52.2893 33.6394C52.5044 33.4297 52.5818 33.1159 52.4889 32.8301C52.3961 32.5443 52.149 32.336 51.8517 32.2928L48.6018 31.8205L47.1484 28.8757C47.0153 28.6062 46.7409 28.4355 46.4404 28.4355C46.1398 28.4355 45.8654 28.6062 45.7323 28.8757L44.2787 31.8205L41.029 32.2928C40.7317 32.336 40.4845 32.5444 40.3917 32.8301C40.2988 33.1158 40.3763 33.4296 40.5914 33.6394L42.9435 35.9318ZM44.917 33.3234C45.174 33.2861 45.3963 33.1245 45.5113 32.8914L46.4406 31.0088L47.3696 32.8914C47.4847 33.1245 47.7069 33.286 47.964 33.3234L50.0416 33.6253L48.5382 35.0909C48.3521 35.2722 48.2672 35.5335 48.3113 35.7896L48.6661 37.8587L46.808 36.8819C46.6929 36.8214 46.5668 36.7912 46.4406 36.7912C46.3145 36.7912 46.1882 36.8214 46.0732 36.8819L44.2149 37.8587L44.5699 35.7897C44.6139 35.5335 44.5289 35.2722 44.3429 35.0908L42.8395 33.6253L44.917 33.3234Z" fill="#6A6A6A"/>
<path d="M9.67937 28.0217L9.12409 31.2583C9.07325 31.5545 9.19504 31.8539 9.4381 32.0305C9.68116 32.2072 10.0034 32.2306 10.2695 32.0906L13.1764 30.5625L16.0831 32.0906C16.1987 32.1514 16.3248 32.1813 16.4504 32.1813C16.6142 32.1813 16.777 32.1304 16.9145 32.0304C17.1577 31.8538 17.2795 31.5545 17.2285 31.2583L16.6734 28.0216L19.0251 25.7292C19.2402 25.5195 19.3176 25.2057 19.2248 24.9199C19.1319 24.6341 18.8849 24.4258 18.5875 24.3826L15.3376 23.9104L13.8842 20.9655C13.7512 20.696 13.4767 20.5254 13.1762 20.5254C12.8757 20.5254 12.6012 20.696 12.4682 20.9655L11.0146 23.9103L7.7648 24.3826C7.46752 24.4258 7.22036 24.6342 7.12752 24.9199C7.03467 25.2056 7.11215 25.5194 7.32721 25.7292L9.67937 28.0217ZM11.6528 25.4133C11.9098 25.376 12.1322 25.2145 12.2471 24.9814L13.1764 23.0987L14.1055 24.9814C14.2205 25.2145 14.4428 25.3759 14.6998 25.4133L16.7774 25.7152L15.274 27.1808C15.0879 27.3622 15.0031 27.6235 15.0471 27.8796L15.4019 29.9487L13.5438 28.9718C13.4287 28.9114 13.3026 28.8812 13.1764 28.8812C13.0503 28.8812 12.9241 28.9114 12.809 28.9718L10.9508 29.9487L11.3057 27.8797C11.3497 27.6235 11.2648 27.3622 11.0788 27.1808L9.57537 25.7152L11.6528 25.4133Z" fill="#6A6A6A"/>
<path d="M25.402 8.2374V9.1971C25.402 11.4505 27.0402 13.3273 29.1878 13.7027V15.9172C27.2531 16.2321 25.7194 17.7536 25.3855 19.6819H24.2805C23.2623 19.6819 23.2623 21.2609 24.2805 21.2609H35.6151C36.6334 21.2609 36.6334 19.6819 35.6151 19.6819H34.4778C34.1492 17.7842 32.6583 16.2808 30.7669 15.9335V13.7026C32.9145 13.3273 34.5527 11.4504 34.5527 9.197V8.22908C35.5606 8.0935 36.3617 7.68865 36.9394 7.01915C38.1082 5.66428 37.841 3.75433 37.8291 3.67381C37.7716 3.28674 37.4394 3 37.048 3H33.7631H33.7252H26.1916C26.188 3 26.1847 3.00053 26.1811 3.00053C26.1775 3.00053 26.1741 3 26.1706 3H22.8476C22.4563 3 22.1241 3.28674 22.0667 3.67381C22.0548 3.75444 21.7875 5.66428 22.9564 7.01915C23.5452 7.70191 24.366 8.11002 25.402 8.2374ZM32.8636 19.682H26.9996C27.3481 18.3895 28.5305 17.4354 29.9317 17.4354C31.3327 17.4354 32.5151 18.3894 32.8636 19.682ZM35.7436 5.98776C35.4651 6.31061 35.0659 6.52472 34.5526 6.62872V4.57899H36.272C36.2348 5.00942 36.109 5.56417 35.7436 5.98776ZM26.981 4.57899H32.9736V7.39969C32.9701 7.4298 32.9678 7.46032 32.9678 7.49148C32.9678 7.52264 32.97 7.55306 32.9736 7.58327V9.1971C32.9736 10.8491 31.6294 12.1933 29.9773 12.1933C28.3251 12.1933 26.981 10.8491 26.981 9.1971V4.57899ZM25.402 4.57899V6.63967C24.8636 6.54114 24.4462 6.32566 24.1575 5.99418C23.7879 5.57017 23.6611 5.01174 23.6238 4.57899H25.402Z" fill="#6A6A6A"/>
<path d="M56.1066 55.4211H54.8873V45.0764C54.8873 43.9571 53.977 43.0466 52.858 43.0466H39.2737C39.0795 43.0466 38.8923 43.0756 38.7144 43.1268V26.4586C38.7144 25.3393 37.8042 24.4287 36.6855 24.4287H23.1012C21.9826 24.4287 21.0725 25.3393 21.0725 26.4586V34.8505C20.9274 34.8174 20.7772 34.7983 20.6223 34.7983H7.0381C5.91913 34.7983 5.00879 35.7087 5.00879 36.8278V42.9997C5.00879 44.0179 6.58778 44.0179 6.58778 42.9997V36.8278C6.58778 36.5794 6.78978 36.3773 7.0381 36.3773H20.6222C20.8705 36.3773 21.0724 36.5794 21.0724 36.8278V55.4211H6.58778V46.8945C6.58778 45.8763 5.00879 45.8763 5.00879 46.8945V55.4211H3.78949C3.35338 55.4211 3 55.7745 3 56.2106C3 56.6467 3.35338 57.0001 3.78949 57.0001H56.1066C56.5427 57.0001 56.8961 56.6467 56.8961 56.2106C56.8961 55.7745 56.5426 55.4211 56.1066 55.4211ZM22.6513 55.4211V36.8278V26.4586C22.6513 26.21 22.8531 26.0077 23.1011 26.0077H36.6855C36.9335 26.0077 37.1354 26.21 37.1354 26.4586V55.4212H22.6513V55.4211ZM38.8236 55.4211V45.0764C38.8236 44.8279 39.0255 44.6255 39.2737 44.6255H52.8579C53.1062 44.6255 53.3082 44.8279 53.3082 45.0764V55.4211H38.8236Z" fill="#6A6A6A"/>
</svg>
