<svg width="42" height="42" viewBox="0 0 42 42" fill="none" xmlns="http://www.w3.org/2000/svg">
<path d="M29.7103 24.9618L29.3298 27.1792C29.295 27.3822 29.3784 27.5873 29.545 27.7083C29.7115 27.8293 29.9322 27.8453 30.1146 27.7495L32.1061 26.7025L34.0975 27.7495C34.1767 27.7911 34.2631 27.8116 34.3491 27.8116C34.4613 27.8116 34.5729 27.7767 34.6671 27.7082C34.8337 27.5872 34.9171 27.3822 34.8822 27.1792L34.5019 24.9617L36.1131 23.3912C36.2605 23.2476 36.3135 23.0326 36.2499 22.8368C36.1863 22.641 36.017 22.4982 35.8133 22.4687L33.5868 22.1451L32.591 20.1276C32.4999 19.943 32.3119 19.826 32.106 19.826C31.9001 19.826 31.712 19.943 31.6209 20.1276L30.625 22.1451L28.3986 22.4687C28.1949 22.4982 28.0256 22.641 27.962 22.8368C27.8984 23.0325 27.9514 23.2475 28.0988 23.3912L29.7103 24.9618ZM31.0623 23.1747C31.2384 23.1492 31.3907 23.0385 31.4694 22.8788L32.1061 21.589L32.7426 22.8788C32.8214 23.0385 32.9737 23.1491 33.1498 23.1747L34.5732 23.3816L33.5432 24.3857C33.4157 24.5099 33.3576 24.6889 33.3877 24.8644L33.6308 26.2819L32.3578 25.6127C32.279 25.5713 32.1926 25.5506 32.1061 25.5506C32.0197 25.5506 31.9332 25.5713 31.8544 25.6127L30.5813 26.2819L30.8245 24.8644C30.8546 24.6889 30.7964 24.5099 30.669 24.3856L29.639 23.3816L31.0623 23.1747Z" fill="#80D6FF"/>
<path d="M6.92077 19.5426L6.54034 21.76C6.50551 21.963 6.58895 22.1681 6.75547 22.2891C6.92199 22.4101 7.14275 22.4262 7.32506 22.3303L9.31661 21.2833L11.308 22.3303C11.3872 22.3719 11.4736 22.3924 11.5596 22.3924C11.6718 22.3924 11.7834 22.3575 11.8776 22.289C12.0442 22.168 12.1276 21.963 12.0927 21.76L11.7124 19.5425L13.3236 17.972C13.471 17.8284 13.524 17.6134 13.4604 17.4176C13.3968 17.2218 13.2275 17.0791 13.0238 17.0495L10.7973 16.726L9.80153 14.7084C9.71037 14.5238 9.52236 14.4069 9.31646 14.4069C9.11057 14.4069 8.92255 14.5238 8.8314 14.7084L7.83551 16.7259L5.60908 17.0495C5.40542 17.0791 5.23608 17.2219 5.17247 17.4176C5.10887 17.6133 5.16195 17.8283 5.30928 17.972L6.92077 19.5426ZM8.27277 17.7556C8.44888 17.7301 8.60119 17.6194 8.67995 17.4597L9.31661 16.1699L9.95312 17.4597C10.0319 17.6194 10.1842 17.73 10.3603 17.7556L11.7837 17.9624L10.7537 18.9665C10.6262 19.0908 10.5681 19.2698 10.5982 19.4453L10.8413 20.8628L9.5683 20.1936C9.48948 20.1522 9.40308 20.1315 9.31661 20.1315C9.23021 20.1315 9.14374 20.1522 9.06492 20.1936L7.79181 20.8628L8.03499 19.4453C8.06514 19.2698 8.00694 19.0908 7.87951 18.9665L6.84951 17.9624L8.27277 17.7556Z" fill="#80D6FF"/>
<path d="M17.6925 5.9882V6.6457C17.6925 8.18954 18.8148 9.47533 20.2861 9.73251V11.2497C18.9607 11.4654 17.9099 12.5078 17.6811 13.8289H16.9241C16.2265 13.8289 16.2265 14.9107 16.9241 14.9107H24.6895C25.3871 14.9107 25.3871 13.8289 24.6895 13.8289H23.9103C23.6852 12.5287 22.6638 11.4988 21.368 11.2608V9.73243C22.8393 9.47533 23.9616 8.18946 23.9616 6.64563V5.9825C24.6522 5.88961 25.201 5.61225 25.5968 5.15357C26.3976 4.22534 26.2145 2.91682 26.2063 2.86165C26.1669 2.59647 25.9393 2.40002 25.6712 2.40002H23.4207H23.3947H18.2334C18.231 2.40002 18.2287 2.40039 18.2262 2.40039C18.2238 2.40039 18.2214 2.40002 18.219 2.40002H15.9424C15.6743 2.40002 15.4467 2.59647 15.4074 2.86165C15.3992 2.9169 15.2161 4.22534 16.0169 5.15357C16.4204 5.62133 16.9827 5.90093 17.6925 5.9882ZM22.8044 13.829H18.787C19.0257 12.9435 19.8358 12.2898 20.7958 12.2898C21.7556 12.2898 22.5657 12.9434 22.8044 13.829ZM24.7776 4.44696C24.5867 4.66814 24.3133 4.81483 23.9616 4.88609V3.4818H25.1395C25.1141 3.77669 25.0279 4.15675 24.7776 4.44696ZM18.7742 3.4818H22.8798V5.41428C22.8774 5.43491 22.8758 5.45582 22.8758 5.47717C22.8758 5.49851 22.8773 5.51936 22.8798 5.54005V6.6457C22.8798 7.77752 21.9589 8.6984 20.827 8.6984C19.6951 8.6984 18.7742 7.77752 18.7742 6.6457V3.4818V3.4818ZM17.6925 3.4818V4.89359C17.3236 4.82608 17.0376 4.67846 16.8398 4.45136C16.5866 4.16086 16.4998 3.77828 16.4742 3.4818H17.6925V3.4818Z" fill="#80D6FF"/>
<path d="M38.7283 38.314H37.893V31.2268C37.893 30.46 37.2693 29.8361 36.5027 29.8361H27.196C27.063 29.8361 26.9347 29.856 26.8128 29.8911V18.4716C26.8128 17.7048 26.1893 17.0809 25.4228 17.0809H16.1162C15.3498 17.0809 14.7262 17.7048 14.7262 18.4716V24.2209C14.6268 24.1983 14.5239 24.1852 14.4178 24.1852H5.1112C4.34458 24.1852 3.7209 24.8089 3.7209 25.5756V29.804C3.7209 30.5016 4.80267 30.5016 4.80267 29.804V25.5756C4.80267 25.4055 4.94107 25.267 5.1112 25.267H14.4178C14.5878 25.267 14.7261 25.4055 14.7261 25.5756V38.314H4.80267V32.4724C4.80267 31.7748 3.7209 31.7748 3.7209 32.4724V38.314H2.88555C2.58677 38.314 2.34467 38.5561 2.34467 38.8549C2.34467 39.1537 2.58677 39.3958 2.88555 39.3958H38.7283C39.0271 39.3958 39.2692 39.1537 39.2692 38.8549C39.2692 38.5561 39.0271 38.314 38.7283 38.314ZM15.8079 38.314V25.5756V18.4716C15.8079 18.3013 15.9462 18.1627 16.1161 18.1627H25.4228C25.5927 18.1627 25.731 18.3013 25.731 18.4716V38.3141H15.8079V38.314ZM26.8877 38.314V31.2268C26.8877 31.0565 27.026 30.9179 27.196 30.9179H36.5026C36.6728 30.9179 36.8112 31.0565 36.8112 31.2268V38.314H26.8877Z" fill="#80D6FF"/>
</svg>
