<svg width="42" height="42" viewBox="0 0 42 42" fill="none" xmlns="http://www.w3.org/2000/svg">
<g clip-path="url(#clip0)">
<path d="M30.5704 32.964C30.5704 33.3425 30.2637 33.6493 29.8854 33.6493H31.2556C30.8777 33.648 30.5716 33.3419 30.5704 32.964V32.964Z" fill="#FFFDFD"/>
<path d="M25.0897 34.3342C25.0909 33.9563 25.397 33.6502 25.7749 33.6493H24.4047C24.783 33.6493 25.0897 33.956 25.0897 34.3342V34.3342Z" fill="#FFFDFD"/>
<path d="M19.6089 27.4832C19.6089 27.1049 19.9156 26.7982 20.2939 26.7982H18.9236C19.3022 26.7982 19.6089 27.1049 19.6089 27.4832Z" fill="#FFFDFD"/>
<path d="M25.0897 39.8153C25.0897 40.1935 24.783 40.5002 24.4047 40.5002H25.7749C25.397 40.4993 25.0909 40.1932 25.0897 39.8153V39.8153Z" fill="#FFFDFD"/>
<path d="M14.1279 34.3342C14.1279 33.956 14.4346 33.6493 14.8128 33.6493H13.4426C13.8212 33.6493 14.1279 33.956 14.1279 34.3342Z" fill="#FFFDFD"/>
<path d="M19.6089 32.964C19.6089 33.3425 19.3022 33.6493 18.9236 33.6493H20.2939C19.9156 33.6493 19.6089 33.3425 19.6089 32.964Z" fill="#FFFDFD"/>
<path d="M14.1279 26.113C14.1266 26.4909 13.8205 26.797 13.4426 26.7983H14.8128C14.4346 26.7983 14.1279 26.4916 14.1279 26.113Z" fill="#FFFDFD"/>
<path d="M25.0897 26.113C25.0897 26.4916 24.783 26.7983 24.4047 26.7983H25.7749C25.397 26.797 25.0909 26.4909 25.0897 26.113V26.113Z" fill="#FFFDFD"/>
<path d="M8.64671 32.964V27.4832C8.64671 27.1049 8.95343 26.7982 9.33197 26.7982H7.2765C6.89827 26.7982 6.59155 27.1049 6.59155 27.4832V32.964C6.59155 33.3426 6.89827 33.6493 7.2765 33.6493H9.33197C8.95343 33.6493 8.64671 33.3426 8.64671 32.964Z" fill="#FFFDFD"/>
<path d="M30.5704 27.4832C30.5716 27.1052 30.8777 26.7992 31.2556 26.7982H29.8854C30.2637 26.7982 30.5704 27.1049 30.5704 27.4832V27.4832Z" fill="#FFFDFD"/>
<path d="M1.79579 40.5003H3.85126C3.47272 40.5003 3.166 40.1936 3.166 39.8154V34.3342C3.166 33.956 3.47272 33.6493 3.85126 33.6493H1.79579C1.41756 33.6493 1.11084 33.956 1.11084 34.3342V39.8154C1.11084 40.1936 1.41756 40.5003 1.79579 40.5003V40.5003Z" fill="#FFFDFD"/>
<path d="M1.79579 26.7982H3.85126C3.47335 26.797 3.16725 26.4909 3.166 26.113V20.6322C3.16725 20.2542 3.47335 19.9482 3.85126 19.9469H1.79579C1.41787 19.9482 1.11178 20.2542 1.11084 20.6322V26.113C1.11178 26.4909 1.41787 26.797 1.79579 26.7982V26.7982Z" fill="#FFFDFD"/>
<path d="M14.1279 39.8153C14.1279 40.1935 13.8212 40.5002 13.4426 40.5002H14.8128C14.4346 40.5002 14.1279 40.1935 14.1279 39.8153Z" fill="#FFFDFD"/>
<path d="M12.0725 27.4832H1.1108C0.732258 27.4832 0.425537 27.1765 0.425537 26.7983V19.9469C0.425537 19.5687 0.732258 19.262 1.1108 19.262H12.0725C12.451 19.262 12.7577 19.5687 12.7577 19.9469V26.7983C12.7577 27.1765 12.451 27.4832 12.0725 27.4832ZM1.79575 26.113H11.3875V20.6322H1.79575V26.113Z" fill="#80D6FF"/>
<path d="M23.0345 27.4832H12.0725C11.6943 27.4832 11.3876 27.1765 11.3876 26.7983V19.9469C11.3876 19.5687 11.6943 19.262 12.0725 19.262H17.6013C17.9799 19.262 18.2866 19.5687 18.2866 19.9469C18.2866 20.3254 17.9799 20.6322 17.6013 20.6322H12.7578V26.113H22.3492V21.5708C22.3492 21.1923 22.656 20.8856 23.0345 20.8856C23.4127 20.8856 23.7195 21.1923 23.7195 21.5708V26.7983C23.7195 27.1765 23.4127 27.4832 23.0345 27.4832V27.4832Z" fill="#80D6FF"/>
<path d="M33.9962 27.4832H23.0346C22.656 27.4832 22.3493 27.1765 22.3493 26.7983V21.5708C22.3493 21.1923 22.656 20.8856 23.0346 20.8856C23.4128 20.8856 23.7195 21.1923 23.7195 21.5708V26.113H33.3113V20.6322H30.6596C30.2814 20.6322 29.9747 20.3254 29.9747 19.9469C29.9747 19.5687 30.2814 19.262 30.6596 19.262H33.9962C34.3748 19.262 34.6815 19.5687 34.6815 19.9469V26.7983C34.6815 27.1765 34.3748 27.4832 33.9962 27.4832V27.4832Z" fill="#80D6FF"/>
<path d="M17.5533 34.3343H6.59163C6.21309 34.3343 5.90637 34.0276 5.90637 33.6494V26.7983C5.90637 26.4198 6.21309 26.113 6.59163 26.113H17.5533C17.9318 26.113 18.2386 26.4198 18.2386 26.7983V33.6494C18.2386 34.0276 17.9318 34.3343 17.5533 34.3343V34.3343ZM7.27658 32.9641H16.8684V27.4832H7.27658V32.9641Z" fill="#80D6FF"/>
<path d="M28.5153 34.3343H17.5534C17.1751 34.3343 16.8684 34.0276 16.8684 33.6494V26.7983C16.8684 26.4198 17.1751 26.113 17.5534 26.113H28.5153C28.8936 26.113 29.2003 26.4198 29.2003 26.7983V33.6494C29.2003 34.0276 28.8936 34.3343 28.5153 34.3343V34.3343ZM18.2386 32.9641H27.8301V27.4832H18.2386V32.9641Z" fill="#80D6FF"/>
<path d="M39.4767 34.3343H28.515C28.1365 34.3343 27.8298 34.0276 27.8298 33.6494V26.7983C27.8298 26.4198 28.1365 26.113 28.515 26.113H39.4767C39.8552 26.113 40.162 26.4198 40.162 26.7983V33.6494C40.162 34.0276 39.8552 34.3343 39.4767 34.3343V34.3343ZM29.2 32.9641H38.7918V27.4832H29.2V32.9641Z" fill="#80D6FF"/>
<path d="M12.0726 41.1856H1.11096V39.8154H12.0726V41.1856Z" fill="white"/>
<path d="M8.64679 40.5004C8.64804 40.8783 8.95414 41.1844 9.33205 41.1856H12.0725V39.8154H9.33205C8.95414 39.8164 8.64804 40.1225 8.64679 40.5004V40.5004Z" fill="#80D6FF"/>
<path d="M1.11096 39.8154V41.1856H3.85138C4.22961 41.1856 4.53633 40.8789 4.53633 40.5004C4.53633 40.1222 4.22961 39.8154 3.85138 39.8154H1.11096Z" fill="#80D6FF"/>
<path d="M6.59167 41.1858C6.77294 41.1829 6.94669 41.1121 7.07809 40.9869L7.16026 40.8844C7.18629 40.8461 7.20699 40.8047 7.22204 40.7608C7.2418 40.7222 7.2556 40.6805 7.26313 40.6375C7.27066 40.5924 7.27536 40.5466 7.27661 40.5005C7.27411 40.3192 7.20323 40.1455 7.07809 40.0141C6.91783 39.8478 6.68387 39.7748 6.45775 39.8205C6.23132 39.8667 6.04409 40.0247 5.96129 40.2402C5.92617 40.3227 5.90766 40.4111 5.90641 40.5005C5.90453 40.6827 5.97635 40.858 6.10524 40.9869C6.23414 41.1158 6.40945 41.1876 6.59167 41.1858V41.1858Z" fill="#80D6FF"/>
<path d="M12.0725 41.1857C11.6942 41.1857 11.3875 40.879 11.3875 40.5004V34.3343H1.79575V40.5004C1.79575 40.879 1.48903 41.1857 1.1108 41.1857C0.732258 41.1857 0.425537 40.879 0.425537 40.5004V33.6494C0.425537 33.2708 0.732258 32.9641 1.1108 32.9641H12.0725C12.451 32.9641 12.7577 33.2708 12.7577 33.6494V40.5004C12.7577 40.879 12.451 41.1857 12.0725 41.1857Z" fill="#80D6FF"/>
<path d="M23.0345 41.1857H12.0725C11.6943 41.1857 11.3876 40.879 11.3876 40.5004V33.6494C11.3876 33.2708 11.6943 32.9641 12.0725 32.9641H23.0345C23.4127 32.9641 23.7195 33.2708 23.7195 33.6494V40.5004C23.7195 40.879 23.4127 41.1857 23.0345 41.1857ZM12.7578 39.8155H22.3492V34.3343H12.7578V39.8155Z" fill="#80D6FF"/>
<path d="M33.9962 41.1857H23.0346C22.656 41.1857 22.3493 40.879 22.3493 40.5004V33.6494C22.3493 33.2708 22.656 32.9641 23.0346 32.9641H33.9962C34.3748 32.9641 34.6815 33.2708 34.6815 33.6494V40.5004C34.6815 40.879 34.3748 41.1857 33.9962 41.1857V41.1857ZM23.7195 39.8155H33.3113V34.3343H23.7195V39.8155Z" fill="#80D6FF"/>
<path d="M17.6517 23.3787C17.0931 23.3715 16.5781 23.0751 16.2912 22.5959C16.0042 22.1167 15.9863 21.5227 16.2435 21.0272L22.822 8.78624C23.0679 8.32741 23.5318 8.02633 24.0508 7.98839C24.5949 7.94856 25.1212 8.19036 25.4452 8.62911L32.459 17.9788C32.7892 18.4125 32.8739 18.9855 32.6838 19.4967C32.5022 19.9847 32.0832 20.3457 31.5739 20.4529L17.9816 23.3436C17.8731 23.3668 17.7624 23.3787 17.6517 23.3787ZM24.1684 9.35452L24.1546 9.35515C24.1013 9.3564 24.0533 9.38745 24.0298 9.43543L17.451 21.6761C17.4133 21.7529 17.4246 21.8448 17.4792 21.9106C17.5278 21.9806 17.6125 22.017 17.6968 22.0035L31.2892 19.1128C31.3415 19.1037 31.3845 19.0661 31.4011 19.0156C31.4268 18.9422 31.4124 18.861 31.3632 18.8011L24.3497 9.45174C24.3083 9.39215 24.2408 9.35609 24.1684 9.35483V9.35452Z" fill="#80D6FF"/>
<path d="M25.0301 16.9318C24.7353 16.9321 24.4731 16.7436 24.3797 16.4638C24.2862 16.1838 24.3825 15.8758 24.6183 15.6986L29.9703 11.6839C30.2384 11.4829 30.3883 11.1611 30.3692 10.8265L30.3008 9.59272C30.256 8.80051 30.6107 8.03841 31.2458 7.56296L33.2228 6.08017C33.5255 5.8531 33.9548 5.91457 34.1819 6.21722C34.409 6.51986 34.3478 6.94952 34.0448 7.17658L32.0678 8.6597C31.7996 8.86073 31.6497 9.1825 31.6688 9.51714L31.7372 10.7509C31.7824 11.5431 31.4274 12.3049 30.7923 12.7804L25.4403 16.7953C25.3221 16.8841 25.1782 16.9321 25.0301 16.9318V16.9318Z" fill="#80D6FF"/>
<path d="M34.6468 8.66307C34.6141 8.66307 34.5818 8.66087 34.5495 8.65617C34.3698 8.63045 34.2077 8.53448 34.0989 8.38896L32.0738 5.68963C31.8468 5.38698 31.9082 4.95764 32.2109 4.73058L37.8629 0.490421C38.7712 -0.189823 40.0586 -0.00635437 40.7404 0.900324L41.1212 1.4087C41.8017 2.31632 41.6179 3.60405 40.7106 4.28523L40.2995 3.73702L40.7106 4.28523L35.0579 8.52601C34.9394 8.61508 34.7948 8.66307 34.6468 8.66307V8.66307ZM33.5808 5.4149L34.7835 7.01875L39.8883 3.18944C40.1906 2.96238 40.2521 2.53335 40.0254 2.2307L39.6446 1.72232C39.4176 1.41999 38.9879 1.35884 38.6856 1.5859L33.5808 5.4149Z" fill="#80D6FF"/>
<path d="M3.16596 23.3725H1.1108C0.732258 23.3725 0.425537 23.0658 0.425537 22.6873C0.425537 22.309 0.732258 22.0023 1.1108 22.0023H3.16596C3.5445 22.0023 3.85122 22.309 3.85122 22.6873C3.85122 23.0658 3.5445 23.3725 3.16596 23.3725Z" fill="#80D6FF"/>
<path d="M8.64662 23.3725H5.9062C5.52797 23.3725 5.22125 23.0658 5.22125 22.6873C5.22125 22.309 5.52797 22.0023 5.9062 22.0023H8.64662C9.02516 22.0023 9.33188 22.309 9.33188 22.6873C9.33188 23.0658 9.02516 23.3725 8.64662 23.3725Z" fill="#80D6FF"/>
</g>
<defs>
<clipPath id="clip0">
<rect width="41.1065" height="41.7915" fill="white" transform="translate(0.425537)"/>
</clipPath>
</defs>
</svg>
