<svg width="60" height="61" viewBox="0 0 60 61" fill="none" xmlns="http://www.w3.org/2000/svg">
<g clip-path="url(#clip0)">
<path d="M44.0003 48.1151C44.0003 48.6676 43.5526 49.1153 43.0005 49.1153H45.0005C44.4489 49.1135 44.0021 48.6667 44.0003 48.1151Z" fill="#FFFDFD"/>
<path d="M36.0004 50.1151C36.0023 49.5635 36.4491 49.1167 37.0007 49.1154H35.0007C35.5527 49.1154 36.0004 49.5631 36.0004 50.1151Z" fill="#FFFDFD"/>
<path d="M28.0006 40.1152C28.0006 39.5632 28.4483 39.1155 29.0004 39.1155H27.0004C27.5529 39.1155 28.0006 39.5632 28.0006 40.1152Z" fill="#FFFDFD"/>
<path d="M36.0004 58.1155C36.0004 58.6675 35.5527 59.1152 35.0007 59.1152H37.0007C36.4491 59.1139 36.0023 58.6671 36.0004 58.1155Z" fill="#FFFDFD"/>
<path d="M20.0003 50.1151C20.0003 49.5631 20.448 49.1154 21.0001 49.1154H19.0001C19.5526 49.1154 20.0003 49.5631 20.0003 50.1151Z" fill="#FFFDFD"/>
<path d="M28.0006 48.1151C28.0006 48.6676 27.5529 49.1153 27.0004 49.1153H29.0004C28.4483 49.1153 28.0006 48.6676 28.0006 48.1151Z" fill="#FFFDFD"/>
<path d="M20.0003 38.1152C19.9985 38.6668 19.5517 39.1136 19.0001 39.1154H21.0001C20.448 39.1154 20.0003 38.6678 20.0003 38.1152Z" fill="#FFFDFD"/>
<path d="M36.0004 38.1152C36.0004 38.6678 35.5527 39.1154 35.0007 39.1154H37.0007C36.4491 39.1136 36.0023 38.6668 36.0004 38.1152Z" fill="#FFFDFD"/>
<path d="M11.9999 48.1152V40.1152C11.9999 39.5632 12.4476 39.1155 13.0001 39.1155H9.99989C9.44782 39.1155 9.00012 39.5632 9.00012 40.1152V48.1152C9.00012 48.6678 9.44782 49.1155 9.99989 49.1155H13.0001C12.4476 49.1155 11.9999 48.6678 11.9999 48.1152Z" fill="#FFFDFD"/>
<path d="M44.0003 40.1152C44.0021 39.5636 44.4489 39.1169 45.0005 39.1155H43.0005C43.5526 39.1155 44.0003 39.5632 44.0003 40.1152Z" fill="#FFFDFD"/>
<path d="M2.00004 59.1153H5.00026C4.44774 59.1153 4.00004 58.6676 4.00004 58.1156V50.1151C4.00004 49.5631 4.44774 49.1154 5.00026 49.1154H2.00004C1.44797 49.1154 1.00027 49.5631 1.00027 50.1151V58.1156C1.00027 58.6676 1.44797 59.1153 2.00004 59.1153Z" fill="#FFFDFD"/>
<path d="M2.00004 39.1155H5.00026C4.44865 39.1137 4.00187 38.6669 4.00004 38.1153V30.1153C4.00187 29.5637 4.44865 29.1169 5.00026 29.1151H2.00004C1.44843 29.1169 1.00165 29.5637 1.00027 30.1153V38.1153C1.00165 38.6669 1.44843 39.1137 2.00004 39.1155Z" fill="#FFFDFD"/>
<path d="M20.0003 58.1155C20.0003 58.6675 19.5526 59.1152 19.0001 59.1152H21.0001C20.448 59.1152 20.0003 58.6675 20.0003 58.1155Z" fill="#FFFDFD"/>
<path d="M17.0002 40.1152H1.00023C0.447699 40.1152 0 39.6675 0 39.1154V29.115C0 28.5629 0.447699 28.1152 1.00023 28.1152H17.0002C17.5527 28.1152 18.0004 28.5629 18.0004 29.115V39.1154C18.0004 39.6675 17.5527 40.1152 17.0002 40.1152ZM1.99999 38.1152H16.0004V30.1152H1.99999V38.1152Z" fill="#6A6A6A"/>
<path d="M33.0007 40.1152H17.0003C16.4482 40.1152 16.0005 39.6675 16.0005 39.1154V29.115C16.0005 28.5629 16.4482 28.1152 17.0003 28.1152H25.0703C25.6228 28.1152 26.0705 28.5629 26.0705 29.115C26.0705 29.6675 25.6228 30.1152 25.0703 30.1152H18.0005V38.1152H32.0004V31.4853C32.0004 30.9328 32.4481 30.4851 33.0007 30.4851C33.5527 30.4851 34.0004 30.9328 34.0004 31.4853V39.1154C34.0004 39.6675 33.5527 40.1152 33.0007 40.1152Z" fill="#6A6A6A"/>
<path d="M49.0007 40.1152H33.0007C32.4482 40.1152 32.0005 39.6675 32.0005 39.1154V31.4853C32.0005 30.9328 32.4482 30.4851 33.0007 30.4851C33.5528 30.4851 34.0005 30.9328 34.0005 31.4853V38.1152H48.0009V30.1152H44.1305C43.5784 30.1152 43.1307 29.6675 43.1307 29.115C43.1307 28.5629 43.5784 28.1152 44.1305 28.1152H49.0007C49.5532 28.1152 50.0009 28.5629 50.0009 29.115V39.1154C50.0009 39.6675 49.5532 40.1152 49.0007 40.1152Z" fill="#6A6A6A"/>
<path d="M25.0002 50.1152H9.00023C8.4477 50.1152 8 49.6675 8 49.1154V39.1155C8 38.5629 8.4477 38.1152 9.00023 38.1152H25.0002C25.5527 38.1152 26.0004 38.5629 26.0004 39.1155V49.1154C26.0004 49.6675 25.5527 50.1152 25.0002 50.1152ZM9.99999 48.1152H24.0004V40.1152H9.99999V48.1152Z" fill="#6A6A6A"/>
<path d="M41.0007 50.1152H25.0003C24.4482 50.1152 24.0005 49.6675 24.0005 49.1154V39.1155C24.0005 38.5629 24.4482 38.1152 25.0003 38.1152H41.0007C41.5527 38.1152 42.0004 38.5629 42.0004 39.1155V49.1154C42.0004 49.6675 41.5527 50.1152 41.0007 50.1152ZM26.0005 48.1152H40.0004V40.1152H26.0005V48.1152Z" fill="#6A6A6A"/>
<path d="M57.0002 50.1152H41.0002C40.4477 50.1152 40 49.6675 40 49.1154V39.1155C40 38.5629 40.4477 38.1152 41.0002 38.1152H57.0002C57.5527 38.1152 58.0004 38.5629 58.0004 39.1155V49.1154C58.0004 49.6675 57.5527 50.1152 57.0002 50.1152ZM42 48.1152H56.0004V40.1152H42V48.1152Z" fill="#6A6A6A"/>
<path d="M17.0005 60.1157H1.00049V58.1157H17.0005V60.1157Z" fill="white"/>
<path d="M12 59.1155C12.0018 59.6671 12.4486 60.1139 13.0002 60.1157H17.0002V58.1157H13.0002C12.4486 58.1171 12.0018 58.5639 12 59.1155Z" fill="#6A6A6A"/>
<path d="M1.00049 58.1157V60.1157H5.00048C5.55255 60.1157 6.00025 59.668 6.00025 59.1155C6.00025 58.5634 5.55255 58.1157 5.00048 58.1157H1.00049Z" fill="#6A6A6A"/>
<path d="M9.00028 60.1158C9.26487 60.1117 9.51847 60.0082 9.71028 59.8256L9.83021 59.6759C9.86821 59.62 9.89842 59.5596 9.92039 59.4955C9.94923 59.4392 9.96937 59.3783 9.98036 59.3156C9.99135 59.2497 9.99821 59.1828 10 59.1156C9.99638 58.851 9.89293 58.5974 9.71028 58.4055C9.47636 58.1629 9.13486 58.0563 8.80481 58.1231C8.4743 58.1904 8.20101 58.4211 8.08016 58.7356C8.02889 58.856 8.00188 58.9851 8.00005 59.1156C7.99731 59.3815 8.10214 59.6374 8.29028 59.8256C8.47842 60.0137 8.73431 60.1185 9.00028 60.1158Z" fill="#6A6A6A"/>
<path d="M17.0002 60.1157C16.4481 60.1157 16.0004 59.668 16.0004 59.1154V50.1152H1.99999V59.1154C1.99999 59.668 1.5523 60.1157 1.00023 60.1157C0.447699 60.1157 0 59.668 0 59.1154V49.1155C0 48.5629 0.447699 48.1152 1.00023 48.1152H17.0002C17.5527 48.1152 18.0004 48.5629 18.0004 49.1155V59.1154C18.0004 59.668 17.5527 60.1157 17.0002 60.1157Z" fill="#6A6A6A"/>
<path d="M33.0007 60.1157H17.0003C16.4482 60.1157 16.0005 59.668 16.0005 59.1154V49.1155C16.0005 48.5629 16.4482 48.1152 17.0003 48.1152H33.0007C33.5527 48.1152 34.0004 48.5629 34.0004 49.1155V59.1154C34.0004 59.668 33.5527 60.1157 33.0007 60.1157ZM18.0005 58.1157H32.0004V50.1152H18.0005V58.1157Z" fill="#6A6A6A"/>
<path d="M49.0007 60.1157H33.0007C32.4482 60.1157 32.0005 59.668 32.0005 59.1154V49.1155C32.0005 48.5629 32.4482 48.1152 33.0007 48.1152H49.0007C49.5532 48.1152 50.0009 48.5629 50.0009 49.1155V59.1154C50.0009 59.668 49.5532 60.1157 49.0007 60.1157ZM34.0005 58.1157H48.0009V50.1152H34.0005V58.1157Z" fill="#6A6A6A"/>
<path d="M25.1437 34.1241C24.3284 34.1136 23.5768 33.681 23.1579 32.9816C22.7391 32.2821 22.713 31.4151 23.0883 30.6918L32.6905 12.8246C33.0494 12.1549 33.7265 11.7154 34.4841 11.66C35.2783 11.6019 36.0464 11.9548 36.5193 12.5952L46.7569 26.2423C47.2389 26.8754 47.3625 27.7117 47.0851 28.4579C46.82 29.1702 46.2085 29.6971 45.465 29.8536L25.6253 34.0729C25.4669 34.1068 25.3053 34.1241 25.1437 34.1241ZM34.6557 13.6541L34.6356 13.655C34.5578 13.6568 34.4877 13.7021 34.4534 13.7722L24.8508 31.6389C24.7958 31.7511 24.8123 31.8852 24.892 31.9813C24.9629 32.0834 25.0865 32.1365 25.2096 32.1168L45.0494 27.8976C45.1258 27.8843 45.1885 27.8294 45.2128 27.7557C45.2503 27.6485 45.2293 27.53 45.1574 27.4425L34.9203 13.796C34.8599 13.709 34.7615 13.6564 34.6557 13.6545V13.6541Z" fill="#6A6A6A"/>
<path d="M35.9136 24.7141C35.4833 24.7146 35.1006 24.4395 34.9641 24.0311C34.8277 23.6223 34.9683 23.1728 35.3125 22.9142L43.1243 17.0543C43.5157 16.7608 43.7345 16.2912 43.7066 15.8027L43.6068 14.0019C43.5414 12.8455 44.0591 11.7332 44.9861 11.0392L47.8719 8.87485C48.3136 8.54342 48.9403 8.63314 49.2717 9.07489C49.6031 9.51664 49.5139 10.1438 49.0717 10.4752L46.1859 12.64C45.7945 12.9334 45.5757 13.4031 45.6036 13.8915L45.7034 15.6924C45.7693 16.8487 45.2511 17.9607 44.3242 18.6546L36.5123 24.515C36.3397 24.6445 36.1296 24.7146 35.9136 24.7141Z" fill="#6A6A6A"/>
<path d="M49.9502 12.6449C49.9026 12.6449 49.8555 12.6417 49.8083 12.6348C49.546 12.5973 49.3093 12.4572 49.1505 12.2448L46.1947 8.30478C45.8632 7.86303 45.953 7.23634 46.3947 6.90492L54.6446 0.715871C55.9703 -0.277031 57.8495 -0.00923558 58.8447 1.31418L59.4004 2.05622C60.3938 3.38101 60.1255 5.26061 58.8012 6.25488L58.2011 5.4547L58.8012 6.25488L50.5503 12.4448C50.3773 12.5748 50.1663 12.6449 49.9502 12.6449ZM48.3943 7.90377L50.1498 10.2448L57.6009 4.65544C58.0422 4.32401 58.1319 3.69778 57.801 3.25603L57.2452 2.51399C56.9138 2.0727 56.2867 1.98344 55.8454 2.31486L48.3943 7.90377Z" fill="#6A6A6A"/>
<path d="M3.99999 34.1153H1.00023C0.447699 34.1153 0 33.6675 0 33.115C0 32.5629 0.447699 32.1152 1.00023 32.1152H3.99999C4.55252 32.1152 5.00022 32.5629 5.00022 33.115C5.00022 33.6675 4.55252 34.1153 3.99999 34.1153Z" fill="#6A6A6A"/>
<path d="M11.9998 34.1153H7.99977C7.4477 34.1153 7 33.6675 7 33.115C7 32.5629 7.4477 32.1152 7.99977 32.1152H11.9998C12.5523 32.1152 13 32.5629 13 33.115C13 33.6675 12.5523 34.1153 11.9998 34.1153Z" fill="#6A6A6A"/>
</g>
<defs>
<clipPath id="clip0">
<rect width="60.0001" height="61" fill="white"/>
</clipPath>
</defs>
</svg>
