<svg width="19" height="19" viewBox="0 0 19 19" fill="none" xmlns="http://www.w3.org/2000/svg">
<path d="M17.0714 2.47293L14.8568 0.258244L13.4544 1.66061L13.4556 1.65797L13.4493 1.66551C13.4474 1.66714 13.4453 1.66885 13.4431 1.6704H11.066V0H7.93407V1.67033H5.55685C5.55421 1.66836 5.55143 1.66621 5.54924 1.66424L4.14328 0.258244L1.92859 2.47293L2.91221 3.45655C2.78081 3.78679 2.71431 4.13309 2.71431 4.48901V14.0934C2.71431 15.6477 3.97873 16.9121 5.53299 16.9121H6.94656L7.36411 19H11.6358L12.0534 16.9121H13.467C15.0213 16.9121 16.2857 15.6477 16.2857 14.0934V4.48901C16.2857 4.13306 16.2193 3.78675 16.0879 3.45655L17.0714 2.47293ZM11.1224 18.3736H7.87767L7.58536 16.9121H11.4147L11.1224 18.3736ZM13.467 16.2857H5.53299C4.32418 16.2857 3.34067 15.3023 3.34067 14.0934V4.48901C3.34067 4.15428 3.41667 3.83002 3.5666 3.52524L3.66553 3.32411L2.81435 2.47293L4.14328 1.14401L5.10036 2.1011C5.14196 2.14411 5.30573 2.2967 5.53299 2.2967H9.50002V1.67033H8.56044V0.626369H10.4396V2.2967H13.467C13.6942 2.2967 13.858 2.14407 13.8996 2.10113L14.8567 1.14404L16.1856 2.47297L15.3345 3.32407L15.4334 3.52521C15.5833 3.82998 15.6593 4.15425 15.6593 4.48897V14.0934H15.6594C15.6594 15.3023 14.6759 16.2857 13.467 16.2857Z" fill="#00AEFF"/>
<path d="M14.4068 3.96716H4.5936V9.60452H14.4068V3.96716ZM12.5277 8.97815H6.47274V6.05508H12.5277V8.97815H12.5277ZM13.7804 8.97815H13.1541V5.42872H5.84634V8.97815H5.21997V4.59353H13.7804V8.97815H13.7804Z" fill="#00AEFF"/>
<path d="M9.49992 10.6483C8.75157 10.6483 8.14279 11.2571 8.14279 12.0054C8.14279 12.7538 8.75157 13.3626 9.49992 13.3626C10.2483 13.3626 10.857 12.7538 10.857 12.0054C10.857 11.2572 10.2483 10.6483 9.49992 10.6483ZM9.49992 12.7362C9.09698 12.7362 8.76916 12.4084 8.76916 12.0055C8.76916 11.6025 9.09702 11.2747 9.49992 11.2747C9.90281 11.2747 10.2307 11.6026 10.2307 12.0055C10.2307 12.4084 9.90285 12.7362 9.49992 12.7362Z" fill="#00AEFF"/>
<path d="M13.2582 10.6483C12.5098 10.6483 11.9011 11.2571 11.9011 12.0054C11.9011 12.7538 12.5098 13.3626 13.2582 13.3626C14.0065 13.3626 14.6153 12.7538 14.6153 12.0054C14.6153 11.2572 14.0065 10.6483 13.2582 10.6483ZM13.2582 12.7362C12.8553 12.7362 12.5274 12.4084 12.5274 12.0055C12.5274 11.6025 12.8553 11.2747 13.2582 11.2747C13.6611 11.2747 13.9889 11.6026 13.9889 12.0055C13.9889 12.4084 13.6611 12.7362 13.2582 12.7362Z" fill="#00AEFF"/>
<path d="M7.09914 12.0054C7.09914 11.2571 6.49036 10.6483 5.74201 10.6483C4.99367 10.6483 4.38489 11.2571 4.38489 12.0054C4.38489 12.7538 4.99367 13.3626 5.74201 13.3626C6.49036 13.3626 7.09914 12.7538 7.09914 12.0054ZM5.74198 12.7362C5.33904 12.7362 5.01122 12.4084 5.01122 12.0055C5.01122 11.6025 5.33908 11.2747 5.74198 11.2747C6.14487 11.2747 6.47274 11.6026 6.47274 12.0055C6.47277 12.4084 6.14491 12.7362 5.74198 12.7362Z" fill="#00AEFF"/>
<path d="M10.544 14.4065H8.45605V15.0329H10.544V14.4065Z" fill="#00AEFF"/>
<path d="M12.4232 14.4065H11.3792V15.0329H12.4232V14.4065Z" fill="#00AEFF"/>
<path d="M7.62111 14.4065H6.57715V15.0329H7.62111V14.4065Z" fill="#00AEFF"/>
</svg>
