<svg width="17" height="17" viewBox="0 0 17 17" fill="none" xmlns="http://www.w3.org/2000/svg">
<path d="M8.5 17C6.22957 17 4.09501 16.1159 2.48957 14.5104C0.884133 12.905 0 10.7704 0 8.5C0 6.22957 0.884166 4.09504 2.48957 2.48957C4.09497 0.8841 6.22957 0 8.5 0C10.7704 0 12.905 0.884133 14.5104 2.48957C16.1159 4.09501 17 6.22957 17 8.5C17 10.7704 16.1158 12.905 14.5104 14.5104C12.905 16.1159 10.7704 17 8.5 17ZM8.5 1.0625C4.39895 1.0625 1.0625 4.39895 1.0625 8.5C1.0625 12.6011 4.39895 15.9375 8.5 15.9375C12.6011 15.9375 15.9375 12.6011 15.9375 8.5C15.9375 4.39895 12.6011 1.0625 8.5 1.0625Z" fill="#00AEFF"/>
<path d="M8.5 7.96875C7.76767 7.96875 7.17188 7.37295 7.17188 6.64062C7.17188 5.9083 7.76767 5.3125 8.5 5.3125C9.23233 5.3125 9.82812 5.9083 9.82812 6.64062C9.82812 6.93401 10.066 7.17188 10.3594 7.17188C10.6528 7.17188 10.8906 6.93401 10.8906 6.64062C10.8906 5.50504 10.0945 4.55255 9.03125 4.31023V3.71875C9.03125 3.42537 8.79342 3.1875 8.5 3.1875C8.20658 3.1875 7.96875 3.42537 7.96875 3.71875V4.31023C6.90552 4.55255 6.10938 5.50504 6.10938 6.64062C6.10938 7.95882 7.1818 9.03125 8.5 9.03125C9.23233 9.03125 9.82812 9.62705 9.82812 10.3594C9.82812 11.0917 9.23233 11.6875 8.5 11.6875C7.76767 11.6875 7.17188 11.0917 7.17188 10.3594C7.17188 10.066 6.93404 9.82812 6.64062 9.82812C6.34721 9.82812 6.10938 10.066 6.10938 10.3594C6.10938 11.495 6.90552 12.4475 7.96875 12.6898V13.2812C7.96875 13.5746 8.20658 13.8125 8.5 13.8125C8.79342 13.8125 9.03125 13.5746 9.03125 13.2812V12.6898C10.0945 12.4475 10.8906 11.495 10.8906 10.3594C10.8906 9.04118 9.8182 7.96875 8.5 7.96875Z" fill="#00AEFF"/>
</svg>
