<svg width="16" height="16" viewBox="0 0 16 16" fill="none" xmlns="http://www.w3.org/2000/svg">
<g clip-path="url(#clip0)">
<path d="M7.99984 10.6666C7.86317 10.6666 7.73251 10.6106 7.63851 10.5119L4.13851 6.84525C3.83517 6.52792 4.06051 5.99992 4.49984 5.99992H6.33317V2.16659C6.33317 1.70725 6.70717 1.33325 7.16651 1.33325H8.83318C9.29251 1.33325 9.66651 1.70725 9.66651 2.16659V5.99992H11.4998C11.9392 5.99992 12.1645 6.52792 11.8612 6.84525L8.36117 10.5119C8.26717 10.6106 8.13651 10.6666 7.99984 10.6666Z" fill="black"/>
<path d="M14.8333 14.6667H1.16667C0.523333 14.6667 0 14.1433 0 13.5V13.1667C0 12.5233 0.523333 12 1.16667 12H14.8333C15.4767 12 16 12.5233 16 13.1667V13.5C16 14.1433 15.4767 14.6667 14.8333 14.6667Z" fill="black"/>
</g>
<defs>
<clipPath id="clip0">
<rect width="16" height="16" fill="white"/>
</clipPath>
</defs>
</svg>
