<svg width="16" height="16" viewBox="0 0 16 16" fill="none" xmlns="http://www.w3.org/2000/svg">
<g clip-path="url(#clip0)">
<path d="M13.9905 10.402C13.9436 10.1686 13.7385 10.0001 13.5002 10.0001H9.00022V11.0001H13.0905L13.8903 15.0001H2.11006L2.90985 11.0001H6.00019V10.0001H2.50021C2.26193 10.0001 2.05683 10.1686 2.00998 10.402L1.00997 15.402C0.980673 15.549 1.01876 15.7013 1.1135 15.817C1.20872 15.9328 1.35031 16.0001 1.50023 16.0001H14.5002C14.6501 16.0001 14.7917 15.9327 14.887 15.817C14.9817 15.7013 15.0198 15.549 14.9905 15.402L13.9905 10.402Z" fill="#00AEFF"/>
<path d="M8.00019 9.15828L13.7521 5.80299C13.9108 5.71021 14.006 5.53834 13.9997 5.35473C13.9938 5.17115 13.8878 5.00561 13.7238 4.92357L8.00019 2.06177V1.37084C8.00019 1.09447 7.77654 0.87085 7.50017 0.87085C7.22381 0.87085 7.00018 1.09447 7.00018 1.37084L7.00018 13H8.00019V9.15828ZM8.00019 3.17989L12.4499 5.40457L8.00019 8.00014V3.17989Z" fill="#00AEFF"/>
</g>
<defs>
<clipPath id="clip0">
<rect width="16" height="16" fill="white"/>
</clipPath>
</defs>
</svg>
