<svg width="61" height="60" viewBox="0 0 61 60" fill="none" xmlns="http://www.w3.org/2000/svg">
<path d="M34.2979 41.9003C34.9324 40.7749 35.0907 39.47 34.7437 38.2257C34.3967 36.9813 33.5858 35.9465 32.4605 35.312C31.387 34.7069 30.1502 34.5361 28.9582 34.8227L26.5395 26.15C25.9021 23.8652 23.5247 22.5248 21.24 23.162L17.8521 24.1069C17.3846 24.2374 17.1113 24.7221 17.2416 25.1897C17.3719 25.6572 17.857 25.9307 18.3243 25.8001L21.7122 24.8552C23.0633 24.4788 24.4692 25.271 24.8461 26.6223L27.6942 36.8344L19.4442 39.1353C17.7718 39.6016 16.0199 39.2642 14.6371 38.2092C13.0999 37.0366 11.1909 36.6504 9.3995 37.1502L6.2514 38.0282L5.22656 34.3534C4.84967 33.0022 5.64247 31.5964 6.99357 31.2195L7.69156 31.0248C8.96027 30.671 10.1727 30.9091 10.1819 30.9108C10.4823 30.9739 10.7937 30.8753 11.0035 30.6514C11.2133 30.4273 11.291 30.11 11.2086 29.8145C10.9189 28.7762 11.5282 27.6958 12.5664 27.4062L14.5312 26.8582C14.9988 26.7279 15.2721 26.2431 15.1418 25.7755C15.0114 25.3078 14.5265 25.0347 14.059 25.165L12.0942 25.713C10.5272 26.15 9.47486 27.5355 9.38474 29.0755C8.78683 29.0617 8.01817 29.109 7.2194 29.3318L6.52141 29.5264C4.23665 30.1636 2.8961 32.5409 3.53326 34.8258L5.36754 41.4026C2.90313 42.1877 1.47785 44.7972 2.1783 47.3086C2.7741 49.4444 4.72229 50.8462 6.83864 50.8462C7.21049 50.8462 7.58749 50.8 7.96333 50.7098L8.05626 51.0432C9.56451 56.4511 14.4971 60.0005 19.8558 60.0005C20.9418 60.0005 22.0455 59.8546 23.1415 59.549C29.6455 57.7349 33.4611 50.9679 31.6471 44.4639L31.5545 44.1321C32.7227 43.7601 33.6928 42.9738 34.2979 41.9003ZM3.87148 46.8358C3.43143 45.2582 4.3093 43.6193 5.83994 43.0964L7.49104 49.0166C5.9106 49.3613 4.31153 48.4134 3.87148 46.8358ZM22.6692 57.8552C17.0988 59.4086 11.303 56.1408 9.74955 50.5705L6.72379 39.7213L9.87178 38.8433C11.1276 38.4931 12.476 38.7713 13.571 39.6068C14.8578 40.5885 16.3871 41.0993 17.9514 41.0993C18.6053 41.0993 19.2656 41.01 19.9165 40.8284L28.1665 38.5274L29.9537 44.9354C31.5073 50.5059 28.2394 56.3016 22.6692 57.8552ZM32.7667 41.037C32.3921 41.7014 31.798 42.1932 31.082 42.4373L29.4309 36.517C30.1701 36.3553 30.9328 36.4686 31.5972 36.8433C32.3134 37.2472 32.8297 37.9058 33.0504 38.6979C33.2713 39.4899 33.1706 40.3207 32.7667 41.037Z" fill="#6A6A6A"/>
<path d="M25.2817 46.5784L17.4554 48.7611C17.2309 48.8237 17.0404 48.973 16.9258 49.1761C16.8113 49.3792 16.7822 49.6194 16.8449 49.8439C17.4535 52.0262 19.444 53.4583 21.6063 53.4583C22.0445 53.4583 22.49 53.3995 22.9321 53.2761C24.2035 52.9216 25.2607 52.0931 25.9089 50.9434C26.5572 49.7937 26.7189 48.4604 26.3644 47.1888C26.2341 46.7214 25.7492 46.4481 25.2817 46.5784ZM24.3778 50.0801C23.9601 50.8207 23.279 51.3545 22.46 51.5829C21.0623 51.9725 19.6185 51.363 18.8931 50.1851L24.7895 48.5405C24.7862 49.0747 24.6473 49.6019 24.3778 50.0801Z" fill="#6A6A6A"/>
<path d="M17.5195 45.7189C17.1493 44.3923 15.7689 43.6137 14.4417 43.9837C13.1149 44.3538 12.3364 45.7344 12.7063 47.0613C12.8147 47.4499 13.1678 47.7044 13.5526 47.7044C13.6306 47.7044 13.7102 47.6938 13.7892 47.6719C14.2568 47.5415 14.5301 47.0568 14.3997 46.5892C14.2899 46.1959 14.5207 45.7866 14.914 45.677C15.3072 45.5673 15.7166 45.798 15.8262 46.1913C15.9567 46.6589 16.4417 46.9323 16.909 46.8018C17.3766 46.6713 17.6499 46.1865 17.5195 45.7189Z" fill="#6A6A6A"/>
<path d="M24.7382 41.1122C23.4114 41.4823 22.6327 42.8628 23.0027 44.1898C23.1111 44.5784 23.4642 44.8329 23.8489 44.8329C23.927 44.8329 24.0066 44.8224 24.0856 44.8005C24.553 44.67 24.8264 44.1853 24.6961 43.7177C24.5864 43.3244 24.8172 42.9151 25.2105 42.8054C25.6035 42.6958 26.013 42.9265 26.1226 43.3198C26.2531 43.7874 26.7381 44.0609 27.2054 43.9302C27.6729 43.7998 27.9462 43.315 27.8159 42.8474C27.4457 41.5205 26.065 40.7419 24.7382 41.1122Z" fill="#6A6A6A"/>
<path d="M55.8212 16.6922C55.7531 16.6729 55.6843 16.6557 55.6154 16.6394C55.6473 14.5639 55.1348 12.5072 54.0967 10.6458C52.5397 7.85368 49.9886 5.83494 46.9133 4.96163C43.9153 4.11024 40.7505 4.45021 38.0025 5.91967C36.0637 6.95634 34.4792 8.47831 33.3769 10.3237C33.3083 10.3009 33.2392 10.2793 33.1697 10.2596C30.6558 9.54592 28.0293 11.0102 27.315 13.5244C26.6189 15.9758 27.9943 18.5328 30.3938 19.3211L30.3076 19.6244C29.4343 22.6997 29.8109 25.9309 31.3679 28.7231C32.9249 31.5153 35.4761 33.5339 38.5513 34.4072C39.6203 34.7107 40.7244 34.863 41.8278 34.863C42.7482 34.863 43.6681 34.757 44.5658 34.5447C45.0382 34.4329 45.3306 33.9594 45.2189 33.487C45.1072 33.0145 44.633 32.7226 44.1614 32.8339C42.4783 33.2319 40.7046 33.1912 39.0316 32.7161C36.4079 31.9711 34.2315 30.2489 32.9032 27.8669C31.5748 25.4849 31.2536 22.7282 31.9987 20.1046L32.8623 17.0635C32.9949 16.5966 32.7238 16.1105 32.2569 15.9778C31.7901 15.8452 31.3039 16.1162 31.1712 16.5832L30.8745 17.628C30.1915 17.3859 29.6263 16.9103 29.2701 16.2718C28.8821 15.576 28.7885 14.7709 29.006 14.0047C29.4449 12.4599 31.0315 11.5458 32.5783 11.9221C32.4649 12.199 32.3582 12.4796 32.2648 12.7667C32.1148 13.2283 32.3673 13.7241 32.8289 13.8744C33.2899 14.0241 33.7863 13.7721 33.9365 13.3103C34.4413 11.758 35.2803 10.411 36.3465 9.32021C37.823 12.3947 40.5699 14.7314 43.873 15.6694C44.9582 15.9775 46.0626 16.1301 47.1603 16.1301C49.1741 16.1301 51.1651 15.6165 52.9716 14.6085C53.1873 14.4881 53.3984 14.3591 53.6064 14.2257C53.9805 15.872 53.9399 17.595 53.4658 19.2643L51.6429 25.6834C50.9775 28.0265 49.4943 30.0572 47.4663 31.4014C47.0616 31.6696 46.9511 32.215 47.2194 32.6197C47.3885 32.8748 47.6679 33.0131 47.9528 33.0131C48.1195 33.0131 48.2882 32.9656 48.4376 32.8666C50.8151 31.2905 52.554 28.91 53.3339 26.1635L53.4205 25.8585C53.7893 25.9472 54.1592 25.9925 54.5243 25.9925C56.5899 25.9924 58.4942 24.6298 59.0858 22.5469C59.8001 20.0325 58.3353 17.4062 55.8212 16.6922ZM52.1153 13.073C49.7342 14.402 46.9776 14.7234 44.3535 13.9781C41.3838 13.1348 38.9417 10.9656 37.7387 8.13119C40.1723 6.4073 43.3338 5.77236 46.4331 6.65258C49.0568 7.39757 51.2333 9.11981 52.5615 11.5018C52.7409 11.8236 52.9004 12.1528 53.0431 12.4871C52.7453 12.6975 52.4354 12.8945 52.1153 13.073ZM57.395 22.0665C57.1775 22.8328 56.6745 23.4683 55.9787 23.8564C55.34 24.2126 54.6093 24.3201 53.901 24.1672L55.157 19.7444C55.2818 19.305 55.3801 18.8625 55.454 18.4185C56.9662 18.9128 57.8333 20.523 57.395 22.0665Z" fill="#6A6A6A"/>
<path d="M39.2782 28.5221C39.7187 28.6471 40.1624 28.7068 40.5992 28.7068C42.7093 28.7068 44.6547 27.3147 45.2592 25.1867C45.3918 24.7198 45.1206 24.2337 44.6537 24.1011L37.0285 21.9355C36.5618 21.8029 36.0755 22.0739 35.9428 22.5409C35.5894 23.7852 35.7417 25.0925 36.3717 26.2223C37.0016 27.3519 38.0338 28.1686 39.2782 28.5221ZM43.2054 25.5172C42.4924 26.6392 41.1007 27.2124 39.7583 26.831C38.9657 26.606 38.3083 26.0857 37.907 25.3661C37.6527 24.9103 37.5207 24.4089 37.5153 23.9013L43.2054 25.5172Z" fill="#6A6A6A"/>
<path d="M37.751 19.8285C37.8313 19.8512 37.912 19.8621 37.9915 19.8621C38.3746 19.8621 38.7267 19.6097 38.8365 19.223C39.2068 17.9187 38.447 16.5564 37.1429 16.186C36.5109 16.0065 35.8471 16.0839 35.2737 16.4037C34.6999 16.7236 34.2852 17.2478 34.1059 17.8796C33.9734 18.3465 34.2444 18.8326 34.7114 18.9651C35.1782 19.0976 35.6644 18.8265 35.797 18.3596C35.8482 18.1796 35.9663 18.0302 36.1298 17.939C36.2934 17.8478 36.4825 17.8257 36.6628 17.8769C37.0346 17.9825 37.2512 18.3709 37.1456 18.7427C37.0129 19.21 37.284 19.696 37.751 19.8285Z" fill="#6A6A6A"/>
<path d="M47.7827 22.6771C47.8629 22.6998 47.9437 22.7107 48.0233 22.7107C48.4062 22.7107 48.7584 22.4584 48.8683 22.0717C49.2386 20.7674 48.479 19.4051 47.1747 19.0345C46.5429 18.8552 45.8789 18.9325 45.3055 19.2523C44.7318 19.5721 44.3171 20.0963 44.1377 20.7281C44.005 21.195 44.2762 21.6811 44.7431 21.8137C45.2096 21.946 45.6961 21.6753 45.8287 21.2083C45.88 21.0282 45.9981 20.8788 46.1617 20.7876C46.3252 20.6963 46.5144 20.6743 46.6945 20.7255C47.0664 20.8311 47.283 21.2195 47.1774 21.5912C47.0446 22.0583 47.3157 22.5444 47.7827 22.6771Z" fill="#6A6A6A"/>
<path d="M47.7907 44.975L40.9703 43.9781C40.0461 43.8432 39.1561 44.4178 38.8983 45.3149L38.4995 46.7036C38.2419 47.6007 38.6919 48.5605 39.5464 48.9361L45.8565 51.7101C46.097 51.8158 46.3538 51.8685 46.6107 51.8685C46.8824 51.8685 47.1543 51.8094 47.4062 51.6912C47.8958 51.4617 48.2622 51.0318 48.4115 50.5119L49.3207 47.3463C49.4699 46.8264 49.3874 46.2676 49.0942 45.8133C48.8008 45.3588 48.3257 45.0533 47.7907 44.975ZM47.6309 46.861L46.7218 50.0267C46.7121 50.0603 46.6912 50.0848 46.6596 50.0996C46.6279 50.1144 46.5957 50.1148 46.564 50.1007L40.2539 47.3267C40.201 47.3035 40.1732 47.2442 40.1892 47.1888L40.588 45.8002C40.6023 45.7501 40.6486 45.7163 40.6993 45.7163C40.7048 45.7163 40.7104 45.7166 40.716 45.7175L47.5364 46.7145C47.5709 46.7195 47.598 46.737 47.617 46.7663C47.636 46.7956 47.6407 46.8275 47.6309 46.861Z" fill="#6A6A6A"/>
<path d="M37.71 38.9415L37.8101 40.3827C37.8748 41.3138 38.6259 42.0618 39.5573 42.1225L46.4356 42.5711C46.4765 42.5738 46.5171 42.5751 46.5577 42.5751C47.0543 42.5751 47.5324 42.3777 47.8852 42.0235C48.2668 41.6403 48.4641 41.111 48.4267 40.5715L48.1984 37.2857C48.1609 36.7461 47.8922 36.2493 47.4613 35.9226C47.0302 35.5958 46.4791 35.4714 45.9497 35.5808L39.1997 36.9766C38.2858 37.1655 37.6455 38.0101 37.71 38.9415ZM39.5557 38.6981L46.3058 37.3022C46.3143 37.3004 46.3228 37.2995 46.331 37.2995C46.3556 37.2995 46.3784 37.3075 46.3993 37.3233C46.4271 37.3444 46.4424 37.3727 46.4449 37.4075L46.6733 40.6934C46.6757 40.7282 46.6644 40.7584 46.6398 40.7831C46.6152 40.8079 46.5847 40.8193 46.5502 40.817L39.6719 40.3684C39.6144 40.3646 39.5679 40.3185 39.564 40.2609C39.564 40.2609 39.564 40.2608 39.5639 40.2608L39.4638 38.8196C39.4597 38.7619 39.4993 38.7098 39.5557 38.6981Z" fill="#6A6A6A"/>
<path d="M43.7525 53.1206L37.6843 49.8512C36.8626 49.4082 35.8291 49.6437 35.2802 50.3986L34.4305 51.5671C34.4305 51.5671 34.4304 51.5671 34.4304 51.5673C33.8816 52.3221 33.9763 53.3779 34.6506 54.0231L39.6314 58.7881C39.9816 59.1231 40.446 59.3079 40.9264 59.3079C40.9822 59.3079 41.038 59.3054 41.094 59.3004C41.6326 59.2521 42.124 58.9735 42.442 58.5362L44.3792 55.8722C44.6971 55.4348 44.8107 54.8815 44.6906 54.3543C44.5705 53.8268 44.2285 53.3772 43.7525 53.1206ZM42.9574 54.8382L41.0204 57.5021C40.9998 57.5303 40.9718 57.5461 40.9369 57.5493C40.9034 57.5526 40.8717 57.5418 40.8466 57.5177L35.8659 52.7528C35.8242 52.7129 35.8184 52.6476 35.8523 52.601L36.7021 51.4324C36.7359 51.386 36.7995 51.3711 36.8506 51.3986L42.9186 54.668C42.9495 54.6847 42.9689 54.7103 42.9767 54.7443C42.9844 54.7783 42.978 54.8101 42.9574 54.8382Z" fill="#6A6A6A"/>
<path d="M12.3894 11.668L18.6757 14.4956C18.9221 14.6063 19.1819 14.6592 19.4391 14.6592C20.0701 14.6592 20.6837 14.3404 21.0345 13.7776L21.7986 12.5514H21.7987C22.2922 11.7592 22.1223 10.7129 21.4035 10.1176L16.095 5.72067C15.6785 5.37577 15.1338 5.22764 14.5995 5.31425C14.0657 5.40085 13.5956 5.71387 13.3095 6.17291L11.5677 8.96827C11.2817 9.42731 11.2079 9.98724 11.3653 10.5046C11.5228 11.022 11.8961 11.4462 12.3894 11.668ZM13.0596 9.89794L14.8013 7.10247C14.8197 7.07282 14.8467 7.05489 14.8811 7.04926C14.8881 7.04821 14.8947 7.04762 14.9014 7.04762C14.9279 7.04762 14.9522 7.05665 14.9736 7.07446L20.2821 11.4714C20.3266 11.508 20.3371 11.5727 20.3066 11.6217L19.5425 12.8479C19.5121 12.8967 19.4496 12.9162 19.3966 12.8923L13.1104 10.0648C13.0786 10.0504 13.0573 10.0263 13.0471 9.99287C13.0369 9.95959 13.0411 9.92759 13.0596 9.89794Z" fill="#6A6A6A"/>
<path d="M12.2183 21.2468L19.0925 21.7539C19.1385 21.7573 19.1842 21.7589 19.2297 21.7589C20.1055 21.7589 20.8802 21.1405 21.0635 20.2724L21.3621 18.8587C21.555 17.9455 21.0375 17.0203 20.1584 16.7067L13.6664 14.3907C13.157 14.209 12.5942 14.2561 12.122 14.5202C11.6501 14.7842 11.3152 15.2391 11.2036 15.7681L10.5228 18.9909C10.4112 19.5201 10.5334 20.0715 10.8584 20.5038C11.1833 20.9364 11.6789 21.2071 12.2183 21.2468ZM12.2427 19.3543L12.9235 16.1315C12.9308 16.0974 12.9499 16.0715 12.9802 16.0545C12.9983 16.0445 13.0169 16.0394 13.036 16.0394C13.049 16.0394 13.0624 16.0419 13.0757 16.0466L19.5679 18.3626C19.6222 18.3821 19.6541 18.4392 19.6423 18.4956L19.3437 19.9093C19.3318 19.9657 19.281 20.0035 19.2218 20.001L12.3476 19.4939C12.3128 19.4913 12.2846 19.4758 12.2636 19.4479C12.2425 19.4199 12.2355 19.3884 12.2427 19.3543Z" fill="#6A6A6A"/>
<path d="M23.8542 10.0549C24.2144 10.4055 24.6875 10.5837 25.1622 10.5837C25.5692 10.5837 25.9773 10.4528 26.3164 10.1871L27.4538 9.29613C27.4538 9.29613 27.4539 9.29613 27.4539 9.29601C28.1885 8.72037 28.3867 7.67912 27.9149 6.8739L24.4302 0.926687C24.1568 0.460032 23.6953 0.134358 23.164 0.0332219C22.6324 -0.0682656 22.0837 0.0653323 21.6582 0.398858L19.0653 2.43002C18.6396 2.76354 18.3788 3.26453 18.3499 3.80455C18.3208 4.34457 18.5265 4.87064 18.914 5.24788L23.8542 10.0549ZM20.1495 3.81393L22.7424 1.78265C22.7635 1.76613 22.7869 1.75781 22.8121 1.75781C22.8197 1.75781 22.8274 1.75851 22.8354 1.76015C22.8696 1.76671 22.896 1.78523 22.9137 1.81535L26.3981 7.76257C26.4274 7.81237 26.4151 7.87683 26.3696 7.91245L25.2324 8.80322C25.1872 8.83897 25.1215 8.83545 25.0802 8.79514L20.1401 3.98807C20.1151 3.9637 20.1034 3.9337 20.1052 3.89889C20.107 3.86397 20.1219 3.83549 20.1495 3.81393Z" fill="#6A6A6A"/>
</svg>
