<svg width="43" height="42" viewBox="0 0 43 42" fill="none" xmlns="http://www.w3.org/2000/svg">
<g clip-path="url(#clip0)">
<path d="M23.8424 28.8167C24.2771 28.0457 24.3856 27.1517 24.1478 26.2992C23.9101 25.4467 23.3545 24.7378 22.5836 24.3031C21.8481 23.8885 21.0008 23.7715 20.1842 23.9678L18.5271 18.0261C18.0904 16.4607 16.4616 15.5425 14.8964 15.979L12.5753 16.6264C12.255 16.7157 12.0677 17.0478 12.157 17.3682C12.2463 17.6885 12.5786 17.8758 12.8988 17.7864L15.2199 17.139C16.1455 16.8811 17.1087 17.4239 17.3669 18.3497L19.3182 25.346L13.666 26.9224C12.5202 27.2419 11.32 27.0107 10.3727 26.288C9.31954 25.4846 8.01164 25.22 6.78435 25.5624L4.62756 26.1639L3.92544 23.6463C3.66723 22.7206 4.21039 21.7575 5.13603 21.4992L5.61423 21.3659C6.48343 21.1235 7.31409 21.2866 7.32036 21.2878C7.52622 21.331 7.73954 21.2634 7.88326 21.11C8.02698 20.9565 8.08021 20.7392 8.02376 20.5367C7.82529 19.8253 8.24271 19.0851 8.95399 18.8867L10.3001 18.5113C10.6205 18.422 10.8077 18.0899 10.7184 17.7695C10.6291 17.4491 10.2969 17.262 9.97662 17.3513L8.6305 17.7267C7.55697 18.0261 6.83598 18.9753 6.77424 20.0304C6.3646 20.0209 5.83799 20.0533 5.29075 20.206L4.81255 20.3393C3.24725 20.7758 2.32883 22.4046 2.76535 23.97L4.02203 28.4758C2.33364 29.0136 1.35718 30.8014 1.83706 32.522C2.24525 33.9852 3.57996 34.9456 5.02989 34.9456C5.28464 34.9456 5.54293 34.914 5.80042 34.8522L5.86409 35.0806C6.8974 38.7856 10.2767 41.2173 13.948 41.2173C14.692 41.2173 15.4482 41.1173 16.1991 40.9079C20.655 39.6652 23.2691 35.029 22.0263 30.573L21.9629 30.3458C22.7632 30.0909 23.4278 29.5522 23.8424 28.8167V28.8167ZM2.99707 32.1981C2.69558 31.1172 3.29702 29.9944 4.34567 29.6362L5.47685 33.6922C4.39409 33.9283 3.29855 33.2789 2.99707 32.1981V32.1981ZM15.8755 39.7475C12.0592 40.8118 8.08848 38.573 7.02417 34.7567L4.95121 27.3239L7.10791 26.7223C7.96829 26.4824 8.89208 26.673 9.6423 27.2454C10.5239 27.918 11.5716 28.268 12.6433 28.268C13.0913 28.268 13.5437 28.2068 13.9896 28.0823L19.6417 26.506L20.8661 30.8961C21.9305 34.7125 19.6917 38.6831 15.8755 39.7475V39.7475ZM22.7934 28.2253C22.5367 28.6805 22.1297 29.0174 21.6392 29.1846L20.508 25.1286C21.0144 25.0178 21.5369 25.0954 21.9921 25.3521C22.4828 25.6289 22.8365 26.0801 22.9878 26.6228C23.1391 27.1654 23.0701 27.7345 22.7934 28.2253V28.2253Z" fill="#80D6FF"/>
<path d="M17.6653 32.0218L12.3035 33.5172C12.1497 33.56 12.0192 33.6623 11.9407 33.8015C11.8622 33.9406 11.8422 34.1052 11.8852 34.259C12.3022 35.7541 13.6659 36.7353 15.1473 36.7353C15.4475 36.7353 15.7527 36.695 16.0556 36.6104C16.9267 36.3676 17.651 35.7999 18.095 35.0123C18.5392 34.2246 18.65 33.3111 18.4071 32.44C18.3178 32.1197 17.9856 31.9325 17.6653 32.0218V32.0218ZM17.0461 34.4208C16.7599 34.9282 16.2933 35.2939 15.7321 35.4504C14.7746 35.7173 13.7855 35.2997 13.2885 34.4927L17.3281 33.366C17.3259 33.732 17.2307 34.0932 17.0461 34.4208V34.4208Z" fill="#80D6FF"/>
<path d="M12.3474 31.4329C12.0937 30.5241 11.148 29.9906 10.2387 30.2441C9.32972 30.4977 8.79636 31.4435 9.04983 32.3526C9.1241 32.6189 9.36601 32.7932 9.62959 32.7932C9.68307 32.7932 9.73758 32.7859 9.7917 32.7709C10.112 32.6816 10.2993 32.3495 10.21 32.0291C10.1348 31.7597 10.2929 31.4793 10.5623 31.4042C10.8317 31.329 11.1122 31.4871 11.1873 31.7566C11.2767 32.0769 11.6089 32.2642 11.9291 32.1748C12.2495 32.0854 12.4367 31.7533 12.3474 31.4329V31.4329Z" fill="#80D6FF"/>
<path d="M17.293 28.2768C16.3839 28.5303 15.8505 29.4761 16.104 30.3853C16.1782 30.6515 16.4201 30.8259 16.6837 30.8259C16.7372 30.8259 16.7917 30.8186 16.8458 30.8036C17.1661 30.7143 17.3534 30.3822 17.2641 30.0619C17.189 29.7924 17.3471 29.512 17.6165 29.4368C17.8858 29.3617 18.1663 29.5197 18.2414 29.7892C18.3308 30.1095 18.6631 30.2969 18.9833 30.2074C19.3035 30.1181 19.4908 29.7859 19.4015 29.4655C19.1479 28.5565 18.202 28.0231 17.293 28.2768V28.2768Z" fill="#80D6FF"/>
<path d="M38.5881 11.5465C38.5415 11.5332 38.4943 11.5214 38.4471 11.5103C38.469 10.0884 38.1179 8.67932 37.4067 7.40401C36.34 5.49114 34.5922 4.10809 32.4852 3.50979C30.4313 2.92649 28.2631 3.15941 26.3804 4.16614C25.0521 4.87637 23.9665 5.91908 23.2113 7.18338C23.1644 7.16773 23.117 7.15295 23.0694 7.13946C21.3471 6.65051 19.5477 7.65371 19.0584 9.37622C18.5814 11.0557 19.5237 12.8075 21.1676 13.3475L21.1086 13.5553C20.5103 15.6622 20.7683 17.876 21.835 19.7889C22.9017 21.7019 24.6496 23.0848 26.7564 23.6831C27.4888 23.8911 28.2452 23.9954 29.0011 23.9954C29.6317 23.9954 30.262 23.9228 30.877 23.7773C31.2006 23.7007 31.4009 23.3764 31.3244 23.0527C31.2479 22.729 30.923 22.529 30.5999 22.6053C29.4468 22.8779 28.2316 22.8501 27.0854 22.5246C25.2879 22.0142 23.7969 20.8343 22.8868 19.2023C21.9768 17.5704 21.7567 15.6818 22.2672 13.8843L22.8588 11.8008C22.9497 11.481 22.7639 11.1479 22.444 11.0571C22.1242 10.9662 21.7911 11.1519 21.7002 11.4718L21.4969 12.1876C21.029 12.0217 20.6418 11.6959 20.3978 11.2584C20.132 10.7817 20.0678 10.2302 20.2168 9.70524C20.5175 8.64688 21.6045 8.02063 22.6643 8.27844C22.5865 8.46816 22.5135 8.66037 22.4495 8.85707C22.3467 9.17333 22.5197 9.51303 22.8359 9.61596C23.1518 9.71857 23.4919 9.54587 23.5947 9.22953C23.9406 8.16603 24.5154 7.2432 25.2459 6.49587C26.2574 8.60224 28.1394 10.2031 30.4023 10.8457C31.1458 11.0568 31.9024 11.1614 32.6545 11.1614C34.0341 11.1614 35.3982 10.8095 36.6358 10.1189C36.7836 10.0364 36.9282 9.94803 37.0707 9.85666C37.327 10.9846 37.2992 12.165 36.9744 13.3087L35.7255 17.7064C35.2696 19.3117 34.2535 20.7029 32.8641 21.6238C32.5869 21.8076 32.5112 22.1813 32.6949 22.4585C32.8108 22.6333 33.0022 22.728 33.1974 22.728C33.3116 22.728 33.4272 22.6955 33.5295 22.6277C35.1584 21.5479 36.3497 19.917 36.8841 18.0353L36.9434 17.8263C37.1961 17.8871 37.4495 17.9182 37.6996 17.9182C39.1147 17.9181 40.4194 16.9846 40.8247 15.5575C41.3141 13.835 40.3105 12.0356 38.5881 11.5465V11.5465ZM36.0491 9.06695C34.4178 9.97742 32.5293 10.1976 30.7315 9.68702C28.697 9.10926 27.0238 7.62312 26.1997 5.68127C27.867 4.50022 30.0329 4.06522 32.1563 4.66827C33.9538 5.17866 35.4449 6.35858 36.3549 7.99052C36.4778 8.21099 36.5871 8.43652 36.6848 8.66551C36.4808 8.8097 36.2685 8.94467 36.0491 9.06695V9.06695ZM39.6663 15.2284C39.5173 15.7534 39.1727 16.1889 38.696 16.4547C38.2584 16.6988 37.7578 16.7724 37.2726 16.6676L38.133 13.6375C38.2185 13.3365 38.2859 13.0334 38.3366 12.7291C39.3725 13.0678 39.9666 14.171 39.6663 15.2284V15.2284Z" fill="#80D6FF"/>
<path d="M27.2544 19.6513C27.5562 19.737 27.8602 19.7778 28.1594 19.7778C29.6051 19.7778 30.9379 18.8241 31.352 17.3662C31.4429 17.0463 31.2571 16.7133 30.9372 16.6224L25.7131 15.1388C25.3934 15.048 25.0602 15.2336 24.9693 15.5535C24.7271 16.406 24.8315 17.3017 25.2632 18.0757C25.6947 18.8496 26.4019 19.4091 27.2544 19.6513V19.6513ZM29.9449 17.5926C29.4565 18.3613 28.503 18.754 27.5833 18.4927C27.0403 18.3386 26.5899 17.9821 26.315 17.4891C26.1408 17.1768 26.0503 16.8333 26.0466 16.4855L29.9449 17.5926Z" fill="#80D6FF"/>
<path d="M26.2081 13.6953C26.2631 13.7108 26.3185 13.7183 26.3729 13.7183C26.6353 13.7183 26.8766 13.5454 26.9518 13.2804C27.2055 12.3869 26.685 11.4535 25.7915 11.1997C25.3585 11.0768 24.9038 11.1298 24.5109 11.3489C24.1178 11.5681 23.8337 11.9272 23.7108 12.3601C23.62 12.6799 23.8057 13.013 24.1257 13.1038C24.4455 13.1945 24.7786 13.0088 24.8694 12.6889C24.9045 12.5656 24.9854 12.4632 25.0974 12.4008C25.2095 12.3383 25.3391 12.3231 25.4626 12.3582C25.7173 12.4306 25.8657 12.6966 25.7934 12.9514C25.7025 13.2715 25.8882 13.6045 26.2081 13.6953V13.6953Z" fill="#80D6FF"/>
<path d="M33.0809 15.6468C33.1359 15.6623 33.1912 15.6698 33.2457 15.6698C33.5081 15.6698 33.7494 15.4969 33.8247 15.232C34.0784 14.3385 33.558 13.4051 32.6643 13.1512C32.2315 13.0284 31.7766 13.0813 31.3837 13.3004C30.9907 13.5195 30.7066 13.8786 30.5837 14.3115C30.4928 14.6314 30.6786 14.9644 30.9984 15.0553C31.3181 15.1459 31.6513 14.9605 31.7422 14.6405C31.7773 14.5171 31.8583 14.4147 31.9703 14.3523C32.0823 14.2897 32.212 14.2746 32.3354 14.3097C32.5902 14.3821 32.7385 14.6481 32.6662 14.9028C32.5752 15.2228 32.7609 15.5559 33.0809 15.6468V15.6468Z" fill="#80D6FF"/>
<path d="M33.0863 30.9232L28.4136 30.2402C27.7805 30.1478 27.1708 30.5415 26.9941 31.1561L26.7209 32.1075C26.5444 32.7221 26.8527 33.3797 27.4381 33.637L31.7612 35.5375C31.926 35.6099 32.1019 35.646 32.2779 35.646C32.4641 35.646 32.6504 35.6055 32.8229 35.5246C33.1583 35.3673 33.4094 35.0728 33.5117 34.7166L34.1346 32.5478C34.2368 32.1916 34.1802 31.8088 33.9794 31.4975C33.7784 31.1862 33.4529 30.9769 33.0863 30.9232ZM32.9769 32.2153L32.354 34.3841C32.3474 34.4072 32.3331 34.424 32.3115 34.4341C32.2897 34.4443 32.2676 34.4445 32.2459 34.4349L27.9228 32.5344C27.8866 32.5185 27.8676 32.4779 27.8785 32.4399L28.1517 31.4885C28.1615 31.4543 28.1932 31.4311 28.228 31.4311C28.2318 31.4311 28.2356 31.4313 28.2394 31.4319L32.9121 32.115C32.9358 32.1184 32.9543 32.1304 32.9673 32.1504C32.9803 32.1705 32.9836 32.1924 32.9769 32.2153V32.2153Z" fill="#80D6FF"/>
<path d="M26.1801 26.7897L26.2486 27.7771C26.293 28.415 26.8075 28.9275 27.4457 28.969L32.158 29.2764C32.186 29.2782 32.2138 29.2791 32.2417 29.2791C32.5819 29.2791 32.9094 29.1439 33.1511 28.9012C33.4126 28.6387 33.5477 28.2761 33.5221 27.9064L33.3657 25.6553C33.34 25.2857 33.1559 24.9453 32.8607 24.7215C32.5654 24.4975 32.1878 24.4124 31.8251 24.4873L27.2006 25.4436C26.5745 25.573 26.1358 26.1516 26.1801 26.7897V26.7897ZM27.4445 26.6229L32.0691 25.6666C32.0749 25.6654 32.0807 25.6648 32.0863 25.6648C32.1032 25.6648 32.1188 25.6702 32.1331 25.6811C32.1522 25.6955 32.1627 25.715 32.1644 25.7388L32.3208 27.9899C32.3225 28.0138 32.3147 28.0345 32.2979 28.0514C32.281 28.0684 32.2601 28.0762 32.2365 28.0746L27.5242 27.7673C27.4848 27.7647 27.4529 27.7331 27.4502 27.6937C27.4502 27.6937 27.4502 27.6936 27.4502 27.6936L27.3816 26.7062C27.3788 26.6667 27.4059 26.631 27.4445 26.6229V26.6229Z" fill="#80D6FF"/>
<path d="M30.3198 36.5039L26.1624 34.264C25.5995 33.9605 24.8914 34.1218 24.5154 34.639L23.9332 35.4396C23.9332 35.4396 23.9332 35.4396 23.9332 35.4396C23.5572 35.9568 23.622 36.6801 24.084 37.1222L27.4964 40.3867C27.7363 40.6162 28.0545 40.7428 28.3836 40.7428C28.4218 40.7428 28.4601 40.7411 28.4984 40.7376C28.8674 40.7046 29.2041 40.5137 29.422 40.2141L30.7492 38.389C30.967 38.0893 31.0448 37.7103 30.9625 37.3491C30.8802 36.9877 30.6459 36.6796 30.3198 36.5039V36.5039ZM29.7751 37.6806L28.448 39.5056C28.4339 39.525 28.4147 39.5358 28.3908 39.538C28.3679 39.5402 28.3461 39.5328 28.3289 39.5163L24.9166 36.2518C24.8881 36.2245 24.8841 36.1798 24.9073 36.1479L25.4895 35.3472C25.5127 35.3154 25.5563 35.3052 25.5913 35.3241L29.7485 37.564C29.7696 37.5754 29.783 37.593 29.7883 37.6163C29.7936 37.6395 29.7892 37.6613 29.7751 37.6806V37.6806Z" fill="#80D6FF"/>
<path d="M8.83272 8.10445L13.1395 10.0416C13.3083 10.1175 13.4863 10.1537 13.6625 10.1537C14.0948 10.1537 14.5152 9.93534 14.7555 9.54972L15.279 8.70966H15.2791C15.6172 8.16691 15.5007 7.45009 15.0083 7.04223L11.3714 4.02989C11.0861 3.7936 10.7129 3.69212 10.3469 3.75145C9.98116 3.81078 9.65904 4.02523 9.46306 4.33972L8.26973 6.25484C8.07383 6.56933 8.02325 6.95295 8.13108 7.30742C8.23898 7.6619 8.4947 7.95246 8.83272 8.10445V8.10445ZM9.29188 6.89177L10.4851 4.97657C10.4977 4.95626 10.5162 4.94397 10.5398 4.94012C10.5445 4.9394 10.5491 4.93899 10.5537 4.93899C10.5718 4.93899 10.5885 4.94518 10.6032 4.95738L14.2401 7.96972C14.2705 7.99485 14.2777 8.03917 14.2568 8.07273L13.7334 8.91279C13.7125 8.94627 13.6697 8.9596 13.6334 8.94322L9.32665 7.0061C9.30489 6.99622 9.29028 6.97969 9.28329 6.9568C9.27631 6.934 9.2792 6.91208 9.29188 6.89177V6.89177Z" fill="#80D6FF"/>
<path d="M8.71547 14.667L13.425 15.0144C13.4566 15.0167 13.4879 15.0178 13.519 15.0178C14.119 15.0178 14.6498 14.5941 14.7754 13.9994L14.98 13.0308C15.1121 12.4052 14.7576 11.7714 14.1553 11.5565L9.7076 9.96977C9.35858 9.84532 8.97304 9.8776 8.64956 10.0585C8.32624 10.2394 8.09677 10.5511 8.02034 10.9135L7.55394 13.1214C7.47743 13.484 7.56117 13.8617 7.78381 14.1579C8.00645 14.4543 8.34599 14.6397 8.71547 14.667V14.667ZM8.73226 13.3704L9.19865 11.1625C9.20363 11.1391 9.21672 11.1213 9.23751 11.1097C9.24987 11.1028 9.26264 11.0993 9.27573 11.0993C9.28464 11.0993 9.29379 11.101 9.30295 11.1042L13.7508 12.691C13.7879 12.7043 13.8099 12.7434 13.8017 12.7821L13.5972 13.7506C13.589 13.7892 13.5542 13.8152 13.5137 13.8134L8.80411 13.466C8.78027 13.4642 8.76092 13.4536 8.74655 13.4345C8.73209 13.4153 8.72728 13.3937 8.73226 13.3704Z" fill="#80D6FF"/>
<path d="M16.6874 6.9993C16.9341 7.23944 17.2582 7.36156 17.5835 7.36156C17.8623 7.36156 18.1419 7.27188 18.3742 7.08987L19.1534 6.47943C19.1534 6.47943 19.1535 6.47943 19.1535 6.47935C19.6568 6.08498 19.7926 5.37161 19.4693 4.81995L17.082 0.745475C16.8947 0.425767 16.5785 0.202645 16.2145 0.133356C15.8503 0.0638265 15.4744 0.155355 15.1828 0.383856L13.4064 1.77541C13.1148 2.00392 12.9361 2.34715 12.9163 2.71712C12.8964 3.08709 13.0373 3.4475 13.3028 3.70595L16.6874 6.9993ZM14.1492 2.72354L15.9257 1.3319C15.9401 1.32058 15.9561 1.31488 15.9733 1.31488C15.9786 1.31488 15.9839 1.31536 15.9893 1.31649C16.0128 1.32098 16.0308 1.33367 16.043 1.3543L18.4302 5.42878C18.4502 5.4629 18.4418 5.50706 18.4107 5.53147L17.6315 6.14174C17.6006 6.16623 17.5556 6.16382 17.5272 6.1362L14.1428 2.84285C14.1257 2.82615 14.1176 2.8056 14.1188 2.78175C14.1201 2.75782 14.1303 2.73831 14.1492 2.72354V2.72354Z" fill="#80D6FF"/>
</g>
<defs>
<clipPath id="clip0">
<rect width="41.7915" height="41.1067" fill="white" transform="translate(0.344666 0.110596)"/>
</clipPath>
</defs>
</svg>
