<svg width="60" height="60" viewBox="0 0 60 60" fill="none" xmlns="http://www.w3.org/2000/svg">
<path d="M47.2053 13.5625C47.2053 9.86543 44.5369 4 37.3767 4C34.4348 4 31.9602 5.25747 29.9997 7.74308C28.0393 5.25747 25.5645 4 22.6228 4C15.4624 4 12.7942 9.86543 12.7942 13.5625C12.7942 19.9368 18.2812 23.924 25.7771 29.7356C26.8786 30.5894 28.0175 31.4724 29.2318 32.4276C29.4521 32.6009 29.7259 32.6875 29.9997 32.6875C30.2736 32.6875 30.5474 32.6009 30.7677 32.4276C31.982 31.4724 33.1209 30.5894 34.2224 29.7356C42.07 23.6514 47.2053 19.802 47.2053 13.5625ZM29.9997 30.22C29.0633 29.4873 28.1702 28.7948 27.3003 28.1203C19.4579 22.0404 15.138 18.6912 15.138 13.5625C15.138 10.0836 17.6482 6.125 22.6228 6.125C25.2188 6.125 27.2955 7.4765 28.9715 10.2566C29.177 10.5975 29.5713 10.8096 29.9997 10.8096C30.4282 10.8096 30.8225 10.5975 31.028 10.2566C32.704 7.4765 34.7807 6.125 37.3767 6.125C42.2818 6.125 44.8615 10.0248 44.8615 13.5625C44.8615 18.6912 40.5416 22.0404 32.6992 28.1205C31.8293 28.7948 30.9362 29.4873 29.9997 30.22Z" fill="#6A6A6A"/>
<path d="M8.4209 45.6621L14.0626 48.2192V53.9375C14.0626 54.5242 14.5873 55 15.2345 55H27.6564C28.3035 55 28.8283 54.5242 28.8283 53.9375V40.0666C28.8283 36.8113 26.1349 34.1118 22.5722 33.7879L22.4763 33.7786C20.4142 33.5912 16.7628 32.3123 15.3211 31.0052L12.6892 28.62C11.8037 27.8172 10.6267 27.375 9.37505 27.375V18.875C9.37505 16.5316 7.27222 14.625 4.68752 14.625C2.10282 14.625 0 16.5316 0 18.875V33.308C0 38.537 3.25759 43.3209 8.4209 45.6621ZM2.34376 18.875C2.34376 17.7033 3.39517 16.75 4.68752 16.75C5.97987 16.75 7.03129 17.7033 7.03129 18.875V27.9446C5.60206 28.6939 4.68752 30.0909 4.68752 31.625C4.68752 32.7599 5.17526 33.8269 6.06085 34.6298L12.0621 40.0719C12.5196 40.4869 13.2616 40.4869 13.7193 40.072C14.1769 39.6572 14.1771 38.9844 13.7194 38.5694L7.71824 33.1272C7.27515 32.7256 7.03129 32.1922 7.03129 31.625C7.03129 30.7257 7.65906 29.9203 8.59364 29.621C8.59375 29.621 8.59399 29.6209 8.59411 29.6208C8.59434 29.6207 8.59469 29.6207 8.59493 29.6206C9.40329 29.3605 10.3621 29.5154 11.0321 30.1229L13.6639 32.5082C16.381 34.9717 22.3174 35.8986 22.3293 35.9016C24.6981 36.1168 26.4844 37.9075 26.4844 40.0666V52.875H16.4062V47.5625C16.4062 47.16 16.1553 46.7921 15.7584 46.6122L9.46903 43.7615C5.07413 41.7686 2.34376 37.7631 2.34376 33.308V18.875Z" fill="#6A6A6A"/>
<path d="M53.7892 44.1626C54.4364 44.1626 54.9611 43.6869 54.9611 43.1001C54.9611 42.5133 54.4364 42.0376 53.7892 42.0376C53.142 42.0376 52.6173 42.5133 52.6173 43.1001C52.6173 43.6869 53.142 44.1626 53.7892 44.1626Z" fill="#6A6A6A"/>
<path d="M55.3125 14.625C52.7278 14.625 50.625 16.5316 50.625 18.875V27.375C49.3733 27.375 48.1964 27.8172 47.311 28.62L44.6787 31.0055C43.2372 32.3124 39.5859 33.5913 37.5146 33.7794L37.437 33.7871C33.8651 34.1118 31.1718 36.8114 31.1718 40.0666V53.9375C31.1718 54.5242 31.6965 55 32.3436 55H44.7656C45.4127 55 45.9375 54.5242 45.9375 53.9375V48.2192L49.773 46.4808C50.3518 46.2183 50.5865 45.5802 50.2972 45.0553C50.0077 44.5306 49.3038 44.3175 48.725 44.5801L44.2415 46.6122C43.8446 46.7921 43.5937 47.16 43.5937 47.5625V52.875H33.5155V40.0666C33.5155 37.9075 35.3018 36.1168 37.6798 35.9007L37.7574 35.8931C40.2993 35.662 44.5081 34.1653 46.3358 32.5083L48.9681 30.1228C49.6399 29.5135 50.6006 29.3619 51.405 29.6206C51.4052 29.6207 51.4056 29.6207 51.4058 29.6208C51.4059 29.6208 51.4062 29.6209 51.4063 29.621C52.341 29.9203 52.9687 30.7257 52.9687 31.625C52.9687 32.1922 52.7249 32.7256 52.2819 33.1274L46.2807 38.5695C45.8231 38.9844 45.8232 39.6572 46.2808 40.0721C46.7382 40.487 47.4805 40.487 47.9381 40.072L53.9393 34.63C54.8248 33.8269 55.3125 32.7599 55.3125 31.625C55.3125 30.0909 54.398 28.6939 52.9687 27.9446V18.875C52.9687 17.7033 54.0202 16.75 55.3125 16.75C56.6049 16.75 57.6563 17.7033 57.6563 18.875V33.308C57.6563 35.252 57.1152 37.1819 56.0914 38.8891C55.7822 39.4047 55.9925 40.0498 56.5613 40.3301C57.1297 40.6104 57.8415 40.4198 58.1506 39.9041C59.3605 37.8863 60 35.6054 60 33.308V18.875C60 16.5316 57.8972 14.625 55.3125 14.625Z" fill="#6A6A6A"/>
</svg>
