<svg width="42" height="42" viewBox="0 0 42 42" fill="none" xmlns="http://www.w3.org/2000/svg">
<path d="M33.2343 9.43219C33.2343 6.8993 31.4062 2.88086 26.5007 2.88086C24.4851 2.88086 22.7897 3.74236 21.4466 5.44527C20.1035 3.74236 18.408 2.88086 16.3926 2.88086C11.487 2.88086 9.659 6.8993 9.659 9.43219C9.659 13.7992 13.4182 16.5309 18.5537 20.5125C19.3083 21.0974 20.0886 21.7024 20.9205 22.3568C21.0715 22.4755 21.259 22.5349 21.4466 22.5349C21.6343 22.5349 21.8218 22.4755 21.9727 22.3568C22.8047 21.7024 23.585 21.0974 24.3396 20.5125C29.716 16.3441 33.2343 13.7069 33.2343 9.43219V9.43219ZM21.4466 20.8443C20.8051 20.3423 20.1932 19.8679 19.5972 19.4059C14.2243 15.2405 11.2647 12.9459 11.2647 9.43219C11.2647 7.04874 12.9845 4.33671 16.3926 4.33671C18.1712 4.33671 19.5939 5.26263 20.7422 7.16732C20.8829 7.40084 21.1531 7.54613 21.4466 7.54613C21.7402 7.54613 22.0103 7.40084 22.1511 7.16732C23.2993 5.26263 24.7221 4.33671 26.5007 4.33671C29.8611 4.33671 31.6285 7.00849 31.6285 9.43219C31.6285 12.9459 28.6689 15.2405 23.296 19.4059C22.7001 19.868 22.0882 20.3423 21.4466 20.8443V20.8443Z" fill="#80D6FF"/>
<path d="M6.66283 31.4238L10.528 33.1757V37.0933C10.528 37.4952 10.8875 37.8212 11.3308 37.8212H19.8412C20.2845 37.8212 20.644 37.4952 20.644 37.0933V27.5902C20.644 25.36 18.7988 23.5106 16.358 23.2887L16.2923 23.2823C14.8795 23.1539 12.3779 22.2777 11.3902 21.3822L9.5871 19.7481C8.98037 19.1981 8.17406 18.8951 7.31652 18.8951V13.0717C7.31652 11.4662 5.87586 10.16 4.10507 10.16C2.33427 10.16 0.893616 11.4662 0.893616 13.0717V22.9599C0.893616 26.5423 3.12541 29.8198 6.66283 31.4238ZM2.49934 13.0717C2.49934 12.269 3.21967 11.6159 4.10507 11.6159C4.99047 11.6159 5.71079 12.269 5.71079 13.0717V19.2854C4.73162 19.7987 4.10507 20.7558 4.10507 21.8068C4.10507 22.5843 4.43922 23.3154 5.04594 23.8654L9.15741 27.5939C9.47084 27.8782 9.97922 27.8782 10.2928 27.5939C10.6063 27.3097 10.6064 26.8488 10.2929 26.5645L6.18143 22.836C5.87787 22.5609 5.71079 22.1954 5.71079 21.8068C5.71079 21.1907 6.14089 20.639 6.78117 20.4339C6.78125 20.4339 6.78141 20.4338 6.78149 20.4338C6.78165 20.4337 6.78189 20.4337 6.78206 20.4336C7.33587 20.2554 7.99277 20.3615 8.45177 20.7778L10.2548 22.4119C12.1164 24.0997 16.1834 24.7347 16.1915 24.7367C17.8144 24.8842 19.0382 26.111 19.0382 27.5902V36.3654H12.1336V32.7257C12.1336 32.45 11.9617 32.1979 11.6898 32.0747L7.38091 30.1216C4.36993 28.7563 2.49934 26.0121 2.49934 22.9599V13.0717Z" fill="#80D6FF"/>
<path d="M37.7449 30.3964C38.1884 30.3964 38.5478 30.0705 38.5478 29.6685C38.5478 29.2665 38.1884 28.9406 37.7449 28.9406C37.3015 28.9406 36.9421 29.2665 36.9421 29.6685C36.9421 30.0705 37.3015 30.3964 37.7449 30.3964Z" fill="#80D6FF"/>
<path d="M38.7886 10.16C37.0178 10.16 35.5771 11.4662 35.5771 13.0717V18.8951C34.7196 18.8951 33.9132 19.1981 33.3067 19.7481L31.5033 21.3824C30.5157 22.2778 28.0141 23.1539 26.5951 23.2829L26.5419 23.2881C24.0948 23.5106 22.2496 25.3601 22.2496 27.5902V37.0933C22.2496 37.4952 22.6091 37.8212 23.0524 37.8212H31.5628C32.0061 37.8212 32.3656 37.4952 32.3656 37.0933V33.1757L34.9934 31.9846C35.39 31.8048 35.5508 31.3676 35.3525 31.008C35.1542 30.6485 34.672 30.5026 34.2754 30.6824L31.2037 32.0747C30.9318 32.1979 30.7599 32.45 30.7599 32.7257V36.3654H23.8553V27.5902C23.8553 26.111 25.0791 24.8842 26.7083 24.7362L26.7614 24.7309C28.5029 24.5726 31.3864 23.5472 32.6385 22.412L34.4419 20.7777C34.9022 20.3602 35.5604 20.2564 36.1115 20.4336C36.1116 20.4337 36.1119 20.4337 36.112 20.4338C36.1121 20.4338 36.1123 20.4338 36.1124 20.4339C36.7527 20.639 37.1828 21.1907 37.1828 21.8068C37.1828 22.1954 37.0158 22.5609 36.7123 22.8361L32.6008 26.5646C32.2873 26.8488 32.2874 27.3097 32.6009 27.594C32.9142 27.8783 33.4228 27.8783 33.7363 27.5939L37.8478 23.8656C38.4544 23.3154 38.7886 22.5843 38.7886 21.8068C38.7886 20.7558 38.162 19.7987 37.1828 19.2854V13.0717C37.1828 12.269 37.9032 11.6159 38.7886 11.6159C39.674 11.6159 40.3943 12.269 40.3943 13.0717V22.9599C40.3943 24.2917 40.0236 25.6139 39.3222 26.7835C39.1103 27.1368 39.2545 27.5787 39.6441 27.7707C40.0336 27.9628 40.5212 27.8322 40.7329 27.4789C41.5619 26.0965 42 24.5339 42 22.9599V13.0717C42 11.4662 40.5593 10.16 38.7886 10.16V10.16Z" fill="#80D6FF"/>
</svg>
