<svg width="16" height="15" viewBox="0 0 16 15" fill="none" xmlns="http://www.w3.org/2000/svg">
<g clip-path="url(#clip0)">
<path d="M2.69727 7.85587H4.16557C4.3654 7.85587 4.55888 7.88317 4.74301 7.93339C5.10623 7.21937 5.84779 6.72876 6.70229 6.72876H9.29771C10.1522 6.72876 10.8938 7.21937 11.257 7.93339C11.4411 7.88317 11.6346 7.85587 11.8344 7.85587H13.3027C14.5143 7.85587 15.5 8.84156 15.5 10.0531V12.4003C15.5 13.1273 14.9086 13.7187 14.1816 13.7187H1.81836C1.09142 13.7187 0.5 13.1273 0.5 12.4003V10.0531C0.5 8.84156 1.48569 7.85587 2.69727 7.85587ZM11.495 8.92608V12.8398H14.1816C14.424 12.8398 14.6211 12.6427 14.6211 12.4004V10.0532C14.6211 9.32622 14.0297 8.73481 13.3027 8.73481H11.8344C11.7151 8.73481 11.5996 8.75101 11.4896 8.78086C11.4928 8.82894 11.495 8.87728 11.495 8.92608ZM5.38393 12.8398H10.6161V8.92605C10.6161 8.19911 10.0246 7.6077 9.29771 7.6077H6.70229C5.97535 7.6077 5.38393 8.19911 5.38393 8.92605V12.8398ZM1.37891 12.4004C1.37891 12.6427 1.57605 12.8398 1.81836 12.8398H4.50503V8.92605C4.50503 8.87722 4.5072 8.82888 4.51036 8.78083C4.40038 8.75101 4.28486 8.73478 4.16557 8.73478H2.69727C1.97032 8.73478 1.37891 9.32619 1.37891 10.0531V12.4004Z" fill="#00AEFF"/>
<path d="M12.5688 3.7063C13.6455 3.7063 14.5214 4.58219 14.5214 5.65882C14.5214 6.73545 13.6455 7.61134 12.5688 7.61134C11.4922 7.61134 10.6163 6.73545 10.6163 5.65882C10.6163 4.58219 11.4922 3.7063 12.5688 3.7063ZM12.5689 6.73243C13.1609 6.73243 13.6425 6.25082 13.6425 5.65882C13.6425 5.06682 13.1609 4.5852 12.5689 4.5852C11.9769 4.5852 11.4953 5.06682 11.4953 5.65882C11.4953 6.25082 11.9769 6.73243 12.5689 6.73243Z" fill="#00AEFF"/>
<path d="M8.00032 1.28113C9.43868 1.28113 10.6089 2.4513 10.6089 3.88966C10.6089 5.32802 9.43868 6.4982 8.00032 6.4982C6.56196 6.4982 5.39179 5.32802 5.39179 3.88966C5.39179 2.45133 6.56196 1.28113 8.00032 1.28113ZM8.00032 5.61929C8.95405 5.61929 9.72995 4.84339 9.72995 3.88966C9.72995 2.93596 8.95405 2.16003 8.00032 2.16003C7.04659 2.16003 6.27069 2.93593 6.27069 3.88966C6.27069 4.84339 7.04659 5.61929 8.00032 5.61929Z" fill="#00AEFF"/>
<path d="M3.43118 3.7063C4.50778 3.7063 5.3837 4.58219 5.3837 5.65882C5.38367 6.73545 4.50778 7.61134 3.43118 7.61134C2.35455 7.61134 1.47866 6.73545 1.47866 5.65882C1.47866 4.58219 2.35455 3.7063 3.43118 3.7063ZM3.43118 6.73243C4.02315 6.73243 4.50479 6.25082 4.50479 5.65882C4.50476 5.06682 4.02315 4.5852 3.43118 4.5852C2.83918 4.5852 2.35756 5.06682 2.35756 5.65882C2.35756 6.25082 2.83918 6.73243 3.43118 6.73243Z" fill="#00AEFF"/>
</g>
<defs>
<clipPath id="clip0">
<rect width="15" height="15" fill="white" transform="matrix(-1 0 0 1 15.5 0)"/>
</clipPath>
</defs>
</svg>
