<svg width="20" height="19" viewBox="0 0 20 19" fill="none" xmlns="http://www.w3.org/2000/svg">
<g clip-path="url(#clip0)">
<path d="M15.2648 10.9062H11.7268L13.5693 7.96631C13.9932 7.29407 14.2173 6.51685 14.2173 5.71875C14.2173 3.39258 12.3247 1.5 9.99854 1.5C7.67224 1.5 5.77979 3.39258 5.77979 5.71875C5.77979 6.51685 6.00378 7.29407 6.427 7.96521L8.27026 10.9062H4.73218L2 17.5H17.9969L15.2648 10.9062ZM12.8606 14.6562H15.8038L16.5938 16.5625H13.1036L12.8606 14.6562ZM12.1584 16.5625H7.83386L8.0708 14.6562H11.9155L12.1584 16.5625ZM15.4154 13.7188H12.7411L12.5021 11.8438H14.6384L15.4154 13.7188ZM6.71729 5.71875C6.71729 3.90942 8.18921 2.4375 9.99854 2.4375C11.8077 2.4375 13.2798 3.90942 13.2798 5.71875C13.2798 6.3396 13.1057 6.94385 12.7756 7.46729L9.99854 11.8986L7.2207 7.46631C6.89136 6.94385 6.71729 6.3396 6.71729 5.71875ZM9.99854 13.6639L11.1393 11.8438H11.557L11.796 13.7188H8.18726L8.42041 11.8438H8.85779L9.99854 13.6639ZM5.35852 11.8438H7.47571L7.24255 13.7188H4.58154L5.35852 11.8438ZM4.19312 14.6562H7.1261L6.88904 16.5625H3.4032L4.19312 14.6562Z" fill="#00AEFF"/>
<path d="M12.3423 5.71875C12.3423 4.42639 11.2909 3.375 9.99851 3.375C8.70615 3.375 7.65475 4.42639 7.65475 5.71875C7.65475 7.01111 8.70615 8.0625 9.99851 8.0625C11.2909 8.0625 12.3423 7.01111 12.3423 5.71875ZM8.59225 5.71875C8.59225 4.94336 9.22311 4.3125 9.99851 4.3125C10.7739 4.3125 11.4048 4.94336 11.4048 5.71875C11.4048 6.49414 10.7739 7.125 9.99851 7.125C9.22311 7.125 8.59225 6.49414 8.59225 5.71875Z" fill="#00AEFF"/>
</g>
<defs>
<clipPath id="clip0">
<rect width="16" height="16" fill="white" transform="translate(2 1.5)"/>
</clipPath>
</defs>
</svg>
