<svg width="40" height="40" viewBox="0 0 40 40" fill="none" xmlns="http://www.w3.org/2000/svg">
<circle cx="19.7647" cy="19.7647" r="19.7647" fill="#00AEFF"/>
<path d="M26.8086 24.5617L23.9248 21.678C23.7807 21.5626 23.6076 21.4761 23.4346 21.4761H22.9732C23.7518 20.4668 24.2421 19.1979 24.2421 17.7849C24.2421 14.4974 21.5313 11.7866 18.2438 11.7866C14.9275 11.7866 12.2455 14.4974 12.2455 17.7849C12.2455 21.1012 14.9275 23.7831 18.2438 23.7831C19.628 23.7831 20.8969 23.3217 21.935 22.5143V23.0045C21.935 23.1775 21.9927 23.3506 22.1369 23.4947L24.9918 26.3497C25.2802 26.6381 25.7128 26.6381 25.9723 26.3497L26.7798 25.5422C27.0682 25.2827 27.0682 24.8501 26.8086 24.5617ZM18.2438 21.4761C16.1963 21.4761 14.5526 19.8323 14.5526 17.7849C14.5526 15.7662 16.1963 14.0936 18.2438 14.0936C20.2624 14.0936 21.935 15.7662 21.935 17.7849C21.935 19.8323 20.2624 21.4761 18.2438 21.4761Z" fill="black"/>
</svg>
