<svg width="48" height="48" viewBox="0 0 48 48" fill="none" xmlns="http://www.w3.org/2000/svg">
<circle cx="24" cy="24" r="24" fill="#00AEFF"/>
<path d="M32.5533 29.8249L29.0516 26.3232C28.8765 26.1831 28.6664 26.0781 28.4563 26.0781H27.896C28.8415 24.8525 29.4368 23.3117 29.4368 21.5958C29.4368 17.6039 26.1451 14.3123 22.1532 14.3123C18.1262 14.3123 14.8696 17.6039 14.8696 21.5958C14.8696 25.6228 18.1262 28.8794 22.1532 28.8794C23.834 28.8794 25.3748 28.3192 26.6354 27.3387V27.934C26.6354 28.1441 26.7054 28.3542 26.8805 28.5293L30.3472 31.996C30.6974 32.3462 31.2226 32.3462 31.5378 31.996L32.5183 31.0155C32.8685 30.7003 32.8685 30.1751 32.5533 29.8249ZM22.1532 26.0781C19.6669 26.0781 17.671 24.0821 17.671 21.5958C17.671 19.1446 19.6669 17.1136 22.1532 17.1136C24.6044 17.1136 26.6354 19.1446 26.6354 21.5958C26.6354 24.0821 24.6044 26.0781 22.1532 26.0781Z" fill="black"/>
</svg>
