<svg width="24" height="24" viewBox="0 0 24 24" fill="none" xmlns="http://www.w3.org/2000/svg">
<path fill-rule="evenodd" clip-rule="evenodd" d="M4.29356 0H19.7064C22.0739 0 24 1.92609 24 4.29356V19.7064C24 22.0739 22.0739 24 19.7065 24H4.29356C1.92609 24 0 22.0739 0 19.7065V4.29356C0 1.92609 1.92609 0 4.29356 0ZM19.7064 22.5938C21.2985 22.5938 22.5938 21.2985 22.5938 19.7064V4.29356C22.5938 2.7015 21.2985 1.40625 19.7065 1.40625H4.29356C2.7015 1.40625 1.40625 2.7015 1.40625 4.29356V19.7064C1.40625 21.2985 2.7015 22.5938 4.29356 22.5938H19.7064ZM9.57526 5.27189H20.2844C20.6727 5.27189 20.9875 5.5867 20.9875 5.97502C20.9875 6.36333 20.6727 6.67814 20.2844 6.67814H9.57531C9.28088 7.55259 8.45377 8.18437 7.48131 8.18437C6.50884 8.18437 5.68173 7.55259 5.38731 6.67814H3.71565C3.32734 6.67814 3.01252 6.36333 3.01252 5.97502C3.01252 5.5867 3.32734 5.27189 3.71565 5.27189H5.38726C5.68168 4.39744 6.50879 3.76566 7.48126 3.76566C8.45373 3.76566 9.28084 4.39744 9.57526 5.27189ZM6.67815 5.97502C6.67815 6.41784 7.03843 6.77812 7.48126 6.77812C7.92409 6.77812 8.28437 6.41784 8.28437 5.97502C8.28437 5.53219 7.92409 5.17191 7.48126 5.17191C7.03843 5.17191 6.67815 5.53219 6.67815 5.97502ZM20.2844 11.2969H18.6127C18.3183 10.4224 17.4911 9.79064 16.5187 9.79064C15.5463 9.79064 14.7192 10.4224 14.4248 11.2969H3.71565C3.32734 11.2969 3.01252 11.6117 3.01252 12C3.01252 12.3883 3.32734 12.7031 3.71565 12.7031H14.4248C14.7192 13.5776 15.5463 14.2094 16.5188 14.2094C17.4912 14.2094 18.3183 13.5776 18.6128 12.7031H20.2844C20.6727 12.7031 20.9875 12.3883 20.9875 12C20.9875 11.6117 20.6727 11.2969 20.2844 11.2969ZM16.5188 12.8031C16.0759 12.8031 15.7157 12.4428 15.7157 12C15.7157 11.5572 16.0759 11.1969 16.5188 11.1969C16.9616 11.1969 17.3219 11.5572 17.3219 12C17.3219 12.4428 16.9616 12.8031 16.5188 12.8031ZM12.5878 17.3219H20.2844C20.6727 17.3219 20.9875 17.6367 20.9875 18.025C20.9875 18.4133 20.6727 18.7281 20.2844 18.7281H12.5878C12.2934 19.6026 11.4662 20.2343 10.4938 20.2343C9.52131 20.2343 8.6942 19.6026 8.39978 18.7281H3.71565C3.32734 18.7281 3.01252 18.4133 3.01252 18.025C3.01252 17.6367 3.32734 17.3219 3.71565 17.3219H8.39978C8.6942 16.4474 9.52131 15.8156 10.4938 15.8156C11.4662 15.8156 12.2934 16.4474 12.5878 17.3219ZM9.69067 18.025C9.69067 18.4679 10.0509 18.8281 10.4938 18.8281C10.9366 18.8281 11.2969 18.4678 11.2969 18.025C11.2969 17.5822 10.9366 17.2219 10.4938 17.2219C10.0509 17.2219 9.69067 17.5822 9.69067 18.025Z" fill="#00AEFF"/>
</svg>
