<svg width="42" height="42" viewBox="0 0 42 42" fill="none" xmlns="http://www.w3.org/2000/svg">
<g clip-path="url(#clip0)">
<path d="M17.3712 18.6835H21.7956V19.7896H17.3712V18.6835Z" fill="#80D6FF"/>
<path d="M21.7956 6.52625H22.9017V7.63234H21.7956V6.52625Z" fill="#80D6FF"/>
<path d="M4.11066 33.0259H5.21675V39.7362H4.11066V33.0259Z" fill="#80D6FF"/>
<path d="M4.11066 30.8137H5.21675V31.9198H4.11066V30.8137Z" fill="#80D6FF"/>
<path d="M37.3059 27.5752C37.3059 26.0434 36.6154 24.6201 35.4114 23.6703L34.7264 24.5387C35.6627 25.2774 36.1998 26.3841 36.1998 27.5752C36.1998 29.7064 34.4659 31.4404 32.3346 31.4404C30.2033 31.4404 28.4694 29.7065 28.4694 27.5752C28.4694 25.4439 30.2033 23.71 32.3346 23.71C32.8268 23.71 33.306 23.8011 33.7589 23.9808L34.1667 22.9526C33.5834 22.7212 32.967 22.6039 32.3345 22.6039C32.3177 22.6039 32.3012 22.605 32.2844 22.6052L33.0555 20.2243L26.2323 18.7731V15.3284H28.4693V11.9725L30.0914 11.4559V10.4068L26.3381 8.72916H26.2824L24.9797 2.0553H14.222L12.9561 8.72908H12.8291L9.07575 10.4067V11.4558L10.7716 11.996V15.3284H12.9348V18.774L6.19335 20.2241L7.78996 25.3769L4.11066 27.1479V29.7076H5.21675V28.5128L9.64097 32.7221V39.7361H10.7471V32.2478L5.81485 27.5551L8.16021 26.4262H12.9471V28.6015H14.0532V25.3201H8.93034L7.60768 21.0512L12.9349 19.9054V21.0879L14.6822 22.8358L19.5837 36.1778L24.4852 22.8358L26.2324 21.088V19.9041L31.6252 21.051L31.0691 22.7677C29.6893 23.1311 28.5433 24.0746 27.9064 25.3202H25.1139V30.6262L19.5835 37.8435L14.0532 30.6262V29.7077H12.9471V31.0012L19.5835 39.6619L26.22 31.0012V26.4262H27.4988C27.4111 26.7952 27.3634 27.1796 27.3634 27.5751C27.3634 29.4681 28.4271 31.1169 29.988 31.9563H29.5262H27.3634V37.4868H29.5262V39.6996H35.0813V31.9563H34.6812C36.2421 31.117 37.3059 29.4682 37.3059 27.5752V27.5752ZM27.3634 14.2223H26.2325V12.685L27.3634 12.3248V14.2223ZM14.2899 7.63236H20.6897V6.52627H14.4997L15.1379 3.16139H24.0687L24.7256 6.52627H24.0081V7.63236H24.9415L25.1556 8.72916H14.0819L14.2899 7.63236ZM13.0651 9.83518H26.1022L28.3628 10.8456L19.5836 13.6419L10.8044 10.8456L13.0651 9.83518ZM11.8777 14.2223V12.3483L12.9348 12.685V14.2223H11.8777ZM18.3586 24.3822L19.5836 23.4478L20.8087 24.3822L19.5836 25.6072L18.3586 24.3822ZM17.4712 25.0591L18.9586 26.5464L17.8325 28.2037L16.8511 25.532L17.4712 25.0591ZM21.696 25.0591L22.3163 25.5321L21.3348 28.2037L20.2086 26.5465L21.696 25.0591ZM20.9304 23.0839H23.2157L22.7155 24.4455L20.9304 23.0839ZM16.4518 24.4455L15.9517 23.0839H18.2368L16.4518 24.4455ZM18.3018 29.4811L19.5836 27.5947L20.8654 29.4811L19.5836 32.9703L18.3018 29.4811ZM23.7789 21.9778H15.3884L14.0409 20.6299V13.0373L19.5836 14.8027L25.1263 13.0373V20.6298L23.7789 21.9778ZM30.6323 33.0624H33.9752V34.1685H30.6323V33.0624ZM28.4694 36.3807V33.0624H29.5262V36.3807H28.4694ZM33.9752 38.5936H30.6323V37.4868H33.9752V38.5936ZM33.9752 36.3807H30.6323V35.2746H33.9752V36.3807Z" fill="#80D6FF"/>
<path d="M29.5261 26.3893H30.6322V28.5523H29.5261V26.3893Z" fill="#80D6FF"/>
<path d="M30.6813 25.2833H31.7874V26.3894H30.6813V25.2833Z" fill="#80D6FF"/>
<path d="M6.3474 16.4346H7.45349V15.3563H8.53178V14.2502H7.45349V13.1719H6.3474V14.2502H5.2691V15.3563H6.3474V16.4346Z" fill="#80D6FF"/>
<path d="M4.11066 10.9042H5.21675V12.0103H4.11066V10.9042Z" fill="#80D6FF"/>
<path d="M31.7228 16.4346H32.8289V15.3563H33.9072V14.2502H32.8289V13.1719H31.7228V14.2502H30.6445V15.3563H31.7228V16.4346Z" fill="#80D6FF"/>
<path d="M33.9596 10.9042H35.0657V12.0103H33.9596V10.9042Z" fill="#80D6FF"/>
</g>
<defs>
<clipPath id="clip0">
<rect width="41.1064" height="41.1064" fill="white" transform="translate(0 0.685059)"/>
</clipPath>
</defs>
</svg>
