<svg width="60" height="60" viewBox="0 0 60 60" fill="none" xmlns="http://www.w3.org/2000/svg">
<path d="M25.3555 26.271H31.8134V27.8855H25.3555V26.271Z" fill="#6A6A6A"/>
<path d="M31.8135 8.52588H33.428V10.1404H31.8135V8.52588Z" fill="#6A6A6A"/>
<path d="M6 47.2056H7.61448V57.0001H6V47.2056Z" fill="#6A6A6A"/>
<path d="M6 43.9766H7.61448V45.591H6V43.9766Z" fill="#6A6A6A"/>
<path d="M54.4526 39.2495C54.4526 37.0137 53.4448 34.9362 51.6875 33.5499L50.6876 34.8173C52.0543 35.8956 52.8382 37.5111 52.8382 39.2495C52.8382 42.3603 50.3073 44.8913 47.1964 44.8913C44.0855 44.8913 41.5546 42.3604 41.5546 39.2495C41.5546 36.1386 44.0855 33.6078 47.1964 33.6078C47.9148 33.6078 48.6143 33.7407 49.2754 34.003L49.8706 32.5023C49.0191 32.1645 48.1194 31.9933 47.1963 31.9933C47.1717 31.9933 47.1476 31.9949 47.1231 31.9951L48.2487 28.52L38.2894 26.4018V21.3738H41.5545V16.4754L43.9222 15.7214V14.1901L38.4438 11.7414H38.3625L36.4611 2H20.7587L18.911 11.7412H18.7257L13.2472 14.19V15.7213L15.7225 16.5097V21.3738H18.88V26.4031L9.03996 28.5197L11.3704 36.0409L6 38.6259V42.362H7.61448V40.6181L14.0722 46.7621V57H15.6867V46.0699L8.48749 39.2203L11.9108 37.5724H18.8979V40.7476H20.5124V35.9579H13.0349L11.1043 29.727L18.8801 28.0545V29.7805L21.4305 32.3318L28.5849 51.8061L35.7392 32.3318L38.2895 29.7806V28.0526L46.161 29.7267L45.3493 32.2323C43.3353 32.7629 41.6626 34.14 40.733 35.958H36.657V43.7029L28.5845 54.2374L20.5124 43.7029V42.3621H18.8979V44.2502L28.5845 56.8916L38.2714 44.2502V37.5724H40.138C40.01 38.1111 39.9403 38.6721 39.9403 39.2494C39.9403 42.0124 41.493 44.4191 43.7713 45.6444H43.0972H39.9403V53.7168H43.0972V56.9467H51.2056V45.6444H50.6216C52.8999 44.4192 54.4526 42.0126 54.4526 39.2495ZM39.9403 19.7593H38.2896V17.5154L39.9403 16.9896V19.7593ZM20.858 10.1404H30.1992V8.52595H21.1642L22.0957 3.61448H35.1313L36.0901 8.52595H35.0428V10.1404H36.4053L36.7178 11.7414H20.5543L20.858 10.1404ZM19.0701 13.3557H38.0994L41.3991 14.8306L28.5848 18.9121L15.7704 14.8306L19.0701 13.3557ZM17.337 19.7593V17.0239L18.88 17.5154V19.7593H17.337ZM26.7967 34.589L28.5848 33.225L30.3729 34.589L28.5848 36.377L26.7967 34.589ZM25.5014 35.5769L27.6725 37.748L26.0288 40.1669L24.5962 36.2673L25.5014 35.5769ZM31.6681 35.5769L32.5734 36.2674L31.1408 40.167L29.4971 37.7481L31.6681 35.5769ZM30.5506 32.694H33.8862L33.1561 34.6813L30.5506 32.694ZM24.0135 34.6813L23.2835 32.694H26.619L24.0135 34.6813ZM26.7138 42.0314L28.5848 39.2779L30.4557 42.0314L28.5848 47.1243L26.7138 42.0314ZM34.7083 31.0795H22.4614L20.4945 29.112V18.0296L28.5848 20.6065L36.675 18.0296V29.1119L34.7083 31.0795ZM44.7117 47.2589H49.5911V48.8733H44.7117V47.2589ZM41.5548 52.1023V47.2589H43.0972V52.1023H41.5548ZM49.5911 55.3322H44.7117V53.7168H49.5911V55.3322ZM49.5911 52.1023H44.7117V50.4878H49.5911V52.1023Z" fill="#6A6A6A"/>
<path d="M43.0972 37.5186H44.7116V40.6758H43.0972V37.5186Z" fill="#6A6A6A"/>
<path d="M44.7832 35.9043H46.3977V37.5188H44.7832V35.9043Z" fill="#6A6A6A"/>
<path d="M9.26482 22.9884H10.8793V21.4145H12.4532V19.8H10.8793V18.2261H9.26482V19.8H7.69092V21.4145H9.26482V22.9884Z" fill="#6A6A6A"/>
<path d="M6 14.916H7.61448V16.5305H6V14.916Z" fill="#6A6A6A"/>
<path d="M46.3034 22.9884H47.9179V21.4145H49.4918V19.8H47.9179V18.2261H46.3034V19.8H44.7295V21.4145H46.3034V22.9884Z" fill="#6A6A6A"/>
<path d="M49.5684 14.916H51.1828V16.5305H49.5684V14.916Z" fill="#6A6A6A"/>
</svg>
