<svg width="42" height="43" viewBox="0 0 42 43" fill="none" xmlns="http://www.w3.org/2000/svg">
<g clip-path="url(#clip0)">
<path d="M13.4227 41.572C13.5469 41.6961 13.7153 41.7659 13.8909 41.7659C14.0666 41.7659 14.235 41.6961 14.3592 41.572L17.0082 38.9229C17.1324 38.7987 17.2022 38.6303 17.2022 38.4547C17.2022 38.279 17.1324 38.1106 17.0082 37.9864L16.8149 37.7924L18.8017 35.8115H27.1363C27.312 35.8115 27.4804 35.7417 27.6046 35.6175L36.2141 27.008C36.3382 26.8838 36.408 26.7154 36.408 26.5398C36.408 26.3642 36.3382 26.1957 36.2141 26.0715C35.3866 25.2461 34.2655 24.7826 33.0968 24.7826C31.928 24.7826 30.8069 25.2461 29.9795 26.0715L27.5244 28.5272H25.1495V26.5471C25.1488 26.0187 24.9388 25.5122 24.5654 25.1385C24.192 24.7647 23.6857 24.5542 23.1574 24.553L15.848 24.547C15.7603 24.5474 15.6736 24.5651 15.5929 24.5992C15.5122 24.6333 15.4391 24.6831 15.3777 24.7457L11.4339 28.7239C11.3116 28.8473 11.2426 29.0138 11.2419 29.1875V30.9048L10.5796 31.5624L10.3842 31.3637C10.26 31.2396 10.0916 31.1698 9.916 31.1698C9.74039 31.1698 9.57197 31.2396 9.44778 31.3637L6.7987 34.0128C6.67454 34.137 6.6048 34.3054 6.6048 34.481C6.6048 34.6567 6.67454 34.8251 6.7987 34.9493L13.4227 41.572ZM12.3677 31.6459C12.4302 31.5846 12.48 31.5116 12.5141 31.431C12.5482 31.3504 12.566 31.2638 12.5664 31.1763V29.4624L16.1235 25.8715L23.1561 25.8775C23.3335 25.8778 23.5035 25.9485 23.6289 26.074C23.7543 26.1995 23.8248 26.3696 23.825 26.5471V28.5272H18.5268V29.8518H27.7986C27.9742 29.8517 28.1427 29.7819 28.2668 29.6577L30.9159 27.0087C31.4135 26.5131 32.0651 26.2017 32.7633 26.1259C33.4615 26.05 34.1647 26.2142 34.7571 26.5914L26.8622 34.4877H18.5268C18.3515 34.4877 18.1834 34.5572 18.0593 34.681L15.8778 36.8566L11.5174 32.4942L12.3677 31.6459ZM9.91733 32.7717L15.6036 38.4547L13.8909 40.1673L10.1915 36.4678L11.0478 35.6115L10.1114 34.6751L9.25506 35.5314L8.2047 34.481L9.91733 32.7717Z" fill="#80D6FF"/>
<path d="M21.1687 2.02979H22.4932V3.35432H21.1687V2.02979Z" fill="#80D6FF"/>
<path d="M17.9283 2.93604L19.1519 2.42885L19.6591 3.65244L18.4355 4.15963L17.9283 2.93604Z" fill="#80D6FF"/>
<path d="M15.2728 5.021L16.2094 4.08441L17.146 5.021L16.2094 5.95759L15.2728 5.021Z" fill="#80D6FF"/>
<path d="M13.6282 7.95483L14.1354 6.73124L15.359 7.23843L14.8518 8.46201L13.6282 7.95483Z" fill="#80D6FF"/>
<path d="M28.3145 7.23584L29.5381 6.72866L30.0453 7.95225L28.8217 8.45943L28.3145 7.23584Z" fill="#80D6FF"/>
<path d="M26.5115 5.02209L27.4481 4.0855L28.3847 5.02209L27.4481 5.95868L26.5115 5.02209Z" fill="#80D6FF"/>
<path d="M24.0129 3.65186L24.5201 2.42826L25.7437 2.93545L25.2365 4.15904L24.0129 3.65186Z" fill="#80D6FF"/>
<path d="M18.5196 15.5895V16.7213C18.2112 16.8279 17.9341 17.0096 17.7134 17.2499C17.4926 17.4903 17.3351 17.7818 17.255 18.0981C17.1749 18.4145 17.1748 18.7458 17.2546 19.0622C17.3345 19.3787 17.4917 19.6703 17.7123 19.9108C17.4531 20.1946 17.2822 20.5477 17.2204 20.9271C17.1587 21.3064 17.2089 21.6955 17.3648 22.0468C17.5207 22.3981 17.7756 22.6964 18.0983 22.9051C18.421 23.1138 18.7976 23.224 19.1819 23.2222H24.48C24.8643 23.2239 25.2408 23.1136 25.5634 22.9049C25.886 22.6961 26.1409 22.3979 26.2968 22.0467C26.4527 21.6955 26.503 21.3065 26.4415 20.9272C26.3799 20.5479 26.2093 20.1947 25.9503 19.9108C26.1707 19.6702 26.3278 19.3785 26.4075 19.0621C26.4872 18.7457 26.4869 18.4144 26.4068 18.0981C26.3267 17.7818 26.1692 17.4903 25.9484 17.25C25.7277 17.0097 25.4507 16.828 25.1423 16.7213V15.5895C26.2056 14.8791 27.0121 13.8456 27.4429 12.6416C27.8738 11.4376 27.9059 10.127 27.5348 8.90335C27.1636 7.67968 26.4087 6.60782 25.3816 5.84608C24.3545 5.08434 23.1097 4.6731 21.831 4.6731C20.5522 4.6731 19.3074 5.08434 18.2803 5.84608C17.2532 6.60782 16.4984 7.67968 16.1272 8.90335C15.756 10.127 15.7882 11.4376 16.219 12.6416C16.6498 13.8456 17.4564 14.8791 18.5196 15.5895V15.5895ZM24.48 21.8976H19.1819C19.0062 21.8976 18.8378 21.8278 18.7136 21.7036C18.5894 21.5794 18.5196 21.411 18.5196 21.2353C18.5196 21.0597 18.5894 20.8912 18.7136 20.767C18.8378 20.6428 19.0062 20.5731 19.1819 20.5731H24.48C24.6557 20.5731 24.8241 20.6428 24.9483 20.767C25.0725 20.8912 25.1423 21.0597 25.1423 21.2353C25.1423 21.411 25.0725 21.5794 24.9483 21.7036C24.8241 21.8278 24.6557 21.8976 24.48 21.8976ZM24.48 19.2485H19.1819C19.0062 19.2485 18.8378 19.1788 18.7136 19.0546C18.5894 18.9304 18.5196 18.7619 18.5196 18.5863C18.5196 18.4106 18.5894 18.2422 18.7136 18.118C18.8378 17.9938 19.0062 17.924 19.1819 17.924H24.48C24.6557 17.924 24.8241 17.9938 24.9483 18.118C25.0725 18.2422 25.1423 18.4106 25.1423 18.5863C25.1423 18.7619 25.0725 18.9304 24.9483 19.0546C24.8241 19.1788 24.6557 19.2485 24.48 19.2485ZM21.831 6.00314C22.8502 6.00469 23.8405 6.34208 24.6486 6.96311C25.4568 7.58414 26.0378 8.45418 26.3017 9.43864C26.5656 10.4231 26.4977 11.4671 26.1086 12.4091C25.7194 13.3511 25.0307 14.1386 24.1489 14.6497C24.0483 14.7078 23.9648 14.7913 23.9067 14.8918C23.8486 14.9924 23.8179 15.1065 23.8178 15.2226V16.5995H22.4932V14.2246L24.6198 12.1013C24.8119 11.9094 24.9643 11.6815 25.0683 11.4307C25.1723 11.1798 25.2259 10.9109 25.2259 10.6394C25.2259 10.3678 25.1723 10.0989 25.0683 9.84805C24.9643 9.5972 24.8119 9.3693 24.6198 9.1774C24.2492 8.82285 23.7627 8.61471 23.2503 8.59157C22.738 8.56843 22.2346 8.73187 21.8336 9.05157C21.4326 8.73187 20.9293 8.56843 20.4169 8.59157C19.9046 8.61471 19.418 8.82285 19.0475 9.1774C18.6604 9.56538 18.4431 10.091 18.4431 10.639C18.4431 11.187 18.6604 11.7127 19.0475 12.1007L19.3786 12.4318L20.315 11.4953L19.9839 11.1642C19.8452 11.0247 19.7674 10.836 19.7674 10.6394C19.7674 10.4427 19.8452 10.254 19.9839 10.1145C20.1254 9.97938 20.3135 9.90397 20.5091 9.90397C20.7047 9.90397 20.8928 9.97938 21.0343 10.1145L21.3654 10.4456C21.4896 10.5698 21.658 10.6395 21.8336 10.6395C22.0092 10.6395 22.1777 10.5698 22.3018 10.4456L22.633 10.1145C22.7744 9.97923 22.9625 9.90372 23.1582 9.90372C23.3538 9.90372 23.542 9.97923 23.6833 10.1145C23.7524 10.1834 23.8072 10.2652 23.8446 10.3552C23.882 10.4453 23.9012 10.5418 23.9012 10.6394C23.9012 10.7369 23.882 10.8334 23.8446 10.9235C23.8072 11.0136 23.7524 11.0954 23.6833 11.1642L21.3654 13.4822C21.2412 13.6063 21.1714 13.7747 21.1714 13.9504V16.5995H19.8468V15.2226C19.8467 15.1065 19.816 14.9924 19.7579 14.8918C19.6998 14.7913 19.6163 14.7078 19.5157 14.6497C18.6341 14.1387 17.9455 13.3514 17.5563 12.4097C17.1671 11.468 17.099 10.4242 17.3625 9.43991C17.6261 8.4556 18.2067 7.58555 19.0144 6.96431C19.8221 6.34308 20.812 6.00527 21.831 6.00314Z" fill="#80D6FF"/>
</g>
<defs>
<clipPath id="clip0">
<rect width="41.7915" height="41.7915" fill="white" transform="translate(0 0.659546)"/>
</clipPath>
</defs>
</svg>
