<svg width="61" height="61" viewBox="0 0 61 61" fill="none" xmlns="http://www.w3.org/2000/svg">
<path d="M19.5922 59.7168C19.7735 59.898 20.0193 59.9998 20.2756 59.9998C20.532 59.9998 20.7778 59.898 20.9591 59.7168L24.8257 55.8501C25.0069 55.6689 25.1088 55.423 25.1088 55.1667C25.1088 54.9104 25.0069 54.6645 24.8257 54.4833L24.5435 54.2L27.4435 51.3087H39.609C39.8653 51.3087 40.1112 51.2068 40.2924 51.0255L52.8591 38.4588C53.0403 38.2776 53.1421 38.0317 53.1421 37.7754C53.1421 37.5191 53.0403 37.2732 52.8591 37.092C51.6513 35.8872 50.0149 35.2106 48.309 35.2106C46.603 35.2106 44.9667 35.8872 43.7589 37.092L40.1754 40.6764H36.709V37.786C36.7079 37.0149 36.4014 36.2756 35.8564 35.7301C35.3114 35.1845 34.5724 34.8772 33.8012 34.8754L23.1321 34.8667C23.0042 34.8672 22.8777 34.8931 22.7599 34.9429C22.6421 34.9927 22.5353 35.0654 22.4458 35.1567L16.6893 40.9635C16.5107 41.1435 16.41 41.3865 16.409 41.6401V44.1467L15.4423 45.1066L15.1571 44.8166C14.9758 44.6354 14.73 44.5336 14.4737 44.5336C14.2174 44.5336 13.9715 44.6354 13.7903 44.8166L9.92359 48.6833C9.74237 48.8645 9.64056 49.1104 9.64056 49.3667C9.64056 49.623 9.74237 49.8689 9.92359 50.0501L19.5922 59.7168ZM18.0523 45.2284C18.1435 45.139 18.2161 45.0324 18.2659 44.9147C18.3157 44.7971 18.3416 44.6708 18.3423 44.543V42.0413L23.5343 36.8L33.7993 36.8087C34.0582 36.8092 34.3064 36.9124 34.4894 37.0956C34.6725 37.2788 34.7754 37.5271 34.7756 37.786V40.6764H27.0423V42.6097H40.5756C40.832 42.6096 41.0778 42.5078 41.2591 42.3265L45.1257 38.4598C45.852 37.7364 46.8031 37.2819 47.8222 37.1713C48.8413 37.0606 49.8677 37.3002 50.7324 37.8508L39.2088 49.3764H27.0423C26.7864 49.3764 26.541 49.4779 26.3598 49.6586L23.1756 52.8341L16.8111 46.4667L18.0523 45.2284ZM14.4756 46.8717L22.7754 55.1667L20.2756 57.6665L14.8758 52.2667L16.1257 51.0168L14.7589 49.6499L13.509 50.8998L11.9758 49.3667L14.4756 46.8717Z" fill="#6A6A6A"/>
<path d="M30.8984 2H32.8317V3.93333H30.8984V2Z" fill="#6A6A6A"/>
<path d="M26.1687 3.32288L27.9547 2.58258L28.695 4.36857L26.909 5.10886L26.1687 3.32288Z" fill="#6A6A6A"/>
<path d="M22.2927 6.36609L23.6597 4.99902L25.0268 6.36609L23.6597 7.73316L22.2927 6.36609Z" fill="#6A6A6A"/>
<path d="M19.8922 10.6484L20.6324 8.86245L22.4184 9.60275L21.6781 11.3887L19.8922 10.6484Z" fill="#6A6A6A"/>
<path d="M41.3286 9.599L43.1146 8.85871L43.8549 10.6447L42.0689 11.385L41.3286 9.599Z" fill="#6A6A6A"/>
<path d="M38.6968 6.36768L40.0639 5.0006L41.431 6.36768L40.0639 7.73475L38.6968 6.36768Z" fill="#6A6A6A"/>
<path d="M35.05 4.36768L35.7903 2.58169L37.5762 3.32199L36.8359 5.10797L35.05 4.36768Z" fill="#6A6A6A"/>
<path d="M27.0317 21.7921V23.4442C26.5815 23.5998 26.1771 23.865 25.8549 24.2158C25.5326 24.5666 25.3027 24.9921 25.1858 25.4538C25.069 25.9156 25.0688 26.3992 25.1853 26.8611C25.3018 27.3229 25.5314 27.7486 25.8533 28.0996C25.475 28.5138 25.2255 29.0293 25.1354 29.583C25.0453 30.1367 25.1185 30.7047 25.346 31.2174C25.5736 31.7302 25.9457 32.1655 26.4167 32.4702C26.8878 32.7749 27.4374 32.9357 27.9984 32.933H35.7317C36.2926 32.9355 36.8421 32.7745 37.313 32.4699C37.7839 32.1652 38.1559 31.7299 38.3835 31.2173C38.6111 30.7047 38.6845 30.1368 38.5947 29.5832C38.5048 29.0295 38.2557 28.514 37.8777 28.0996C38.1994 27.7484 38.4287 27.3227 38.545 26.8608C38.6614 26.399 38.661 25.9154 38.5441 25.4537C38.4271 24.992 38.1972 24.5667 37.875 24.2159C37.5528 23.8651 37.1485 23.5999 36.6984 23.4442V21.7921C38.2503 20.7552 39.4276 19.2467 40.0564 17.4893C40.6853 15.732 40.7322 13.819 40.1904 12.0329C39.6487 10.2468 38.5468 8.68225 37.0477 7.57039C35.5485 6.45853 33.7315 5.85828 31.865 5.85828C29.9986 5.85828 28.1816 6.45853 26.6824 7.57039C25.1833 8.68225 24.0814 10.2468 23.5396 12.0329C22.9978 13.819 23.0448 15.732 23.6736 17.4893C24.3025 19.2467 25.4798 20.7552 27.0317 21.7921ZM35.7317 30.9996H27.9984C27.742 30.9996 27.4961 30.8978 27.3148 30.7165C27.1336 30.5352 27.0317 30.2894 27.0317 30.033C27.0317 29.7766 27.1336 29.5307 27.3148 29.3494C27.4961 29.1682 27.742 29.0663 27.9984 29.0663H35.7317C35.9881 29.0663 36.234 29.1682 36.4152 29.3494C36.5965 29.5307 36.6984 29.7766 36.6984 30.033C36.6984 30.2894 36.5965 30.5352 36.4152 30.7165C36.234 30.8978 35.9881 30.9996 35.7317 30.9996ZM35.7317 27.133H27.9984C27.742 27.133 27.4961 27.0311 27.3148 26.8499C27.1336 26.6686 27.0317 26.4227 27.0317 26.1663C27.0317 25.9099 27.1336 25.6641 27.3148 25.4828C27.4961 25.3015 27.742 25.1996 27.9984 25.1996H35.7317C35.9881 25.1996 36.234 25.3015 36.4152 25.4828C36.5965 25.6641 36.6984 25.9099 36.6984 26.1663C36.6984 26.4227 36.5965 26.6686 36.4152 26.8499C36.234 27.0311 35.9881 27.133 35.7317 27.133ZM31.865 7.79965C33.3527 7.80191 34.7982 8.29438 35.9778 9.20084C37.1574 10.1073 38.0054 11.3773 38.3906 12.8142C38.7758 14.2511 38.6768 15.775 38.1087 17.1499C37.5407 18.5249 36.5354 19.6743 35.2484 20.4204C35.1016 20.5052 34.9796 20.6271 34.8948 20.7738C34.81 20.9206 34.7652 21.0871 34.765 21.2566V23.2663H32.8317V19.7998L35.9357 16.7007C36.2161 16.4206 36.4386 16.088 36.5904 15.7218C36.7422 15.3557 36.8203 14.9632 36.8203 14.5668C36.8203 14.1704 36.7422 13.7779 36.5904 13.4118C36.4386 13.0456 36.2161 12.713 35.9357 12.4329C35.3948 11.9154 34.6846 11.6116 33.9368 11.5778C33.1889 11.544 32.4542 11.7826 31.8689 12.2492C31.2836 11.7826 30.5489 11.544 29.8011 11.5778C29.0532 11.6116 28.343 11.9154 27.8021 12.4329C27.2372 12.9992 26.92 13.7664 26.92 14.5663C26.92 15.3662 27.2372 16.1334 27.8021 16.6997L28.2855 17.1831L29.6523 15.8162L29.169 15.3329C28.9666 15.1293 28.853 14.8539 28.853 14.5668C28.853 14.2797 28.9666 14.0043 29.169 13.8007C29.3755 13.6035 29.65 13.4934 29.9356 13.4934C30.2211 13.4934 30.4957 13.6035 30.7021 13.8007L31.1855 14.284C31.3668 14.4653 31.6126 14.5671 31.8689 14.5671C32.1252 14.5671 32.3711 14.4653 32.5523 14.284L33.0357 13.8007C33.242 13.6033 33.5166 13.493 33.8022 13.493C34.0879 13.493 34.3625 13.6033 34.5688 13.8007C34.6696 13.9012 34.7496 14.0206 34.8042 14.1521C34.8587 14.2835 34.8868 14.4245 34.8868 14.5668C34.8868 14.7091 34.8587 14.8501 34.8042 14.9815C34.7496 15.113 34.6696 15.2324 34.5688 15.3329L31.1855 18.7162C31.0042 18.8975 30.9023 19.1433 30.9022 19.3996V23.2663H28.9689V21.2566C28.9687 21.0871 28.924 20.9206 28.8391 20.7738C28.7543 20.6271 28.6324 20.5052 28.4856 20.4204C27.1988 19.6745 26.1936 18.5254 25.6256 17.1508C25.0575 15.7762 24.9581 14.2528 25.3428 12.8161C25.7275 11.3793 26.5749 10.1094 27.7539 9.2026C28.9328 8.29583 30.3777 7.80276 31.865 7.79965Z" fill="#6A6A6A"/>
</svg>
