<svg width="20" height="16" viewBox="0 0 20 16" fill="none" xmlns="http://www.w3.org/2000/svg">
<path d="M18.5676 2.58462C18.5727 2.57231 18.5624 2.56 18.5624 2.54769V0.410256C18.5727 0.192821 18.3573 0.00820513 18.0804 0C18.0753 0 18.0701 0 18.065 0H1.92653C1.65474 0 1.4291 0.180513 1.43423 0.397949C1.43423 0.402051 1.43423 0.406154 1.43423 0.410256V2.54769C1.43423 2.56 1.42397 2.57231 1.4291 2.58462C1.4291 2.58872 1.42397 2.59692 1.4291 2.60103C1.4291 2.60923 1.4291 2.61744 1.4291 2.62154C1.4291 2.62974 1.4291 2.63385 1.43423 2.64205C1.43935 2.65026 1.43935 2.65436 1.43935 2.65846C1.43935 2.66256 1.44448 2.67077 1.44448 2.67897C1.44448 2.68308 1.44961 2.69128 1.44961 2.69538C1.45474 2.70359 1.45474 2.70769 1.45987 2.7159C1.465 2.72 1.465 2.72821 1.47012 2.73231C1.47525 2.73641 1.47525 2.74462 1.48038 2.74872C1.48551 2.75282 1.49064 2.76103 1.49064 2.76513C1.49064 2.76923 1.50089 2.77744 1.50089 2.78154C1.50602 2.78564 1.51115 2.79385 1.51628 2.79795C1.52141 2.80205 1.52653 2.80615 1.52653 2.81026C1.52653 2.81026 1.53679 2.81026 1.54192 2.81436L7.69064 8.59898V15.5897C7.68551 15.7456 7.7932 15.8892 7.97269 15.959C8.03936 15.9836 8.11115 16 8.18807 16C8.30602 16 8.41884 15.9672 8.50602 15.9097L12.1265 13.559C12.2445 13.481 12.3111 13.3621 12.306 13.239V8.59898L18.4496 2.81436C18.4496 2.81436 18.4547 2.81436 18.4599 2.81026C18.465 2.80615 18.4701 2.80205 18.4753 2.79795C18.4804 2.79385 18.4855 2.78564 18.4906 2.78154C18.4958 2.77744 18.5009 2.76923 18.506 2.76513C18.5112 2.76103 18.5163 2.75282 18.5163 2.74872C18.5214 2.74462 18.5265 2.73641 18.5265 2.73231C18.5317 2.72821 18.5317 2.72 18.5368 2.7159C18.5419 2.70769 18.5419 2.70359 18.547 2.69538C18.5522 2.69128 18.5522 2.68308 18.5522 2.67897C18.5573 2.67077 18.5573 2.66667 18.5573 2.65846C18.5573 2.65026 18.5624 2.64615 18.5624 2.64205C18.5624 2.63795 18.5676 2.62974 18.5676 2.62154C18.5676 2.61333 18.5727 2.60513 18.5727 2.60103C18.5727 2.59692 18.5624 2.58872 18.5676 2.58462ZM11.4137 8.18051C11.3317 8.25436 11.2855 8.34872 11.2804 8.44718V13.0421L8.71628 14.7282V8.44718C8.71115 8.34872 8.665 8.25436 8.58294 8.18051L3.03423 2.95385H16.9624L11.4137 8.18051ZM17.5368 2.13333H2.45987V0.820513H17.5368V2.13333Z" fill="#00AEFF"/>
</svg>
